<?xml version="1.0" encoding="iso-8859-1"?>
<svg enable-background="new 0 0 510 510" height="51" viewBox="0 0 510 510" width="51" xmlns="http://www.w3.org/2000/svg" preserveAspectRatio="xMidYMid meet">
	<g fill="#ffffff">
		<path d="m300.577 60.504v-30.504h45v-30h-120v30h45v30.504c-66.52 4.35-125.868 37.486-165.037 89.496h-59.963v30h40.891c-5.115 9.671-9.504 19.693-13.137 30h-42.754v30h34.482c-1.986 9.835-3.315 19.853-3.978 30h-60.504v30h60.504c7.591 116.088 103.994 210 224.496 210 290.294-10.469 301.335-421.107 15-449.496zm-15 419.496c-107.523 0-195-87.477-195-195 10.711-258.694 379.328-258.619 390 .001 0 107.522-87.477 194.999-195 194.999z"/>
		<path d="m285.577 120c-90.981 0-165 74.019-165 165 9.063 218.895 320.97 218.831 330-.001 0-90.98-74.019-164.999-165-164.999zm134.162 180c-2.888 26-13.186 49.793-28.732 69.216l-20.577-20.576-21.213 21.213 20.576 20.576c-19.423 15.547-43.216 25.845-69.216 28.733v-29.162h-30v29.162c-25.999-2.888-49.792-13.186-69.216-28.733l20.577-20.577-21.213-21.213-20.576 20.576c-15.548-19.422-25.847-43.215-28.734-69.215h29.162v-30h-29.162c2.887-25.999 13.186-49.792 28.733-69.216l20.576 20.577 21.213-21.213-20.577-20.576c19.424-15.547 43.217-25.846 69.216-28.733v29.161h30v-29.162c26 2.887 49.793 13.186 69.216 28.733l-20.576 20.576 21.213 21.213 20.577-20.576c15.547 19.423 25.845 43.216 28.732 69.216h-29.162v30z"/>
		<path d="m300.577 210h-30v90h60v-30h-30z"/>
	</g>
</svg>