<?xml version="1.0" standalone="no"?>
<!DOCTYPE svg PUBLIC "-//W3C//DTD SVG 20010904//EN" "http://www.w3.org/TR/2001/REC-SVG-20010904/DTD/svg10.dtd">
<svg version="1.0" xmlns="http://www.w3.org/2000/svg" width="41.000000pt" height="41.000000pt" viewBox="0 0 4158.000000 4158.000000" preserveAspectRatio="xMidYMid meet">
    <g transform="translate(0.000000,4158.000000) scale(0.100000,-0.100000)" fill="#aaaaaa" stroke="none">
        <path d="M15665 36189 c-1133 -4 -2474 -13 -2980 -18 -812 -10 -940 -13 -1090
        -31 -1355 -159 -2688 -691 -3770 -1502 -747 -561 -1374 -1223 -1880 -1988
        -415 -626 -743 -1318 -956 -2019 -185 -607 -303 -1270 -329 -1839 -47 -1038
        -47 -8162 0 -9227 20 -466 96 -969 221 -1468 247 -984 694 -1930 1294 -2737
        254 -342 452 -569 784 -901 432 -431 761 -702 1231 -1014 285 -189 462 -292
        775 -450 555 -281 1021 -451 1735 -634 421 -107 644 -138 1180 -161 338 -14
        1883 -29 4440 -40 1262 -6 2295 -12 2296 -13 1 -1 7 -1550 14 -3442 l12 -3440
        70 -135 c136 -261 282 -446 458 -579 90 -68 244 -149 353 -185 243 -80 525
        -81 802 -1 178 51 200 63 293 148 391 360 2015 1961 4422 4362 1081 1077 2262
        2255 2625 2616 l660 657 500 11 c699 17 952 31 1341 77 734 86 1375 267 2134
        603 1178 522 2265 1399 3080 2486 310 413 518 752 768 1255 268 537 380 838
        551 1477 210 788 223 966 241 3208 14 1778 20 5974 9 6680 -12 898 -25 1113
        -90 1565 -41 287 -127 680 -219 1001 -72 252 -225 696 -280 814 -16 33 -54
        119 -85 190 -32 72 -111 236 -176 365 -545 1079 -1340 2021 -2334 2768 -984
        738 -2186 1249 -3414 1452 -328 54 -507 69 -893 76 -197 4 -355 11 -352 16 6
        10 -10570 8 -13441 -3z m14490 -2691 c582 -158 903 -273 1280 -458 372 -182
        644 -361 995 -654 170 -141 581 -547 700 -691 516 -625 873 -1337 1065 -2130
        96 -392 102 -480 115 -1665 15 -1428 22 -5871 11 -6995 -18 -1730 -33 -1895
        -229 -2490 -194 -587 -453 -1091 -801 -1555 -205 -274 -516 -606 -771 -824
        -664 -567 -1530 -1000 -2319 -1161 -382 -77 -685 -98 -2036 -135 -633 -18
        -739 -30 -890 -104 -200 -97 -510 -394 -3050 -2926 -1625 -1620 -2569 -2552
        -2843 -2808 -74 -69 -116 -102 -123 -95 -24 24 -29 327 -38 2198 -12 2519 -15
        2649 -61 2830 -43 169 -148 341 -309 508 -144 149 -245 223 -426 311 l-150 74
        -1145 6 c-630 3 -1973 11 -2985 16 -3137 17 -4072 30 -4395 61 -353 33 -897
        191 -1355 394 -1257 556 -2231 1545 -2750 2790 -168 403 -313 937 -335 1235
        -31 417 -49 1717 -56 4110 -8 2553 11 4822 47 5585 11 252 30 376 98 650 194
        783 550 1492 1061 2110 119 144 530 550 700 691 351 293 623 472 995 654 376
        184 686 296 1280 459 l220 61 5555 9 c3055 5 7168 7 9140 4 l3585 -5 220 -60z"/>
    </g>
</svg>
