<?xml version="1.0" standalone="no"?>
<!DOCTYPE svg PUBLIC "-//W3C//DTD SVG 20010904//EN" "http://www.w3.org/TR/2001/REC-SVG-20010904/DTD/svg10.dtd">
<svg version="1.0" xmlns="http://www.w3.org/2000/svg" width="448.000000pt" height="448.000000pt" viewBox="0 0 448.000000 448.000000" preserveAspectRatio="xMidYMid meet">
	<g transform="translate(0.000000,448.000000) scale(0.100000,-0.100000)" fill="#000000" stroke="none">
		<path d="M1586 4468 c-24 -7 -56 -28 -82 -53 -58 -58 -67 -105 -62 -320 3
		-159 5 -173 27 -208 51 -83 143 -121 232 -97 56 15 123 80 138 135 14 51 14
		358 0 408 -15 54 -71 112 -126 131 -52 18 -71 18 -127 4z"/>
		<path d="M2910 4120 c-131 -28 -248 -75 -351 -141 -79 -51 -148 -115 -432
		-397 -218 -218 -345 -351 -357 -378 -37 -76 -18 -187 41 -241 32 -29 91 -53
		130 -53 89 0 95 5 464 371 377 373 386 381 540 428 85 27 230 30 320 6 199
		-51 363 -201 432 -395 21 -58 28 -99 31 -181 5 -125 -10 -197 -65 -309 -33
		-70 -60 -100 -374 -415 -347 -350 -378 -388 -379 -461 0 -43 26 -113 53 -142
		57 -61 162 -80 242 -43 27 12 150 130 371 352 409 414 466 493 532 739 35 133
		37 361 4 493 -100 400 -411 695 -815 772 -107 20 -281 18 -387 -5z"/>
		<path d="M545 4036 c-93 -41 -140 -155 -106 -258 14 -41 273 -301 316 -316 76
		-27 140 -18 203 27 62 43 92 158 62 236 -16 42 -257 283 -305 306 -47 22 -127
		24 -170 5z"/>
		<path d="M146 3028 c-54 -15 -121 -82 -136 -137 -21 -78 3 -155 64 -209 51
		-44 91 -52 276 -52 91 0 182 5 203 11 74 20 146 111 147 184 0 88 -66 182
		-145 204 -50 14 -356 13 -409 -1z"/>
		<path d="M1280 2715 c-47 -21 -655 -627 -732 -730 -150 -199 -218 -422 -205
		-674 7 -146 35 -257 96 -386 164 -345 494 -564 876 -582 234 -11 428 43 630
		175 92 60 736 698 765 757 44 90 14 203 -68 260 -37 26 -53 30 -105 30 -40 -1
		-74 -7 -97 -19 -19 -10 -188 -170 -375 -355 -315 -313 -345 -340 -415 -373
		-254 -123 -526 -81 -721 112 -61 60 -84 92 -117 160 -50 106 -64 167 -64 275
		0 108 14 169 64 275 40 83 49 93 378 425 186 187 346 356 356 375 25 49 25
		134 -2 185 -32 62 -91 98 -167 102 -41 2 -74 -2 -97 -12z"/>
		<path d="M3894 1825 c-74 -37 -114 -102 -114 -184 1 -79 70 -169 147 -190 50
		-14 357 -14 407 0 57 16 120 84 135 147 25 103 -38 214 -136 241 -21 6 -117
		11 -214 11 -167 0 -177 -1 -225 -25z"/>
		<path d="M3604 1030 c-111 -26 -176 -132 -152 -248 9 -42 24 -61 150 -188 154
		-156 177 -170 272 -162 71 6 126 42 155 100 27 57 28 136 2 186 -23 45 -266
		287 -301 300 -41 15 -93 20 -126 12z"/>
		<path d="M2755 681 c-51 -23 -101 -79 -114 -128 -14 -50 -14 -357 0 -408 15
		-55 82 -120 138 -135 89 -24 181 14 232 97 23 36 24 49 27 219 5 215 -3 251
		-62 310 -63 63 -145 80 -221 45z"/>
	</g>
</svg>
