<?xml version="1.0" standalone="no"?>
<!DOCTYPE svg PUBLIC "-//W3C//DTD SVG 20010904//EN" "http://www.w3.org/TR/2001/REC-SVG-20010904/DTD/svg10.dtd">
<svg version="1.0" xmlns="http://www.w3.org/2000/svg" width="497.000000pt" height="535.000000pt" viewBox="0 0 497.000000 535.000000" preserveAspectRatio="xMidYMid meet">
	<g transform="translate(0.000000,535.000000) scale(0.100000,-0.100000)" fill="#000000" stroke="none">
		<path d="M2415 5324 c-102 -20 -133 -28 -173 -46 -25 -11 -57 -31 -71 -44 -14
		-13 -30 -24 -36 -24 -11 0 -125 -119 -125 -131 0 -5 -11 -20 -24 -34 -24 -25
		-54 -107 -75 -205 -14 -63 -13 -228 4 -477 7 -117 22 -376 31 -575 10 -200 20
		-364 23 -365 3 -2 5 -42 3 -90 -2 -47 1 -96 6 -107 6 -12 24 -307 41 -656 17
		-349 35 -636 40 -638 5 -2 7 -12 4 -22 -3 -11 0 -20 6 -20 6 0 11 -6 11 -14 0
		-25 40 -105 58 -115 9 -6 14 -11 10 -11 -16 0 58 -66 100 -88 26 -14 50 -29
		53 -34 3 -4 39 -15 80 -24 112 -24 266 -5 313 38 11 10 29 21 40 24 31 10 126
		113 143 157 8 20 20 37 25 37 6 0 8 9 5 20 -3 10 0 21 6 23 6 2 12 40 14 88
		12 332 58 1205 63 1209 3 3 14 167 24 365 10 198 26 506 37 685 23 389 24 524
		5 622 -16 82 -50 169 -72 181 -8 4 -14 14 -14 21 0 20 -89 114 -130 138 -19
		12 -40 27 -47 35 -36 45 -285 95 -378 77z"/>
		<path d="M2380 1184 c-60 -12 -169 -51 -180 -65 -3 -3 -25 -19 -50 -34 -54
		-34 -113 -95 -147 -152 -14 -24 -28 -43 -32 -43 -4 0 -18 -33 -32 -72 -21 -64
		-24 -91 -24 -213 0 -121 3 -149 24 -209 13 -37 32 -75 42 -84 11 -9 19 -22 19
		-28 0 -17 100 -123 132 -140 15 -8 36 -23 46 -35 11 -11 53 -32 93 -46 88 -32
		267 -43 357 -23 67 15 164 57 175 76 4 8 12 14 18 14 5 0 29 15 53 32 40 31
		60 55 94 115 7 13 18 23 23 23 6 0 8 4 5 9 -4 5 -1 11 5 13 23 8 51 123 56
		232 8 159 -24 311 -77 368 -11 12 -20 27 -20 33 0 15 -120 135 -135 135 -6 0
		-22 10 -34 21 -45 42 -156 72 -276 75 -60 1 -121 0 -135 -2z"/>
	</g>
</svg>
