<?xml version="1.0" standalone="no"?>
<!DOCTYPE svg PUBLIC "-//W3C//DTD SVG 20010904//EN" "http://www.w3.org/TR/2001/REC-SVG-20010904/DTD/svg10.dtd">
<svg version="1.0" xmlns="http://www.w3.org/2000/svg" width="512.000000pt" height="512.000000pt" viewBox="0 0 512.000000 512.000000" preserveAspectRatio="xMidYMid meet">
    <g transform="translate(0.000000,512.000000) scale(0.100000,-0.100000)" fill="#ffffff" stroke="none">
        <path d="M2315 4028 c-682 -68 -1461 -483 -2087 -1111 -205 -204 -228 -241
        -228 -357 0 -116 27 -158 230 -360 715 -712 1564 -1120 2329 -1120 767 0 1623
        411 2332 1121 204 204 229 243 229 359 0 116 -23 153 -228 357 -634 636 -1414
        1048 -2107 1113 -129 12 -342 11 -470 -2z m-697 -745 c-279 -562 6 -1253 602
        -1456 489 -167 1025 46 1268 503 155 292 161 657 14 952 l-48 96 110 -55 c327
        -163 659 -399 926 -661 l105 -102 -115 -112 c-227 -219 -546 -455 -805 -595
        -764 -414 -1465 -414 -2230 0 -255 137 -580 378 -805 595 l-115 112 105 102
        c184 181 424 368 643 505 66 40 376 209 393 213 1 0 -21 -44 -48 -97z m1519
        -4 c97 -47 169 -174 160 -281 -9 -101 -63 -158 -151 -158 -160 0 -298 227
        -224 370 44 86 126 112 215 69z"/>
    </g>
</svg>
