<?xml version="1.0" standalone="no"?>
<!DOCTYPE svg PUBLIC "-//W3C//DTD SVG 20010904//EN" "http://www.w3.org/TR/2001/REC-SVG-20010904/DTD/svg10.dtd">
<svg version="1.0" xmlns="http://www.w3.org/2000/svg" width="497.000000pt" height="535.000000pt" viewBox="0 0 497.000000 535.000000" preserveAspectRatio="xMidYMid meet">
	<g transform="translate(0.000000,535.000000) scale(0.100000,-0.100000)" fill="#000000" stroke="none">
		<path d="M2408 5315 c-58 -21 -96 -55 -123 -109 -25 -49 -25 -54 -25 -298 0
		-243 0 -248 -20 -248 -79 0 -283 -61 -418 -125 -451 -214 -756 -591 -874
		-1084 -19 -78 -21 -130 -28 -581 -5 -388 -10 -512 -23 -575 -68 -345 -183
		-554 -447 -810 -144 -140 -185 -230 -178 -393 4 -82 9 -108 36 -165 41 -89 80
		-137 149 -183 111 -74 113 -74 678 -74 l503 0 27 -75 c98 -268 321 -472 600
		-546 114 -31 335 -31 450 0 172 45 338 150 453 285 56 67 135 209 158 285 l15
		51 503 0 c430 0 510 2 557 16 140 41 254 154 294 289 21 73 20 209 -3 282 -27
		86 -56 124 -199 268 -217 217 -324 408 -395 705 -18 77 -21 133 -28 565 -9
		558 -10 567 -92 845 -32 110 -165 346 -261 465 -197 243 -487 433 -793 519
		-50 14 -116 28 -148 32 l-56 7 0 249 c0 242 -1 250 -24 296 -29 57 -48 75
		-106 101 -52 24 -127 26 -182 6z m350 -1129 c134 -37 228 -79 329 -145 257
		-170 420 -405 495 -716 17 -70 21 -138 28 -565 5 -267 13 -514 19 -550 34
		-221 116 -447 236 -650 84 -141 141 -216 254 -332 l94 -98 -1723 0 -1723 0 94
		98 c247 255 408 560 480 912 20 96 23 149 30 595 4 270 12 513 17 540 52 287
		202 534 429 709 146 112 279 174 468 216 131 29 342 23 473 -14z m46 -3551
		c-56 -73 -218 -155 -308 -155 -44 0 -138 26 -188 51 -42 22 -148 115 -148 130
		0 5 151 9 336 9 l335 0 -27 -35z"/>
		<path d="M940 5081 c-57 -18 -91 -44 -164 -124 -171 -187 -307 -381 -422 -602
		-194 -375 -289 -749 -296 -1176 -3 -138 -2 -146 22 -189 15 -27 45 -58 74 -77
		44 -30 55 -33 123 -33 109 0 166 32 212 120 14 27 20 69 26 180 4 80 15 195
		26 257 18 110 69 329 88 375 6 12 26 66 46 118 94 245 251 489 469 729 42 46
		80 95 84 110 4 14 7 58 7 96 0 89 -33 151 -101 191 -48 28 -146 41 -194 25z"/>
		<path d="M3895 5080 c-43 -14 -102 -66 -125 -111 -24 -46 -27 -162 -6 -212 7
		-18 46 -68 86 -112 289 -317 459 -630 555 -1021 33 -134 65 -372 65 -487 0
		-127 34 -192 122 -238 52 -26 165 -26 217 0 53 27 95 79 111 136 25 88 -12
		497 -64 715 -92 385 -274 752 -531 1070 -95 118 -196 220 -239 242 -45 23
		-145 32 -191 18z"/>
	</g>
</svg>
