<?xml version="1.0" standalone="no"?>
<!DOCTYPE svg PUBLIC "-//W3C//DTD SVG 20010904//EN" "http://www.w3.org/TR/2001/REC-SVG-20010904/DTD/svg10.dtd">
<svg version="1.0" xmlns="http://www.w3.org/2000/svg" width="512.000000pt" height="512.000000pt" viewBox="0 0 512.000000 512.000000" preserveAspectRatio="xMidYMid meet">
    <g transform="translate(0.000000,512.000000) scale(0.100000,-0.100000)" fill="#000000" stroke="none">
        <path d="M1918 5091 c-110 -36 -250 -104 -353 -173 -110 -72 -307 -270 -380
        -381 -103 -157 -190 -382 -215 -552 -12 -90 -12 -350 0 -440 42 -292 165 -530
        405 -783 l97 -103 -149 -73 c-474 -234 -838 -598 -1068 -1071 -164 -335 -224
        -604 -232 -1041 l-5 -260 26 -52 c17 -33 44 -65 74 -88 l47 -35 817 3 817 4
        26 24 c25 23 25 24 25 206 l0 183 -29 20 c-29 21 -38 21 -686 21 l-656 0 5 52
        c3 29 8 85 11 123 10 115 52 303 95 428 95 275 242 511 446 713 267 264 576
        427 969 511 117 24 148 27 320 26 338 -2 501 -34 762 -149 l102 -45 215 147
        216 148 -53 33 c-28 18 -116 65 -195 104 l-143 70 110 114 c197 205 307 401
        373 660 25 102 36 416 19 550 -14 104 -73 290 -126 396 -94 188 -258 383 -430
        511 -99 74 -290 169 -409 203 -87 25 -94 25 -425 25 l-336 -1 -87 -28z m622
        -422 c77 -12 234 -76 308 -125 70 -46 202 -172 258 -247 53 -70 101 -171 140
        -287 25 -78 27 -98 28 -245 0 -129 -3 -173 -19 -225 -98 -336 -333 -579 -655
        -674 -135 -41 -387 -38 -520 5 -246 78 -452 255 -565 484 -168 340 -107 751
        154 1028 126 133 292 236 451 277 86 22 311 27 420 9z"/>
        <path d="M3866 2206 c-21 -7 -51 -23 -65 -37 -64 -62 -75 -64 -237 -58 -60 3
        -79 -1 -125 -24 -57 -28 -138 -103 -144 -135 -6 -31 -35 -96 -52 -114 -9 -10
        -41 -27 -72 -39 -102 -38 -168 -107 -197 -208 -14 -45 -14 -66 -5 -120 13 -80
        1 -130 -41 -170 -15 -14 -28 -32 -28 -38 0 -7 -4 -13 -8 -13 -13 0 -32 -87
        -32 -149 0 -32 7 -75 15 -95 8 -20 13 -36 10 -36 -3 0 6 -12 20 -27 54 -58 70
        -94 66 -153 -10 -160 1 -208 66 -287 26 -31 58 -54 118 -83 89 -42 115 -68
        136 -139 13 -43 68 -110 119 -142 46 -29 138 -42 207 -30 73 14 91 7 191 -64
        l63 -45 94 0 c52 0 105 4 120 10 27 10 29 11 87 60 51 43 91 53 157 39 72 -15
        167 3 221 42 50 36 104 110 120 164 17 55 23 61 114 105 85 40 166 113 172
        153 2 12 9 44 15 71 8 35 8 63 0 105 -12 63 -1 125 24 135 8 3 15 11 15 19 0
        7 11 24 24 37 49 45 72 180 44 261 -6 19 -31 59 -55 91 -60 78 -66 98 -52 172
        12 67 -1 160 -29 206 -27 45 -106 110 -147 121 -63 17 -95 46 -126 116 -32 71
        -94 153 -115 153 -8 0 -14 4 -14 10 0 5 -32 19 -71 31 -65 20 -78 21 -138 10
        -79 -14 -101 -8 -176 48 -27 20 -66 42 -86 49 -44 15 -151 14 -203 -2z m293
        -358 c97 -22 197 -70 279 -132 59 -45 169 -164 164 -178 -1 -4 2 -8 8 -8 6 0
        10 -6 10 -14 0 -8 4 -16 10 -18 14 -4 75 -156 95 -234 30 -122 18 -294 -31
        -409 -9 -22 -17 -47 -19 -57 -6 -28 -96 -168 -117 -181 -10 -7 -18 -17 -18
        -23 0 -29 -202 -171 -275 -194 -22 -7 -44 -16 -50 -20 -5 -4 -40 -14 -77 -24
        -86 -21 -244 -21 -323 -1 -88 23 -214 75 -245 102 -15 13 -32 23 -38 23 -13 0
        -153 138 -176 173 -9 16 -25 37 -34 48 -9 11 -17 23 -17 27 -1 4 -13 30 -27
        57 -61 118 -88 347 -55 475 8 30 14 62 14 71 -1 27 86 188 138 257 87 113 257
        225 395 259 142 34 246 35 389 1z"/>
        <path d="M4231 1410 c-32 -8 -176 -100 -222 -143 -13 -12 -31 -26 -40 -32 -9
        -5 -33 -23 -53 -39 l-36 -28 -26 31 c-79 95 -216 92 -290 -5 -30 -39 -43 -120
        -26 -164 12 -31 113 -166 179 -238 46 -51 51 -54 110 -59 50 -5 69 -2 107 17
        25 12 46 25 46 30 0 4 15 17 33 28 17 12 88 64 157 116 258 195 280 220 280
        318 0 63 -65 145 -130 163 -45 12 -55 13 -89 5z"/>
    </g>
</svg>
