<?xml version="1.0" standalone="no"?>
<!DOCTYPE svg PUBLIC "-//W3C//DTD SVG 20010904//EN" "http://www.w3.org/TR/2001/REC-SVG-20010904/DTD/svg10.dtd">
<svg version="1.0" xmlns="http://www.w3.org/2000/svg" width="512.000000pt" height="512.000000pt" viewBox="0 0 512.000000 512.000000" preserveAspectRatio="xMidYMid meet">
    <g transform="translate(0.000000,512.000000) scale(0.100000,-0.100000)" fill="#000000" stroke="none">
        <path d="M1918 5091 c-110 -36 -250 -104 -353 -173 -110 -72 -307 -270 -380
        -381 -103 -157 -190 -382 -215 -552 -12 -90 -12 -350 0 -440 42 -292 165 -530
        405 -783 l97 -103 -149 -73 c-474 -234 -838 -598 -1068 -1071 -164 -335 -224
        -604 -232 -1041 l-5 -260 26 -52 c17 -33 44 -65 74 -88 l47 -35 817 3 817 4
        26 24 c25 23 25 24 25 206 l0 183 -29 20 c-29 21 -38 21 -686 21 l-656 0 5 52
        c3 29 8 85 11 123 10 115 52 303 95 428 95 275 242 511 446 713 267 264 576
        427 969 511 117 24 148 27 320 26 338 -2 501 -34 762 -149 l102 -45 215 147
        216 148 -53 33 c-28 18 -116 65 -195 104 l-143 70 110 114 c197 205 307 401
        373 660 25 102 36 416 19 550 -14 104 -73 290 -126 396 -94 188 -258 383 -430
        511 -99 74 -290 169 -409 203 -87 25 -94 25 -425 25 l-336 -1 -87 -28z m622
        -422 c77 -12 234 -76 308 -125 70 -46 202 -172 258 -247 53 -70 101 -171 140
        -287 25 -78 27 -98 28 -245 0 -129 -3 -173 -19 -225 -98 -336 -333 -579 -655
        -674 -135 -41 -387 -38 -520 5 -246 78 -452 255 -565 484 -168 340 -107 751
        154 1028 126 133 292 236 451 277 86 22 311 27 420 9z"/>
        <path d="M4640 2346 c-252 -93 -1930 -773 -1951 -790 -49 -40 -63 -68 -67
        -134 -5 -68 15 -138 46 -164 24 -21 267 -142 677 -338 101 -48 112 -56 129
        -94 10 -22 68 -142 129 -266 60 -124 132 -272 159 -330 59 -127 94 -165 166
        -186 62 -18 108 -13 165 19 45 25 71 64 114 172 150 379 493 1239 503 1260 5
        11 62 151 126 310 117 289 118 290 118 375 1 92 -8 114 -70 162 -42 34 -160
        36 -244 4z m-889 -900 c-102 -102 -187 -184 -190 -182 -3 2 -60 29 -125 61
        -95 46 -116 60 -100 66 10 4 147 59 304 123 157 63 287 115 290 115 3 1 -78
        -82 -179 -183z m401 -258 c-35 -90 -70 -176 -77 -193 -6 -16 -32 -78 -56 -137
        -24 -60 -47 -108 -52 -108 -4 0 -33 52 -64 116 l-56 116 184 184 c101 101 184
        184 185 184 0 0 -28 -73 -64 -162z"/>
    </g>
</svg>
