<?xml version="1.0" standalone="no"?>
<!DOCTYPE svg PUBLIC "-//W3C//DTD SVG 20010904//EN" "http://www.w3.org/TR/2001/REC-SVG-20010904/DTD/svg10.dtd">
<svg version="1.0" xmlns="http://www.w3.org/2000/svg" width="998.000000pt" height="998.000000pt" viewBox="0 0 998.000000 998.000000" preserveAspectRatio="xMidYMid meet">
	<g transform="translate(0.000000,998.000000) scale(0.100000,-0.100000)" stroke="none">
		<path fill="#cc0000" d="M450 9758 c-58 -14 -64 -16 -99 -34 -47 -23 -101 -82 -131 -140 -21
		-42 -25 -62 -25 -144 0 -80 4 -103 24 -145 20 -40 265 -291 1218 -1244 656
		-656 1193 -1197 1193 -1202 0 -5 -12 -4 -27 2 -16 6 -59 20 -98 32 -68 20 -90
		21 -790 22 -396 0 -744 -3 -773 -7 -76 -12 -141 -48 -199 -112 -60 -65 -83
		-125 -83 -213 0 -126 64 -229 178 -285 l67 -33 1250 0 c687 0 1266 3 1285 6
		85 15 188 97 232 186 l23 48 3 1270 c3 1415 7 1319 -67 1413 -26 33 -59 58
		-106 82 -62 32 -77 35 -149 34 -69 0 -89 -4 -133 -28 -81 -43 -149 -123 -173
		-205 -20 -65 -21 -86 -18 -816 l3 -750 27 -75 c15 -41 28 -82 28 -90 0 -8
		-541 526 -1203 1186 -1065 1065 -1208 1204 -1255 1223 -57 24 -147 32 -202 19z"/>
		<path fill="#aaaaaa" d="M4388 7513 c-2 -164 -1 -306 1 -315 3 -17 109 -18 1880 -20 l1876 -3
		95 -26 c257 -72 418 -164 598 -342 179 -176 302 -416 347 -674 23 -130 22
		-2296 0 -2426 -82 -465 -411 -840 -868 -988 -125 -40 -216 -51 -497 -58 -271
		-7 -276 -7 -325 -33 -38 -20 -220 -196 -735 -712 -377 -377 -691 -686 -698
		-686 -9 0 -12 125 -12 590 0 566 -1 591 -20 643 -24 65 -93 138 -159 170 l-46
		22 -1015 6 c-983 5 -1018 6 -1107 26 -453 104 -804 417 -943 844 -60 183 -60
		181 -60 1147 l0 882 -315 0 -315 0 0 -829 c0 -498 4 -881 11 -958 37 -449 229
		-862 550 -1182 244 -243 528 -406 858 -491 206 -54 188 -53 1093 -57 l847 -4
		3 -827 3 -827 27 -51 c70 -133 197 -198 335 -173 32 6 71 18 88 26 16 8 444
		428 950 933 l920 918 200 5 c309 8 501 49 755 161 371 163 706 479 898 846 76
		145 114 239 152 383 65 244 63 195 67 1397 3 747 1 1138 -7 1230 -38 468 -224
		870 -554 1195 -328 325 -717 505 -1171 544 -77 7 -759 11 -1912 11 l-1792 0
		-3 -297z"/>
	</g>
</svg>
