<?xml version="1.0" standalone="no"?>
<!DOCTYPE svg PUBLIC "-//W3C//DTD SVG 20010904//EN" "http://www.w3.org/TR/2001/REC-SVG-20010904/DTD/svg10.dtd">
<svg version="1.0" xmlns="http://www.w3.org/2000/svg" width="51.000000pt" height="51.000000pt" viewBox="0 0 512.000000 512.000000" preserveAspectRatio="xMidYMid meet">
    <g transform="translate(0.000000,512.000000) scale(0.100000,-0.100000)" fill="#c70f2d" stroke="none">
        <path d="M2940 4878 c-28 -7 -327 -301 -1469 -1441 -995 -994 -1439 -1444
        -1452 -1472 -24 -51 -25 -153 -2 -203 10 -24 277 -298 737 -760 554 -556 732
        -728 770 -747 l50 -25 1685 0 c1621 0 1688 1 1726 19 85 40 135 120 135 218
        -1 97 -50 175 -135 214 -38 18 -89 19 -945 19 l-905 0 972 973 c755 755 977
        982 992 1017 27 59 27 151 2 205 -13 28 -321 341 -987 1007 -1049 1047 -986
        989 -1094 987 -25 0 -61 -5 -80 -11z m940 -2753 l-670 -670 -762 762 -763 763
        670 670 670 670 762 -762 763 -763 -670 -670z"/>
    </g>
</svg>
