<?xml version="1.0" standalone="no"?>
<!DOCTYPE svg PUBLIC "-//W3C//DTD SVG 20010904//EN" "http://www.w3.org/TR/2001/REC-SVG-20010904/DTD/svg10.dtd">
<svg version="1.0" xmlns="http://www.w3.org/2000/svg" width="535.000000pt" height="535.000000pt" viewBox="0 0 535.000000 535.000000" preserveAspectRatio="xMidYMid meet">
	<g transform="translate(0.000000,535.000000) scale(0.100000,-0.100000)" fill="#000000" stroke="none">
		<path d="M2145 5322 c-2 -3 -18 -6 -34 -8 -42 -5 -176 -62 -236 -100 -51 -33
		-1670 -1649 -1718 -1716 -168 -231 -167 -534 2 -768 51 -71 2541 -2555 2601
		-2595 56 -37 150 -82 187 -89 95 -17 133 -22 173 -20 89 4 136 13 188 33 30
		12 57 19 61 16 5 -2 26 9 47 25 21 16 45 30 53 30 18 0 1656 1634 1710 1705
		157 205 183 466 70 695 l-42 85 -1296 1296 c-1272 1272 -1298 1297 -1376 1337
		-112 56 -183 75 -293 76 -51 1 -95 0 -97 -2z m-107 -724 c7 -51 22 -163 33
		-248 22 -167 34 -267 50 -400 5 -47 14 -112 19 -145 5 -33 14 -103 20 -155 6
		-52 18 -140 25 -195 7 -55 18 -138 24 -185 20 -162 32 -256 51 -395 10 -77 22
		-167 25 -200 20 -200 47 -275 117 -325 58 -42 118 -57 303 -74 33 -3 71 -8 85
		-11 14 -3 45 -8 70 -10 25 -3 61 -7 80 -10 19 -3 58 -8 85 -11 28 -3 64 -7 80
		-10 47 -7 86 -12 140 -18 49 -6 94 -12 145 -21 14 -3 48 -7 75 -10 59 -6 125
		-14 180 -21 22 -2 54 -6 70 -8 50 -5 186 -24 225 -31 14 -3 48 -7 75 -9 28 -2
		66 -7 85 -10 19 -3 58 -8 85 -11 48 -4 91 -11 145 -20 14 -3 48 -7 75 -9 28
		-3 68 -8 90 -11 22 -3 58 -8 80 -10 22 -3 49 -7 60 -9 11 -2 28 -5 38 -5 18
		-1 -1422 -1451 -1441 -1451 -5 0 -16 -7 -23 -16 -32 -38 -105 -46 -168 -17
		-23 10 -483 463 -1263 1242 -1037 1035 -1231 1233 -1249 1274 -24 58 -20 97
		16 148 24 33 1464 1485 1476 1488 3 0 11 -41 17 -91z m1532 -1023 c1006 -1006
		1043 -1046 1005 -1041 -22 3 -65 7 -95 11 -65 7 -123 14 -165 21 -16 2 -48 6
		-70 9 -22 2 -53 7 -70 10 -28 4 -51 7 -170 20 -27 3 -63 8 -80 10 -67 9 -122
		16 -154 20 -37 4 -126 17 -151 21 -17 3 -80 11 -155 18 -27 3 -61 7 -75 9 -14
		3 -50 8 -80 12 -30 4 -66 9 -80 11 -14 2 -43 6 -65 8 -22 3 -65 8 -95 11 -30
		4 -68 8 -85 10 -16 2 -46 6 -65 9 -75 13 -106 17 -132 16 -32 0 -28 -14 -58
		235 -11 94 -24 199 -30 235 -5 36 -17 124 -25 195 -8 72 -20 162 -26 200 -5
		39 -23 176 -39 305 -16 129 -36 285 -45 345 -8 61 -19 151 -25 200 -6 50 -13
		102 -16 118 -3 15 -4 27 -2 27 2 0 473 -470 1048 -1045z"/>
	</g>
</svg>
