<?xml version="1.0" standalone="no"?>
<!DOCTYPE svg PUBLIC "-//W3C//DTD SVG 20010904//EN" "http://www.w3.org/TR/2001/REC-SVG-20010904/DTD/svg10.dtd">
<svg version="1.0" xmlns="http://www.w3.org/2000/svg" width="512.000000pt" height="512.000000pt" viewBox="0 0 512.000000 512.000000" preserveAspectRatio="xMidYMid meet">
    <g transform="translate(0.000000,512.000000) scale(0.100000,-0.100000)" fill="#ffffff" stroke="none">
        <path d="M2370 4559 c-486 -25 -916 -138 -1355 -354 -339 -166 -616 -360 -873
        -609 -116 -112 -134 -145 -140 -252 -4 -72 -1 -89 21 -137 67 -146 230 -213
        381 -157 40 16 81 46 162 121 325 299 658 501 1046 634 326 112 596 157 948
        157 352 0 622 -45 948 -157 388 -133 721 -335 1046 -634 81 -75 122 -105 162
        -121 151 -56 314 11 381 157 22 48 25 65 21 137 -6 109 -24 141 -150 262 -255
        245 -527 434 -863 599 -450 222 -863 327 -1383 355 -97 5 -184 9 -192 8 -8 0
        -80 -4 -160 -9z"/>
        <path d="M2335 3584 c-539 -56 -998 -246 -1394 -578 -125 -104 -195 -176 -220
        -224 -110 -216 55 -464 294 -439 74 7 137 43 235 133 371 338 820 514 1310
        514 490 0 939 -176 1310 -514 98 -90 161 -126 235 -133 196 -20 361 156 325
        347 -18 95 -53 145 -186 261 -383 336 -813 538 -1304 614 -101 16 -511 29
        -605 19z"/>
        <path d="M2339 2605 c-173 -25 -321 -71 -472 -146 -193 -97 -413 -273 -464
        -372 -88 -176 17 -390 210 -426 110 -20 188 8 305 111 137 121 322 210 492
        237 279 45 572 -43 792 -237 117 -103 195 -131 305 -111 194 36 299 249 210
        425 -70 138 -376 353 -630 444 -231 82 -509 110 -748 75z"/>
        <path d="M2438 1554 c-211 -51 -358 -221 -383 -445 -15 -134 42 -295 140 -398
        96 -100 222 -153 365 -153 199 0 372 108 455 284 76 162 67 339 -26 494 -107
        177 -340 270 -551 218z"/>
    </g>
</svg>
