<?xml version="1.0" standalone="no"?>
<!DOCTYPE svg PUBLIC "-//W3C//DTD SVG 20010904//EN" "http://www.w3.org/TR/2001/REC-SVG-20010904/DTD/svg10.dtd">
<svg version="1.0" xmlns="http://www.w3.org/2000/svg" width="600.000000pt" height="600.000000pt" viewBox="0 0 600.000000 600.000000" preserveAspectRatio="xMidYMid meet">
    <g transform="translate(0.000000,600.000000) scale(0.100000,-0.100000)" fill="#000000" stroke="none">
        <path d="M1690 5951 c-34 -18 -139 -122 -400 -396 -228 -239 -305 -318 -340
        -355 -80 -82 -412 -431 -487 -511 -44 -48 -94 -111 -112 -141 l-31 -55 0
        -1890 0 -1889 26 -89 c66 -230 208 -404 412 -509 197 -100 -14 -90 2007 -94
        l1780 -2 70 21 c94 28 217 83 272 121 63 43 179 154 214 204 37 54 95 171 121
        242 19 53 21 87 25 455 5 356 4 397 -10 397 -9 0 -18 -4 -22 -9 -11 -19 -163
        -70 -268 -90 -59 -12 -143 -21 -186 -21 l-78 0 -6 -283 c-6 -345 -9 -360 -97
        -416 l-58 -38 -653 -6 c-360 -4 -1138 -7 -1729 -7 l-1076 0 -54 33 c-30 17
        -69 51 -87 75 l-33 44 0 1461 c0 804 -3 1566 -7 1693 l-6 231 289 5 c254 5
        300 8 384 28 217 51 383 182 473 372 67 141 71 167 71 546 l1 334 1205 -4
        1206 -3 48 -25 c27 -14 62 -42 79 -62 39 -49 46 -115 46 -478 1 -151 4 -453 8
        -671 l6 -396 96 -6 c143 -8 314 -55 454 -125 5 -2 7 378 5 844 l-3 849 -32 75
        c-64 153 -104 220 -183 303 -98 103 -192 168 -315 218 l-97 39 -1446 0 c-1391
        -1 -1448 -2 -1482 -19z m-179 -1174 c-6 -14 -21 -33 -35 -42 -30 -20 -120 -30
        -165 -18 l-33 9 103 108 c57 59 110 118 119 129 14 20 15 16 18 -69 1 -50 -2
        -103 -7 -117z"/>
        <path d="M3488 4387 c-26 -8 -64 -26 -85 -42 -104 -78 -986 -960 -1011 -1010
        -11 -22 -25 -65 -32 -95 -16 -71 7 -164 55 -231 57 -76 933 -938 996 -979 76
        -49 160 -68 226 -50 124 33 209 119 237 240 14 57 14 72 0 132 -20 86 -40 112
        -269 341 l-178 178 699 -3 699 -3 53 -30 c171 -94 230 -296 138 -474 -24 -45
        -80 -95 -147 -131 -64 -34 -65 -35 -229 -41 -91 -4 -192 -12 -225 -19 -113
        -23 -189 -103 -220 -229 -15 -63 -15 -72 0 -132 21 -82 46 -121 107 -170 75
        -59 123 -69 333 -69 167 0 190 2 305 30 69 17 148 41 175 54 65 29 209 126
        259 172 117 110 239 306 267 429 6 28 18 71 25 97 16 53 20 333 5 342 -5 4
        -12 30 -16 59 -19 140 -139 353 -267 473 -113 107 -243 182 -403 234 -69 23
        -81 23 -790 31 -396 5 -730 10 -743 11 -19 3 7 33 167 196 104 106 203 213
        219 237 43 65 56 145 37 220 -9 33 -27 79 -41 102 -27 46 -94 106 -137 122
        -47 18 -158 22 -209 8z"/>
    </g>
</svg>
