<?xml version="1.0" standalone="no"?>
<!DOCTYPE svg PUBLIC "-//W3C//DTD SVG 20010904//EN" "http://www.w3.org/TR/2001/REC-SVG-20010904/DTD/svg10.dtd">
<svg version="1.0" xmlns="http://www.w3.org/2000/svg" width="512.000000pt" height="512.000000pt" viewBox="0 0 512.000000 512.000000" preserveAspectRatio="xMidYMid meet">
    <g transform="translate(0.000000,512.000000) scale(0.100000,-0.100000)" fill="#ffffff" stroke="none">
        <path d="M1095 4941 c-174 -68 -300 -195 -361 -361 -21 -60 -34 -184 -22 -226
        16 -59 33 -64 216 -64 160 0 163 0 187 25 14 13 25 34 25 47 0 44 22 102 48
        128 18 18 47 31 89 39 97 21 98 23 98 221 0 164 -1 169 -24 194 -23 24 -31 26
        -105 25 -64 0 -96 -6 -151 -28z"/>
        <path d="M1719 4944 c-23 -24 -24 -34 -28 -167 -6 -244 -3 -247 259 -247 262
        0 265 3 259 247 -4 133 -5 143 -28 167 l-24 26 -207 0 -207 0 -24 -26z"/>
        <path d="M2589 4944 c-23 -25 -24 -30 -24 -190 l0 -164 28 -27 c26 -26 34 -28
        126 -31 l99 -4 4 -95 c3 -89 5 -96 31 -119 27 -23 33 -24 191 -24 108 0 166 4
        173 11 9 9 29 -4 80 -51 118 -108 133 -106 277 33 155 150 157 169 29 289 -43
        40 -125 118 -183 173 -121 115 -178 154 -285 196 -76 29 -77 29 -299 29 l-223
        0 -24 -26z"/>
        <path d="M3835 4276 c-40 -18 -231 -215 -238 -245 -9 -35 15 -83 59 -119 21
        -18 33 -32 26 -32 -7 0 -24 -11 -37 -25 -24 -24 -25 -27 -25 -185 0 -96 4
        -169 11 -182 19 -36 69 -48 203 -48 l124 0 3 -125 c5 -173 0 -169 205 -173 99
        -2 166 1 183 8 50 20 52 34 52 286 -1 222 -2 239 -25 304 -13 38 -36 91 -51
        117 -33 59 -377 400 -422 419 -38 16 -31 16 -68 0z"/>
        <path d="M2853 4086 c-28 -24 -28 -26 -31 -155 -4 -155 9 -215 69 -307 77
        -119 208 -184 369 -184 98 0 151 15 169 48 7 12 11 84 11 177 0 93 -4 165 -11
        177 -14 27 -69 48 -124 48 l-45 0 0 75 c0 84 -12 118 -47 134 -14 6 -86 11
        -178 11 -148 0 -155 -1 -182 -24z"/>
        <path d="M743 3975 c-34 -24 -43 -76 -43 -240 0 -164 9 -216 43 -240 27 -19
        315 -22 350 -3 44 23 46 34 46 243 0 209 -2 220 -46 243 -35 19 -323 16 -350
        -3z"/>
        <path d="M735 3126 c-31 -31 -38 -81 -33 -267 5 -222 5 -222 236 -217 143 3
        152 4 176 27 l26 24 0 204 c0 270 14 253 -215 253 -161 0 -167 -1 -190 -24z"/>
        <path d="M4415 2841 c-16 -10 -72 -61 -122 -113 l-93 -93 345 -345 345 -345
        109 110 c101 102 110 114 116 158 15 97 7 108 -258 375 -133 134 -254 250
        -269 258 -40 21 -136 18 -173 -5z"/>
        <path d="M3213 1648 l-781 -783 -86 -352 c-47 -194 -86 -371 -86 -395 0 -24 7
        -54 16 -66 19 -27 65 -52 97 -52 13 0 188 40 388 89 l363 90 780 780 781 781
        -345 345 -345 345 -782 -782z m-503 -1348 c0 -3 -47 -17 -105 -32 -58 -14
        -105 -21 -105 -16 0 9 14 65 41 172 l11 39 79 -79 c43 -43 79 -81 79 -84z"/>
        <path d="M774 2383 c-12 -2 -32 -15 -45 -29 -24 -25 -24 -29 -24 -225 l0 -199
        28 -27 27 -28 165 0 c164 0 165 0 191 26 l25 26 -1 198 c0 117 -5 205 -11 217
        -20 37 -69 48 -206 47 -70 -1 -138 -4 -149 -6z"/>
        <path d="M765 1591 c-11 -5 -29 -19 -40 -31 -19 -21 -20 -36 -20 -221 l0 -199
        28 -27 27 -28 164 0 c160 0 165 1 190 24 l26 24 0 207 0 207 -26 24 c-24 23
        -32 24 -177 26 -84 2 -161 -1 -172 -6z"/>
        <path d="M774 823 c-12 -2 -32 -15 -44 -28 -19 -21 -22 -34 -21 -93 2 -126 69
        -269 168 -363 79 -74 111 -96 205 -135 l80 -34 202 0 203 0 24 26 c23 24 24
        34 28 167 5 237 -4 247 -216 247 -196 0 -218 11 -256 122 -31 89 -52 98 -222
        97 -71 -1 -140 -4 -151 -6z"/>
    </g>
</svg>
