<?xml version="1.0" standalone="no"?>
<!DOCTYPE svg PUBLIC "-//W3C//DTD SVG 20010904//EN" "http://www.w3.org/TR/2001/REC-SVG-20010904/DTD/svg10.dtd">
<svg version="1.0" xmlns="http://www.w3.org/2000/svg" width="451.000000pt" height="551.000000pt" viewBox="0 0 451.000000 551.000000" preserveAspectRatio="xMidYMid meet">
	<g transform="translate(0.000000,551.000000) scale(0.100000,-0.100000)" fill="#be3a3a" stroke="none">
		<path d="M1550 5499 c-209 -56 -380 -242 -424 -461 -9 -42 -16 -98 -16 -123
		l0 -45 -309 0 c-343 0 -375 -5 -506 -73 -122 -64 -258 -234 -284 -354 -13 -64
		-13 -244 0 -299 18 -75 63 -155 121 -219 54 -59 181 -155 205 -155 11 0 13
		-259 13 -1547 0 -1636 -1 -1595 45 -1729 37 -108 80 -178 169 -272 104 -108
		170 -155 270 -191 l71 -26 1329 -3 c1318 -2 1330 -2 1405 18 107 30 192 81
		282 169 72 72 169 206 169 234 0 7 4 17 8 22 11 13 28 66 49 150 15 64 17 193
		20 1620 l4 1550 51 30 c28 17 61 35 72 42 23 13 107 107 141 158 56 83 70 133
		72 270 3 183 -11 235 -93 351 -80 113 -179 185 -317 229 -76 24 -85 25 -388
		25 l-309 0 0 53 c0 65 -33 204 -61 259 -82 160 -214 272 -370 313 -44 12 -172
		15 -719 14 -381 0 -680 -5 -700 -10z m1344 -448 c45 -28 66 -72 66 -136 l0
		-45 -706 0 -706 0 4 58 c6 85 44 129 123 143 22 4 296 6 610 6 l570 -2 39 -24z
		m1123 -647 c76 -57 69 -185 -12 -222 -20 -9 -453 -12 -1746 -12 -1890 0 -1765
		-4 -1802 59 -30 51 -17 134 27 171 9 7 31 16 49 20 17 5 802 7 1744 7 l1712
		-2 28 -21z m-298 -2156 c0 -810 -4 -1507 -8 -1548 -4 -42 -16 -92 -25 -112
		-25 -51 -82 -107 -135 -132 l-46 -21 -1250 0 -1250 0 -47 22 c-56 27 -122 102
		-143 162 -13 39 -15 235 -15 1573 l0 1528 1460 0 1460 0 -1 -1472z"/>
		<path d="M1443 3569 c-45 -13 -128 -97 -136 -137 -10 -52 -9 -2486 2 -2513 15
		-41 105 -116 152 -129 80 -22 165 5 227 73 52 56 52 39 52 1323 0 1337 4 1256
		-73 1332 -60 59 -136 76 -224 51z"/>
		<path d="M2168 3564 c-54 -16 -103 -68 -118 -126 -7 -23 -9 -480 -8 -1276 l3
		-1240 30 -44 c84 -119 265 -126 350 -14 56 74 55 41 55 1321 0 1289 1 1250
		-58 1324 -50 63 -155 86 -254 55z"/>
		<path d="M2915 3569 c-17 -4 -49 -28 -72 -51 -77 -78 -73 -11 -73 -1336 0
		-1272 0 -1262 53 -1321 49 -53 98 -75 167 -76 81 0 140 30 185 93 l30 44 3
		1240 c1 829 -1 1252 -8 1278 -12 45 -89 115 -142 131 -40 11 -102 10 -143 -2z"/>
	</g>
</svg>
