<?xml version="1.0" standalone="no"?>
<!DOCTYPE svg PUBLIC "-//W3C//DTD SVG 20010904//EN" "http://www.w3.org/TR/2001/REC-SVG-20010904/DTD/svg10.dtd">
<svg version="1.0" xmlns="http://www.w3.org/2000/svg" width="512.000000pt" height="512.000000pt" viewBox="0 0 512.000000 512.000000" preserveAspectRatio="xMidYMid meet">
    <g transform="translate(0.000000,512.000000) scale(0.100000,-0.100000)" fill="#000000" stroke="none">
        <path d="M619 5087 c-175 -60 -306 -192 -359 -366 -19 -61 -20 -97 -20 -967
        l0 -904 975 0 975 0 0 1130 0 1130 -752 0 c-753 -1 -753 -1 -819 -23z m1271
        -1107 l0 -830 -675 0 -676 0 3 733 3 732 24 45 c42 81 102 126 186 141 22 3
        286 7 588 8 l547 1 0 -830z"/>
        <path d="M2810 3475 l0 -1245 -900 0 -900 0 0 -889 c0 -855 1 -891 20 -952 53
        -174 184 -306 359 -366 l66 -22 1505 0 1505 0 66 22 c176 60 307 193 360 367
        19 64 19 95 17 1535 l-3 1470 -23 57 c-48 118 -88 161 -606 652 -544 514 -557
        526 -628 562 -98 50 -137 54 -500 54 l-338 0 0 -1245z m542 468 l3 -478 25
        -50 c31 -64 101 -134 165 -165 l50 -25 508 -3 507 -3 -2 -1362 -3 -1362 -30
        -54 c-30 -54 -61 -83 -125 -117 -34 -18 -88 -19 -1490 -19 l-1455 0 -50 27
        c-59 31 -84 57 -116 118 l-24 45 -3 717 -3 718 901 0 900 0 0 1245 0 1245 120
        0 119 0 3 -477z m751 -107 l329 -311 -349 -3 c-191 -1 -363 0 -381 3 -23 4
        -36 14 -42 31 -6 14 -10 174 -10 366 l0 340 63 -58 c34 -32 210 -197 390 -368z"/>
    </g>
</svg>
