<?xml version="1.0" standalone="no"?>
<!DOCTYPE svg PUBLIC "-//W3C//DTD SVG 20010904//EN" "http://www.w3.org/TR/2001/REC-SVG-20010904/DTD/svg10.dtd">
<svg version="1.0" xmlns="http://www.w3.org/2000/svg" width="512.000000pt" height="512.000000pt" viewBox="0 0 512.000000 512.000000" preserveAspectRatio="xMidYMid meet">
    <g transform="translate(0.000000,512.000000) scale(0.100000,-0.100000)" fill="#000000" stroke="none">
        <path d="M3730 4934 c-194 -58 -350 -187 -434 -358 -19 -39 -37 -78 -39 -87
        -4 -13 -24 -18 -79 -23 -433 -40 -685 -116 -840 -254 -316 -284 -1887 -1712
        -1910 -1736 -16 -17 -46 -65 -66 -106 -36 -74 -37 -77 -37 -196 0 -198 -51
        -131 819 -1087 411 -453 765 -834 792 -853 27 -19 78 -44 114 -55 63 -19 93
        -19 1070 -17 l1005 3 68 34 c127 64 222 187 247 320 6 33 10 340 10 792 l0
        739 40 59 c173 254 312 863 313 1371 0 299 -35 487 -118 624 -33 56 -35 63
        -35 151 0 188 -69 354 -205 491 -89 90 -171 142 -284 181 -64 22 -97 27 -211
        30 -122 3 -143 1 -220 -23z m362 -336 c71 -33 141 -97 179 -163 16 -27 29 -53
        29 -56 0 -4 -33 2 -74 12 -119 31 -290 57 -454 70 l-153 12 43 45 c40 41 111
        85 168 103 14 5 66 7 115 6 73 -2 100 -7 147 -29z m-312 -468 c223 -20 470
        -75 470 -104 0 -17 -88 -99 -131 -122 -26 -14 -58 -18 -135 -18 -94 -1 -104
        -3 -149 -31 -70 -43 -106 -106 -112 -192 -4 -60 -1 -74 24 -123 91 -177 341
        -181 433 -7 14 26 34 50 45 53 38 12 140 78 187 122 l46 43 7 -87 c12 -142 -1
        -473 -24 -619 -52 -328 -167 -677 -257 -784 -46 -54 -1913 -1745 -1948 -1764
        -43 -23 -89 -13 -130 28 -107 108 -1443 1591 -1453 1613 -17 36 -7 81 26 116
        57 61 1905 1732 1939 1753 95 58 272 98 562 126 84 9 495 6 600 -3z m326
        -3574 c-8 -19 -27 -43 -42 -53 -26 -17 -68 -18 -684 -21 -573 -2 -653 -1 -640
        12 8 8 321 292 695 630 l680 617 3 -576 c2 -479 0 -581 -12 -609z"/>
        <path d="M1190 2428 c-63 -32 -93 -86 -86 -155 2 -29 11 -62 20 -75 9 -12 124
        -142 257 -289 262 -292 282 -308 369 -296 107 14 173 141 123 234 -31 56 -501
        570 -537 587 -47 22 -94 20 -146 -6z"/>
    </g>
</svg>
