<?xml version="1.0" standalone="no"?>
<!DOCTYPE svg PUBLIC "-//W3C//DTD SVG 20010904//EN" "http://www.w3.org/TR/2001/REC-SVG-20010904/DTD/svg10.dtd">
<svg version="1.0" xmlns="http://www.w3.org/2000/svg" width="51.000000pt" height="51.000000pt" viewBox="0 0 512.000000 512.000000" preserveAspectRatio="xMidYMid meet">
    <g transform="translate(0.000000,512.000000) scale(0.100000,-0.100000)" fill="#000000" stroke="none">
        <path d="M631 4864 c-150 -40 -305 -165 -369 -297 -67 -138 -63 5 -60 -2033
        l3 -1849 29 -70 c61 -147 151 -246 288 -315 42 -21 101 -43 130 -49 38 -8 601
        -11 1938 -9 l1885 3 70 29 c142 59 242 149 310 277 70 133 65 -12 65 2009 0
        1606 -2 1833 -15 1884 -53 203 -219 368 -422 421 -85 22 -3770 21 -3852 -1z
        m3799 -330 c67 -31 106 -68 137 -132 l28 -57 0 -1785 0 -1785 -21 -45 c-31
        -67 -68 -106 -132 -137 l-57 -28 -1825 0 -1825 0 -57 28 c-64 31 -101 70 -132
        137 l-21 45 0 1780 c0 1436 3 1787 13 1817 32 89 112 159 203 177 24 5 854 8
        1844 7 l1800 -1 45 -21z"/>
        <path d="M2426 4214 c-88 -21 -174 -71 -246 -144 -77 -77 -113 -140 -140 -246
        -49 -190 1 -369 142 -508 116 -114 218 -156 378 -156 160 0 262 42 378 156
        169 168 208 405 100 624 -39 81 -140 184 -224 228 -114 59 -261 77 -388 46z
        m220 -333 c80 -36 134 -135 119 -220 -8 -49 -37 -94 -88 -135 -36 -29 -45 -31
        -117 -31 -72 0 -81 2 -117 31 -21 17 -48 45 -60 63 -86 126 19 311 177 311 25
        0 63 -9 86 -19z"/>
        <path d="M2033 2930 c-87 -23 -130 -44 -209 -104 -67 -50 -128 -124 -167 -202
        -43 -85 -57 -160 -57 -299 0 -112 3 -132 21 -162 43 -69 146 -93 221 -51 62
        35 75 66 81 195 8 165 48 236 162 289 50 24 50 24 475 24 425 0 425 0 475 -24
        114 -53 154 -124 162 -289 6 -130 22 -166 84 -197 76 -39 173 -15 219 56 17
        25 20 47 20 158 0 148 -15 218 -66 317 -65 124 -198 236 -333 281 -64 22 -80
        23 -541 25 -439 2 -480 1 -547 -17z"/>
        <path d="M1044 1510 c-33 -13 -82 -77 -90 -115 -9 -50 3 -100 33 -135 52 -63
        21 -60 720 -60 619 0 639 1 671 20 48 30 72 75 72 140 0 65 -24 110 -72 140
        -32 19 -51 20 -673 19 -352 0 -649 -4 -661 -9z"/>
        <path d="M2774 1510 c-33 -13 -82 -77 -90 -115 -9 -50 3 -100 33 -135 52 -63
        21 -60 720 -60 619 0 639 1 671 20 48 30 72 75 72 140 0 65 -24 110 -72 140
        -32 19 -51 20 -673 19 -352 0 -649 -4 -661 -9z"/>
    </g>
</svg>
