<?xml version="1.0" standalone="no"?>
<!DOCTYPE svg PUBLIC "-//W3C//DTD SVG 20010904//EN" "http://www.w3.org/TR/2001/REC-SVG-20010904/DTD/svg10.dtd">
<svg version="1.0" xmlns="http://www.w3.org/2000/svg" width="512.000000pt" height="512.000000pt" viewBox="0 0 512.000000 512.000000" preserveAspectRatio="xMidYMid meet">
    <g transform="translate(0.000000,512.000000) scale(0.100000,-0.100000)" fill="#000000" stroke="none">
        <path d="M1373 5105 c-65 -18 -136 -53 -186 -93 -20 -16 -265 -245 -543 -508
        -518 -491 -558 -534 -606 -652 l-23 -57 -3 -1670 c-2 -1639 -2 -1671 17 -1735
        53 -174 184 -307 360 -367 l66 -22 1505 0 1505 0 66 22 c84 29 167 80 223 137
        91 92 156 237 156 346 l0 55 -152 -3 -153 -3 -6 -40 c-6 -48 -39 -112 -71
        -141 -12 -12 -43 -32 -68 -45 l-45 -24 -1455 0 c-1402 0 -1456 1 -1490 19 -64
        34 -95 63 -125 117 l-30 54 -3 1562 -2 1562 507 3 508 3 50 25 c64 31 134 101
        165 165 l25 50 3 478 3 478 922 -3 922 -3 50 -27 c28 -14 60 -37 71 -50 26
        -28 64 -101 64 -123 0 -13 22 -15 155 -15 l155 0 0 34 c0 51 -35 154 -75 221
        -69 115 -172 197 -304 242 l-66 22 -1020 0 c-845 0 -1029 -3 -1072 -14z m-112
        -1148 c-7 -18 -20 -28 -43 -32 -18 -3 -190 -4 -382 -3 l-348 3 388 367 389
        367 3 -338 c1 -201 -2 -349 -7 -364z"/>
        <path d="M3601 4387 c-6 -8 -14 -28 -17 -46 -4 -18 -16 -37 -28 -43 -45 -23
        -105 -79 -136 -128 l-32 -50 -698 0 c-622 0 -700 -2 -714 -16 -24 -23 -23
        -285 0 -305 11 -9 55 -16 129 -19 l112 -5 -82 -200 c-409 -997 -405 -986 -405
        -1056 0 -197 148 -421 341 -517 132 -65 189 -74 434 -70 199 4 214 5 285 31
        105 38 173 81 250 159 106 106 180 270 180 396 0 62 -11 93 -241 651 -133 322
        -244 592 -246 599 -4 9 66 12 329 12 l335 0 11 -25 c16 -36 90 -114 135 -142
        l37 -23 0 -949 0 -949 -45 -11 c-78 -20 -220 -86 -287 -134 -167 -120 -274
        -267 -343 -473 -35 -104 -46 -261 -21 -287 16 -16 82 -17 875 -17 1005 0 898
        -16 887 132 -13 185 -103 380 -242 527 -106 111 -225 186 -369 232 l-104 34
        -1 947 0 948 38 23 c44 28 118 106 134 142 l11 25 333 0 334 0 -19 -47 c-11
        -27 -120 -291 -242 -588 -208 -505 -223 -545 -227 -613 -4 -78 17 -159 66
        -257 64 -129 186 -240 322 -295 108 -43 149 -49 303 -50 l137 0 0 400 0 400
        -204 2 -203 3 144 345 c80 190 151 364 160 388 8 24 17 42 18 40 2 -2 20 -43
        40 -93 21 -49 39 -92 41 -94 2 -2 4 176 4 397 l0 402 -499 0 -499 0 -32 50
        c-34 53 -83 101 -129 124 -19 10 -30 26 -35 47 -11 57 -16 59 -171 59 -107 0
        -145 -3 -154 -13z m-1047 -1067 c36 -85 105 -252 154 -370 l89 -215 -158 -3
        c-87 -1 -232 -1 -323 0 l-164 3 161 388 c115 277 164 383 169 370 4 -10 36
        -88 72 -173z"/>
    </g>
</svg>
