<?xml version="1.0" standalone="no"?>
<!DOCTYPE svg PUBLIC "-//W3C//DTD SVG 20010904//EN" "http://www.w3.org/TR/2001/REC-SVG-20010904/DTD/svg10.dtd">
<svg version="1.0" xmlns="http://www.w3.org/2000/svg" width="45pt" height="45pt" viewBox="0 0 450 450" preserveAspectRatio="xMidYMid meet">
	<g transform="translate(0,450) scale(0.1,-0.1)" fill="#000000" stroke="none">
		<path d="M1502 4091 c-30 -14 -189 -165 -535 -508 -270 -268 -583 -578 -695
		-688 -112 -110 -215 -219 -229 -243 -33 -55 -35 -130 -5 -187 19 -38 250 -271
		1090 -1101 220 -217 339 -328 373 -347 81 -43 154 -34 228 29 67 56 90 166 52
		249 -12 28 -171 192 -519 536 -276 272 -502 499 -502 502 0 4 584 7 1298 7
		1243 0 1301 -1 1391 -20 398 -82 665 -469 601 -869 -14 -82 -69 -217 -121
		-298 -90 -137 -255 -258 -424 -309 -85 -26 -105 -28 -350 -33 -251 -6 -261 -7
		-302 -30 -82 -47 -125 -149 -99 -235 19 -63 57 -110 109 -135 40 -20 60 -21
		289 -21 196 0 268 4 354 19 451 78 830 432 939 875 89 364 16 717 -211 1017
		-54 71 -195 204 -272 257 -135 92 -341 173 -486 192 -40 5 -647 10 -1393 10
		-745 0 -1323 4 -1323 9 0 5 227 234 504 509 349 345 510 512 520 537 39 92 7
		205 -72 259 -56 40 -146 47 -210 17z"/>
	</g>
</svg>