<?xml version="1.0" standalone="no"?>
<!DOCTYPE svg PUBLIC "-//W3C//DTD SVG 20010904//EN" "http://www.w3.org/TR/2001/REC-SVG-20010904/DTD/svg10.dtd">
<svg version="1.0" xmlns="http://www.w3.org/2000/svg" width="419.000000pt" height="419.000000pt" viewBox="0 0 419.000000 419.000000" preserveAspectRatio="xMidYMid meet">
	<g transform="translate(0.000000,419.000000) scale(0.100000,-0.100000)" fill="#000000" stroke="none">
		<path d="M2050 4133 c-14 -2 -77 -18 -140 -35 -292 -77 -585 -295 -720 -535
		-13 -24 -27 -43 -30 -43 -23 0 -133 -307 -147 -409 -3 -25 -11 -49 -17 -53 -6
		-4 -32 -8 -58 -8 -102 0 -249 -45 -401 -122 -54 -27 -110 -61 -125 -74 -15
		-13 -31 -28 -37 -33 -70 -61 -185 -213 -230 -300 -26 -53 -65 -169 -84 -256
		-7 -29 -10 -107 -8 -185 3 -114 9 -150 34 -235 16 -55 40 -120 53 -145 39 -76
		119 -189 176 -247 30 -31 54 -59 54 -64 0 -4 9 -11 20 -14 11 -3 20 -10 20
		-15 0 -13 203 -120 279 -146 150 -52 179 -55 516 -61 222 -4 333 -2 362 6 98
		27 136 137 73 213 -19 23 -45 41 -68 48 -22 6 -170 10 -362 10 -362 0 -387 3
		-510 65 -68 34 -87 48 -153 111 -18 17 -40 35 -49 40 -34 19 -145 204 -131
		218 4 3 1 6 -6 6 -7 0 -10 4 -7 8 3 5 -1 30 -9 57 -20 65 -20 275 0 340 8 27
		12 52 9 57 -3 4 0 8 7 8 7 0 10 3 6 6 -14 14 112 224 134 224 6 0 26 15 44 33
		66 62 86 77 147 108 111 56 133 61 316 68 187 8 199 12 246 75 18 23 21 42 21
		122 0 52 4 94 9 94 4 0 6 11 4 25 -3 14 -1 25 5 25 5 0 7 9 4 20 -3 11 -1 20
		5 20 5 0 8 5 6 12 -7 21 57 170 104 243 25 39 67 93 92 120 25 28 46 53 46 56
		0 11 152 124 210 156 64 36 136 64 235 89 139 36 424 21 560 -30 126 -47 325
		-185 371 -257 13 -21 28 -39 32 -39 18 0 118 -171 152 -260 49 -126 52 -141
		51 -240 -1 -108 9 -147 46 -188 23 -25 45 -37 93 -48 34 -8 99 -30 143 -50
		134 -59 292 -210 340 -326 8 -20 13 -39 9 -42 -3 -3 0 -6 7 -6 7 0 10 -4 6
		-10 -3 -5 2 -26 11 -47 12 -27 18 -76 21 -163 4 -106 2 -135 -16 -189 -11 -36
		-18 -68 -15 -73 3 -4 1 -8 -4 -8 -5 0 -9 -6 -9 -12 -1 -85 -189 -287 -328
		-353 -134 -64 -146 -65 -504 -65 -191 0 -341 -4 -363 -10 -20 -6 -50 -26 -67
		-46 -26 -29 -31 -43 -31 -86 0 -47 4 -54 40 -89 29 -28 51 -39 86 -45 25 -3
		184 -4 352 -1 231 4 322 9 369 21 202 51 350 128 468 243 86 85 168 191 212
		278 29 55 65 174 58 186 -3 4 1 9 7 11 10 4 14 52 16 186 3 173 2 187 -24 280
		-46 166 -130 301 -278 444 -63 61 -103 90 -181 130 -54 28 -117 56 -139 62
		-40 12 -41 12 -52 81 -27 162 -113 406 -160 452 -8 8 -22 29 -31 46 -9 18 -28
		47 -42 64 -14 18 -26 36 -26 40 0 3 -34 41 -75 83 -190 193 -429 320 -694 369
		-57 10 -303 13 -356 4z"/>
		<path d="M1732 2348 c-161 -161 -300 -305 -308 -320 -30 -57 -14 -116 43 -160
		44 -34 94 -36 141 -8 18 11 101 89 185 173 l152 152 -3 -965 c-2 -531 0 -989
		3 -1018 5 -42 14 -61 40 -88 32 -32 37 -34 101 -34 66 0 70 1 101 36 24 27 33
		49 38 88 3 28 5 485 3 1016 l-3 965 152 -153 c84 -83 167 -161 185 -172 18
		-11 50 -20 72 -20 32 0 46 7 82 44 36 35 44 50 44 80 0 20 -6 49 -14 64 -8 15
		-147 159 -308 320 l-294 292 -59 0 -59 0 -294 -292z"/>
	</g>
</svg>
