<?xml version="1.0" standalone="no"?>
<!DOCTYPE svg PUBLIC "-//W3C//DTD SVG 20010904//EN" "http://www.w3.org/TR/2001/REC-SVG-20010904/DTD/svg10.dtd">
<svg version="1.0" xmlns="http://www.w3.org/2000/svg" width="2059.000000pt" height="2056.000000pt" viewBox="0 0 2059.000000 2056.000000" preserveAspectRatio="xMidYMid meet">
    <g transform="translate(0.000000,2056.000000) scale(0.100000,-0.100000)" fill="#000000" stroke="none">
        <path d="M10091 19705 c-29 -8 -86 -32 -125 -52 -66 -34 -156 -121 -1327
        -1292 -790 -790 -1270 -1277 -1294 -1312 -111 -172 -123 -397 -29 -589 33 -67
        59 -98 258 -297 183 -183 232 -227 285 -253 182 -91 391 -92 570 -4 69 34 109
        71 565 520 l491 482 3 -1944 2 -1944 805 0 805 0 0 1922 0 1923 488 -492 c451
        -455 492 -494 553 -522 177 -82 369 -81 538 2 55 26 100 65 265 227 109 107
        218 223 242 256 68 95 96 179 102 304 6 131 -7 196 -60 303 -40 82 -44 86
        -1322 1365 -740 741 -1304 1298 -1336 1320 -95 63 -168 84 -305 88 -85 3 -135
        0 -174 -11z"/>
        <path d="M8670 11610 c-6189 -5 -6468 -6 -6540 -23 -278 -68 -506 -192 -695
        -382 -180 -180 -290 -371 -362 -630 -34 -126 -43 -366 -19 -516 70 -425 338
        -790 722 -983 107 -53 202 -86 339 -118 l100 -23 5890 -2 c3240 -2 6894 1
        8120 6 2450 9 2264 4 2455 67 389 130 717 441 857 814 57 152 74 237 80 406 4
        126 2 184 -11 265 -70 425 -338 790 -722 983 -107 53 -202 86 -339 117 l-100
        23 -1655 1 c-910 0 -4564 -2 -8120 -5z"/>
        <path d="M9488 5610 l-3 -1881 -511 504 c-476 470 -515 507 -585 541 -191 94
        -429 84 -602 -25 -68 -43 -406 -376 -464 -456 -130 -182 -145 -408 -41 -617
        26 -54 184 -215 1301 -1335 812 -812 1293 -1287 1330 -1311 102 -68 171 -85
        332 -85 128 1 146 3 208 28 37 14 91 42 120 61 29 19 626 610 1328 1313 1270
        1272 1277 1278 1317 1360 89 180 80 390 -23 569 -40 70 -435 462 -505 501
        -177 99 -412 99 -590 0 -41 -22 -176 -152 -527 -506 l-472 -476 -1 1848 0
        1847 -805 0 -805 0 -2 -1880z"/>
    </g>
</svg>
