<?xml version="1.0" standalone="no"?>
<!DOCTYPE svg PUBLIC "-//W3C//DTD SVG 20010904//EN" "http://www.w3.org/TR/2001/REC-SVG-20010904/DTD/svg10.dtd">
<svg version="1.0" xmlns="http://www.w3.org/2000/svg" width="512.000000pt" height="512.000000pt" viewBox="0 0 512.000000 512.000000" preserveAspectRatio="xMidYMid meet">
    <g transform="translate(0.000000,512.000000) scale(0.100000,-0.100000)" fill="#000000" stroke="none">
        <path d="M2410 4805 l0 -314 -57 -28 c-74 -36 -160 -122 -196 -196 l-28 -57
        -914 0 -915 0 0 -150 0 -150 183 -2 184 -3 -334 -815 -334 -815 4 -90 c10
        -173 80 -321 221 -460 72 -72 109 -99 176 -133 146 -72 203 -82 500 -82 296 0
        354 9 500 82 69 34 103 60 180 138 78 77 104 111 138 180 50 101 82 219 82
        305 0 58 -19 108 -331 866 -182 442 -333 810 -336 817 -4 9 99 12 496 12 l500
        0 28 -57 c36 -74 122 -160 196 -196 l57 -28 0 -1279 0 -1280 -21 0 c-11 0 -56
        -9 -99 -20 -443 -113 -783 -516 -808 -958 l-5 -92 1088 0 1088 0 -5 92 c-26
        451 -384 865 -833 963 -44 10 -86 19 -92 21 -10 3 -13 267 -13 1278 l0 1275
        57 28 c74 36 160 122 196 196 l28 57 499 0 498 0 -33 -82 c-18 -46 -169 -414
        -335 -818 l-301 -735 4 -90 c10 -173 80 -321 221 -460 72 -72 109 -99 176
        -133 146 -72 203 -82 500 -82 296 0 354 9 500 82 69 34 103 60 180 138 78 77
        104 111 138 180 50 101 82 219 82 305 0 58 -19 108 -331 866 -182 442 -333
        810 -336 817 -4 9 36 12 181 12 l186 0 0 150 0 150 -915 0 -914 0 -28 57 c-15
        32 -53 82 -83 113 -31 30 -81 68 -113 83 l-57 28 0 314 0 315 -150 0 -150 0 0
        -315z m-1249 -1777 l255 -613 -258 -3 c-142 -1 -374 -1 -516 0 l-258 3 255
        613 c140 336 258 612 261 612 3 0 121 -276 261 -612z m3320 0 l255 -613 -258
        -3 c-142 -1 -374 -1 -516 0 l-258 3 255 613 c140 336 258 612 261 612 3 0 121
        -276 261 -612z"/>
    </g>
</svg>
