<?xml version="1.0" standalone="no"?>
<!DOCTYPE svg PUBLIC "-//W3C//DTD SVG 20010904//EN" "http://www.w3.org/TR/2001/REC-SVG-20010904/DTD/svg10.dtd">
<svg version="1.0" xmlns="http://www.w3.org/2000/svg" width="512.000000pt" height="512.000000pt" viewBox="0 0 512.000000 512.000000" preserveAspectRatio="xMidYMid meet">
    <g transform="translate(0.000000,512.000000) scale(0.100000,-0.100000)" fill="#ffffff" stroke="none">
        <path d="M430 5037 c-155 -53 -288 -168 -362 -312 -61 -119 -58 20 -58 -2176
        0 -2209 -4 -2052 57 -2174 57 -112 202 -248 307 -286 34 -12 67 -27 75 -33 10
        -8 196 -12 596 -14 l582 -3 26 27 c34 33 40 77 36 248 -4 133 -5 136 -32 163
        l-27 28 -528 5 c-595 6 -566 2 -603 83 -18 41 -19 99 -18 1962 0 1461 3 1928
        12 1955 9 26 23 41 57 58 l44 22 1346 0 c1300 0 1346 -1 1387 -19 82 -38 77 7
        83 -804 l5 -719 28 -24 c27 -23 33 -24 201 -24 l173 0 27 26 26 27 0 762 c0
        844 3 802 -67 931 -65 119 -203 239 -331 288 l-57 21 -1460 2 -1460 3 -65 -23z"/>
        <path d="M799 4276 c-123 -44 -184 -166 -149 -296 15 -57 88 -130 146 -148 55
        -16 780 -17 839 -1 54 15 139 100 154 154 14 51 14 89 0 140 -15 54 -100 139
        -154 154 -60 16 -789 14 -836 -3z"/>
        <path d="M795 3525 c-55 -20 -130 -100 -145 -156 -14 -52 -8 -135 14 -177 20
        -38 69 -88 110 -110 29 -16 112 -17 1119 -20 780 -2 1100 1 1130 9 56 15 141
        99 156 154 35 129 -34 264 -154 300 -71 22 -2169 21 -2230 0z"/>
        <path d="M4405 2916 c-16 -8 -75 -59 -130 -115 l-100 -101 355 -355 355 -355
        98 98 c55 53 108 115 118 137 24 51 24 109 0 160 -23 49 -492 519 -534 534
        -39 15 -126 13 -162 -3z"/>
        <path d="M799 2766 c-119 -42 -183 -170 -149 -295 16 -62 88 -135 145 -150 61
        -15 2183 -15 2239 0 58 16 123 81 141 142 30 103 14 171 -59 243 -33 34 -65
        56 -91 63 -62 17 -2178 15 -2226 -3z"/>
        <path d="M3167 1692 l-797 -798 -90 -364 c-50 -200 -90 -382 -90 -405 0 -58
        30 -101 80 -116 39 -12 64 -7 423 80 l382 93 798 796 c438 439 797 801 797
        807 0 10 -690 705 -700 705 -3 0 -364 -359 -803 -798z m-510 -1388 c-2 -3
        -215 -54 -222 -54 -3 0 41 182 51 209 3 10 31 -12 89 -69 46 -46 83 -85 82
        -86z"/>
    </g>
</svg>
