<?xml version="1.0" standalone="no"?>
<!DOCTYPE svg PUBLIC "-//W3C//DTD SVG 20010904//EN" "http://www.w3.org/TR/2001/REC-SVG-20010904/DTD/svg10.dtd">
<svg version="1.0" xmlns="http://www.w3.org/2000/svg" width="131.000000pt" height="131.000000pt" viewBox="0 0 131.000000 131.000000" preserveAspectRatio="xMidYMid meet">
<g transform="translate(0.000000,131.000000) scale(0.100000,-0.100000)" fill="#000000" stroke="none">
<path d="M630 1204 c-42 -15 -63 -32 -97 -81 l-36 -53 -106 0 c-186 0 -181 14 -181 -477 0 -340 2 -382 18 -413 34 -68 45 -70 430 -70 368 0 392 3 426 51 14 21 16 71 16 437 l0 414 -29 29 c-29 29 -31 29 -139 29 l-110 0 -36 50 c-19 27 -46 56 -58 64 -27 17 -77 27 -98 20z m-190 -284 c0 -38 4 -52 19 -60 21 -11 360 -14 399 -4 19 6 22 13 22 61 l0 54 58 -3 57 -3 3 -255 2 -255 -117 -118 -117 -117 -223 0 -223 0 0 375 0 375 60 0 60 0 0 -50z"/>
<path d="M440 705 l0 -35 220 0 220 0 0 35 0 35 -220 0 -220 0 0 -35z"/>
<path d="M440 555 l0 -35 220 0 220 0 0 35 0 35 -220 0 -220 0 0 -35z"/>
<path d="M440 410 l0 -30 145 0 145 0 0 30 0 30 -145 0 -145 0 0 -30z"/>
</g>
</svg>
