<?xml version="1.0" encoding="iso-8859-1"?>
<svg version="1.1" xmlns="http://www.w3.org/2000/svg" xmlns:xlink="http://www.w3.org/1999/xlink" x="0px" y="0px" viewBox="0 0 512 512" xml:space="preserve">
	<g>
		<path d="M416,0H96C43.056,0,0,43.056,0,96v224c0,52.944,43.056,96,96,96h192v80c0,6.464,3.904,12.304,9.872,14.784
			C299.856,511.6,301.936,512,304,512c4.16,0,8.256-1.632,11.312-4.688L406.624,416H416c52.944,0,96-43.056,96-96V96
			C512,43.056,468.944,0,416,0z M480,320c0,35.296-28.704,64-64,64h-16c-4.24,0-8.32,1.68-11.312,4.688L320,457.376V400
			c0-8.832-7.168-16-16-16H96c-35.296,0-64-28.704-64-64V96c0-35.296,28.704-64,64-64h320c35.296,0,64,28.704,64,64V320z"/>
		<rect x="96" y="112" width="320" height="32"/>
		<rect x="96" y="192" width="320" height="32"/>
		<rect x="96" y="272" width="320" height="32"/>
	</g>
</svg>
