<?xml version="1.0" standalone="no"?>
<!DOCTYPE svg PUBLIC "-//W3C//DTD SVG 20010904//EN" "http://www.w3.org/TR/2001/REC-SVG-20010904/DTD/svg10.dtd">
<svg version="1.0" xmlns="http://www.w3.org/2000/svg" width="398.000000pt" height="398.000000pt" viewBox="0 0 398.000000 398.000000" preserveAspectRatio="xMidYMid meet">
	<g transform="translate(0.000000,398.000000) scale(0.100000,-0.100000)" fill="#000000" stroke="none">
		<path d="M1873 3955 c-302 -85 -443 -415 -295 -689 l26 -48 -29 -21 c-73 -52
		-155 -142 -190 -208 -54 -103 -65 -171 -65 -414 0 -238 7 -266 70 -297 32 -17
		82 -18 600 -18 518 0 568 1 600 18 63 31 70 60 70 287 -1 245 -14 327 -67 425
		-36 68 -116 156 -188 207 l-29 21 26 48 c76 142 77 308 2 457 -42 81 -139 169
		-231 207 -94 39 -215 49 -300 25z m223 -275 c123 -70 146 -235 47 -332 -124
		-121 -312 -74 -359 90 -19 64 -11 118 28 180 31 51 111 92 178 92 43 0 67 -7
		106 -30z m130 -679 c55 -25 109 -75 142 -130 26 -44 27 -54 30 -198 l4 -153
		-411 0 -411 0 0 143 c0 128 3 147 24 192 26 57 89 118 150 146 36 16 67 19
		236 19 168 0 201 -3 236 -19z"/>
		<path d="M848 3522 c-10 -2 -18 -8 -18 -13 0 -6 -4 -7 -10 -4 -5 3 -10 1 -10
		-6 0 -7 -3 -10 -6 -6 -10 9 -164 -155 -164 -176 0 -4 -4 -5 -10 -2 -5 3 -10 3
		-10 -2 0 -4 -17 -27 -38 -49 -21 -23 -49 -59 -62 -80 -13 -22 -27 -41 -30 -44
		-8 -6 -145 -243 -145 -250 0 -3 -10 -26 -22 -50 -29 -60 -47 -103 -49 -115 -1
		-11 -11 -39 -24 -70 -5 -11 -21 -65 -35 -119 -26 -102 -29 -156 -11 -191 17
		-32 68 -75 90 -76 34 -2 60 2 72 12 6 5 14 6 17 2 4 -3 7 -1 7 6 0 7 4 10 9 6
		5 -3 12 4 16 15 4 11 10 18 14 15 4 -2 14 21 21 53 7 31 16 62 20 67 4 6 15
		44 25 85 10 41 21 82 25 90 5 8 16 33 25 55 20 45 67 148 99 213 12 24 30 54
		42 65 12 12 29 36 38 54 9 18 22 36 30 40 7 4 19 19 26 32 15 28 34 50 145
		164 51 53 86 96 86 110 1 12 3 33 4 46 7 68 -91 140 -167 123z"/>
		<path d="M3066 3505 c-45 -27 -74 -71 -71 -106 1 -13 3 -34 4 -46 0 -14 35
		-57 86 -110 111 -114 130 -136 145 -164 7 -13 19 -28 26 -32 8 -4 21 -22 30
		-40 9 -18 26 -42 38 -54 12 -11 30 -41 42 -65 32 -65 79 -168 99 -213 9 -22
		20 -47 25 -55 4 -8 15 -49 25 -90 10 -41 21 -79 25 -85 4 -5 13 -36 20 -67 7
		-32 17 -55 21 -53 4 3 10 -4 14 -15 4 -11 11 -18 16 -15 5 4 9 1 9 -6 0 -7 3
		-9 7 -6 3 4 11 3 17 -2 12 -10 38 -14 72 -12 22 1 73 44 90 76 18 35 15 89
		-11 191 -14 54 -30 108 -35 119 -13 31 -23 59 -24 70 -2 12 -20 55 -49 115
		-12 24 -22 47 -22 50 0 7 -137 244 -145 250 -3 3 -17 22 -30 44 -13 21 -41 57
		-62 80 -21 22 -38 45 -38 49 0 5 -4 5 -10 2 -5 -3 -10 -2 -10 2 0 21 -154 185
		-164 176 -3 -4 -6 -1 -6 6 0 7 -4 10 -9 7 -5 -4 -11 -1 -13 4 -7 21 -74 18
		-112 -5z"/>
		<path d="M903 2245 c-302 -85 -443 -415 -295 -689 l26 -48 -29 -21 c-73 -52
		-155 -142 -190 -208 -54 -103 -65 -171 -65 -414 0 -238 7 -266 70 -297 32 -17
		82 -18 600 -18 518 0 568 1 600 18 63 31 70 60 70 287 -1 245 -14 327 -67 425
		-36 68 -116 156 -188 207 l-29 21 26 48 c76 142 77 308 2 457 -42 81 -139 169
		-231 207 -94 39 -215 49 -300 25z m223 -275 c123 -70 146 -235 47 -332 -124
		-121 -312 -74 -359 90 -19 64 -11 118 28 180 31 51 111 92 178 92 43 0 67 -7
		106 -30z m130 -679 c55 -25 109 -75 142 -130 26 -44 27 -54 30 -198 l4 -153
		-411 0 -411 0 0 143 c0 128 3 147 24 192 26 57 89 118 150 146 36 16 67 19
		236 19 168 0 201 -3 236 -19z"/>
		<path d="M2853 2245 c-302 -85 -443 -415 -295 -689 l26 -48 -29 -21 c-73 -52
		-155 -142 -190 -208 -54 -103 -65 -171 -65 -414 0 -238 7 -266 70 -297 32 -17
		82 -18 600 -18 518 0 568 1 600 18 63 31 70 60 70 287 -1 245 -14 327 -67 425
		-36 68 -116 156 -188 207 l-29 21 26 48 c76 142 77 308 2 457 -42 81 -139 169
		-231 207 -94 39 -215 49 -300 25z m223 -275 c123 -70 146 -235 47 -332 -124
		-121 -312 -74 -359 90 -19 64 -11 118 28 180 31 51 111 92 178 92 43 0 67 -7
		106 -30z m130 -679 c55 -25 109 -75 142 -130 26 -44 27 -54 30 -198 l4 -153
		-411 0 -411 0 0 143 c0 128 3 147 24 192 26 57 89 118 150 146 36 16 67 19
		236 19 168 0 201 -3 236 -19z"/>
		<path d="M2430 364 c-180 -44 -286 -57 -460 -57 -162 -1 -248 10 -428 55 -119
		30 -124 30 -165 14 -99 -38 -105 -176 -9 -225 38 -19 151 -47 302 -76 184 -34
		506 -29 690 11 175 39 258 66 288 95 53 52 54 124 3 173 -47 45 -72 46 -221
		10z"/>
	</g>
</svg>