<?xml version="1.0" standalone="no"?>
<!DOCTYPE svg PUBLIC "-//W3C//DTD SVG 20010904//EN"
 "http://www.w3.org/TR/2001/REC-SVG-20010904/DTD/svg10.dtd">
<svg version="1.0" xmlns="http://www.w3.org/2000/svg"
 width="512.000000pt" height="512.000000pt" viewBox="0 0 512.000000 512.000000"
 preserveAspectRatio="xMidYMid meet">
<metadata>
Created by potrace 1.16, written by Peter Selinger 2001-2019
</metadata>
<g transform="translate(0.000000,512.000000) scale(0.100000,-0.100000)"
fill="#000000" stroke="none">
<path d="M2240 5105 c-1178 -146 -2114 -1101 -2230 -2275 -8 -81 -10 -501 -8
-1411 l3 -1295 27 -41 c16 -24 44 -49 70 -62 l44 -21 1298 0 c819 0 1333 4
1394 10 1016 108 1879 823 2176 1804 74 243 106 468 106 746 0 209 -10 324
-46 505 -168 852 -761 1560 -1580 1885 -182 73 -450 138 -656 160 -131 14
-469 11 -598 -5z m696 -424 c448 -85 828 -284 1145 -601 316 -316 515 -695
602 -1149 19 -101 22 -149 22 -371 0 -222 -3 -270 -22 -371 -87 -454 -285
-832 -603 -1150 -316 -315 -706 -520 -1144 -599 -186 -34 -400 -40 -1488 -40
l-1048 0 0 1048 c0 1088 6 1302 40 1488 79 438 283 827 600 1145 316 316 712
523 1144 599 163 28 161 28 411 25 184 -2 252 -7 341 -24z"/>
<path d="M2320 3705 c-221 -45 -399 -177 -463 -343 -20 -51 -22 -151 -3 -195
27 -66 111 -117 194 -117 60 0 97 24 155 103 95 128 155 160 307 161 113 0
179 -19 237 -69 53 -45 73 -89 73 -162 0 -112 -58 -192 -250 -344 -189 -150
-257 -268 -282 -488 -19 -172 6 -272 76 -308 46 -24 190 -22 241 3 65 32 76
57 86 185 4 63 12 129 18 147 19 64 62 121 143 194 269 239 357 355 404 530
16 62 18 204 3 268 -19 82 -71 172 -139 240 -102 102 -216 160 -383 194 -93
20 -324 20 -417 1z"/>
<path d="M2383 1674 c-121 -43 -196 -198 -159 -327 35 -122 133 -197 255 -197
156 0 270 114 271 270 0 192 -184 319 -367 254z"/>
</g>
</svg>
