<?xml version="1.0" standalone="no"?>
<!DOCTYPE svg PUBLIC "-//W3C//DTD SVG 20010904//EN"
 "http://www.w3.org/TR/2001/REC-SVG-20010904/DTD/svg10.dtd">
<svg version="1.0" xmlns="http://www.w3.org/2000/svg"
 width="381.000000pt" height="381.000000pt" viewBox="0 0 381.000000 381.000000"
 preserveAspectRatio="xMidYMid meet">
<metadata>
Created by potrace 1.16, written by Peter Selinger 2001-2019
</metadata>
<g transform="translate(0.000000,381.000000) scale(0.100000,-0.100000)"
fill="#000000" stroke="none">
<path d="M268 3791 c-26 -10 -63 -28 -82 -40 -49 -31 -135 -127 -160 -181
l-21 -45 -3 -1600 c-3 -1767 -7 -1646 60 -1743 46 -66 96 -110 168 -145 l65
-32 1610 0 1610 0 66 32 c82 41 160 121 200 206 l29 63 -2 1405 -3 1404 -28
55 c-58 113 -180 208 -298 230 -31 6 -365 10 -830 10 -429 0 -779 1 -779 3 0
11 -104 305 -116 329 -8 16 -29 38 -47 48 -31 19 -55 20 -712 19 -635 0 -683
-1 -727 -18z m2081 -852 c296 -74 550 -264 630 -471 l11 -28 272 0 273 0 -5
-1042 c-5 -975 -6 -1045 -23 -1069 -9 -14 -29 -31 -43 -37 -18 -9 -421 -12
-1560 -12 -1666 0 -1574 -3 -1606 53 -10 17 -14 243 -18 1065 l-5 1042 432 0
431 0 46 64 c107 150 314 316 481 385 221 92 451 109 684 50z"/>
<path d="M1999 2740 c-229 -28 -422 -134 -585 -321 -67 -77 -151 -218 -190
-316 l-28 -73 -186 0 c-203 0 -216 -3 -245 -60 -19 -37 -19 -73 0 -110 27 -52
57 -60 231 -60 138 0 155 -2 150 -16 -3 -9 -6 -69 -6 -134 l0 -119 -161 -3
-161 -3 -35 -39 c-32 -35 -35 -43 -30 -83 2 -24 13 -53 23 -65 37 -41 74 -48
252 -48 l169 0 12 -42 c20 -67 107 -230 160 -300 69 -91 196 -206 288 -260 43
-26 122 -61 174 -79 81 -28 111 -33 224 -37 152 -5 256 15 379 72 132 61 290
184 316 246 19 45 5 93 -37 130 -32 28 -42 32 -79 27 -35 -4 -55 -15 -111 -66
-157 -142 -360 -203 -548 -167 -204 40 -392 191 -499 403 -14 29 -26 57 -26
63 0 7 131 10 398 10 449 0 450 0 486 74 17 36 18 43 5 80 -9 25 -27 49 -48
63 l-34 23 -438 0 -439 0 0 135 0 135 444 0 444 0 31 25 c61 52 60 133 -4 183
-27 22 -32 22 -436 22 -225 0 -409 3 -409 8 1 19 87 163 131 217 177 218 451
305 697 221 92 -31 165 -74 248 -148 36 -32 76 -61 89 -64 86 -22 169 74 135
156 -14 33 -105 122 -175 170 -164 113 -392 172 -576 150z"/>
</g>
</svg>
