<?xml version="1.0" standalone="no"?>
<!DOCTYPE svg PUBLIC "-//W3C//DTD SVG 20010904//EN" "http://www.w3.org/TR/2001/REC-SVG-20010904/DTD/svg10.dtd">
<svg version="1.0" xmlns="http://www.w3.org/2000/svg" width="51.000000pt" height="51.000000pt" viewBox="0 0 512.000000 512.000000" preserveAspectRatio="xMidYMid meet">
    <g transform="translate(0.000000,512.000000) scale(0.100000,-0.100000)" fill="#000000" stroke="none">
        <path d="M785 5101 c-94 -27 -164 -70 -246 -151 -52 -52 -85 -95 -107 -140
        -66 -137 -62 25 -62 -2250 0 -2275 -4 -2113 62 -2250 40 -82 158 -203 243
        -247 129 -67 -21 -63 2129 -63 l1946 0 0 155 0 155 -26 0 c-82 0 -183 71 -223
        156 -44 92 -22 215 52 293 39 41 120 81 165 81 l32 0 0 2140 0 2140 -1952 -1
        c-1818 0 -1957 -2 -2013 -18z m3655 -2121 l0 -1830 -1792 0 c-1889 0 -1826 1
        -1930 -43 l-38 -16 0 1748 c0 1937 -5 1797 66 1879 19 22 57 52 86 66 l52 26
        1778 0 1778 0 0 -1830z m-236 -2199 c-48 -119 -50 -274 -4 -405 11 -33 20 -61
        20 -63 0 -1 -750 -3 -1667 -3 l-1668 0 -50 24 c-87 40 -144 121 -152 216 -10
        111 48 214 149 264 l52 26 1672 0 1672 0 -24 -59z"/>
        <path d="M2500 4170 c-504 -47 -923 -401 -1055 -890 -109 -409 5 -850 299
        -1153 458 -474 1216 -492 1696 -40 471 443 510 1183 86 1671 -254 294 -637
        448 -1026 412z m319 -331 c91 -21 222 -78 296 -129 138 -95 275 -267 333 -417
        140 -363 28 -783 -274 -1023 -268 -213 -624 -259 -929 -121 -348 158 -568 539
        -525 910 42 356 277 647 615 760 157 52 314 59 484 20z"/>
        <path d="M2545 3507 c-75 -30 -105 -71 -105 -145 0 -84 71 -142 173 -142 67 0
        112 17 147 55 22 23 25 36 25 97 0 66 -2 71 -32 98 -52 47 -142 63 -208 37z"/>
        <path d="M2470 2770 l0 -300 145 0 145 0 0 300 0 300 -145 0 -145 0 0 -300z"/>
    </g>
</svg>
