<?xml version="1.0" standalone="no"?>
<!DOCTYPE svg PUBLIC "-//W3C//DTD SVG 20010904//EN" "http://www.w3.org/TR/2001/REC-SVG-20010904/DTD/svg10.dtd">
    <svg version="1.0" xmlns="http://www.w3.org/2000/svg" width="512.000000pt" height="512.000000pt" viewBox="0 0 512.000000 512.000000" preserveAspectRatio="xMidYMid meet">
        <g transform="translate(0.000000,512.000000) scale(0.100000,-0.100000)" fill="#000000" stroke="none">
        <path d="M3220 5005 c-259 -32 -474 -86 -910 -230 -355 -117 -465 -148 -560
        -160 -108 -14 -186 -70 -210 -152 -8 -27 -10 -355 -8 -1108 l3 -1070 29 -43
        c34 -49 89 -84 161 -101 105 -26 226 -147 570 -576 92 -115 209 -256 258 -312
        110 -126 133 -158 173 -253 34 -82 57 -167 104 -394 43 -209 88 -316 177 -423
        61 -73 104 -87 236 -80 189 10 360 73 454 165 138 137 197 327 196 627 -1 231
        -38 363 -179 648 -46 93 -84 175 -84 183 0 11 88 14 508 16 497 3 508 3 566
        25 176 67 325 217 388 390 30 84 37 276 13 375 -24 97 -55 167 -110 243 l-45
        63 15 49 c27 86 35 175 26 279 -10 114 -34 189 -91 286 -39 65 -40 69 -29 110
        6 24 11 88 11 143 -1 162 -61 334 -154 439 -38 44 -38 45 -38 129 0 179 -46
        337 -133 460 -103 145 -260 235 -474 272 -111 19 -705 19 -863 0z"/>
        <path d="M120 4594 c-45 -20 -77 -50 -101 -96 -18 -36 -19 -75 -19 -1118 0
        -976 2 -1084 16 -1113 23 -45 53 -76 96 -98 35 -18 66 -19 554 -19 575 0 552
        -3 618 70 22 25 38 55 45 89 15 70 16 2069 1 2139 -13 60 -60 118 -114 143
        -38 17 -76 19 -551 18 -433 0 -515 -2 -545 -15z m584 -427 c115 -65 142 -206
        59 -298 -48 -53 -87 -72 -149 -72 -174 0 -261 214 -138 337 60 60 157 74 228
        33z"/>
    </g>
</svg>
