<?xml version="1.0" standalone="no"?>
<!DOCTYPE svg PUBLIC "-//W3C//DTD SVG 20010904//EN" "http://www.w3.org/TR/2001/REC-SVG-20010904/DTD/svg10.dtd">
<svg version="1.1" id="Capa_1" xmlns="http://www.w3.org/2000/svg" xmlns:xlink="http://www.w3.org/1999/xlink" x="0px" y="0px" viewBox="0 0 511.998 511.998" xml:space="preserve" preserveAspectRatio="xMidYMid meet">
	<g>
		<path d="M504.502,246.627c-1.128-1.41-28.128-34.914-71.893-68.747c-25.848-19.982-52.232-35.935-78.416-47.417
			c-31.827-13.956-63.466-21.306-94.114-21.908c-1.355-0.037-2.714-0.059-4.079-0.059c-1.364,0-2.723,0.022-4.078,0.059
			c-30.648,0.601-62.287,7.951-94.114,21.908c-26.185,11.481-52.568,27.435-78.416,47.417C35.627,211.713,8.628,245.218,7.5,246.627
			L0,255.999l7.498,9.372c1.128,1.41,28.128,34.914,71.893,68.747c25.848,19.982,52.232,35.935,78.416,47.417
			c31.828,13.956,63.466,21.306,94.114,21.908c1.355,0.037,2.714,0.059,4.078,0.059s2.723-0.022,4.078-0.059
			c30.648-0.601,62.287-7.951,94.114-21.908c26.185-11.481,52.568-27.435,78.416-47.417c43.765-33.833,70.765-67.337,71.893-68.747
			l7.498-9.372L504.502,246.627z M130.225,332.974c-11.789-7.311-22.516-14.914-31.927-22.164
			c-27.683-21.327-48.526-42.902-59.261-54.811c10.736-11.91,31.578-33.484,59.261-54.811c9.411-7.251,20.137-14.853,31.927-22.164
			c-13.774,22.422-21.727,48.786-21.727,76.975S116.453,310.552,130.225,332.974z M259.597,373.437
			c-1.198,0.025-2.395,0.06-3.597,0.06s-2.399-0.036-3.597-0.06c-63.13-1.909-113.9-53.853-113.9-117.438
			s50.77-115.529,113.9-117.438c1.198-0.025,2.395-0.06,3.597-0.06s2.399,0.036,3.597,0.06c63.13,1.908,113.9,53.853,113.9,117.438
			S322.727,371.527,259.597,373.437z M413.701,310.81c-9.411,7.251-20.136,14.853-31.927,22.164
			c13.774-22.422,21.727-48.786,21.727-76.975c0-28.188-7.954-54.553-21.727-76.975c11.789,7.312,22.515,14.914,31.927,22.164
			c27.683,21.327,48.525,42.9,59.261,54.811C462.226,267.91,441.384,289.483,413.701,310.81z"/>
		<path d="M256,170.685c-47.042,0-85.314,38.272-85.314,85.314s38.272,85.314,85.314,85.314s85.314-38.272,85.314-85.314
			S303.042,170.685,256,170.685z M256,311.309c-30.498,0-55.31-24.812-55.31-55.31c0-30.498,24.812-55.31,55.31-55.31
			s55.31,24.812,55.31,55.31S286.498,311.309,256,311.309z"/>
	</g>
</svg>
