<?xml version="1.0" standalone="no"?>
<!DOCTYPE svg PUBLIC "-//W3C//DTD SVG 20010904//EN" "http://www.w3.org/TR/2001/REC-SVG-20010904/DTD/svg10.dtd">
<svg version="1.0" xmlns="http://www.w3.org/2000/svg" width="497.000000pt" height="535.000000pt" viewBox="0 0 497.000000 535.000000" preserveAspectRatio="xMidYMid meet">
	<g transform="translate(0.000000,535.000000) scale(0.100000,-0.100000)" fill="#ffffff" stroke="none">
		<path d="M1587 5206 c-21 -8 -48 -22 -59 -33 -26 -23 -1000 -1042 -1049 -1097
		-20 -23 -47 -61 -60 -86 l-24 -45 -3 -1570 -3 -1570 22 -95 c31 -140 94 -255
		190 -352 64 -64 93 -84 180 -126 180 -87 66 -82 1719 -82 l1457 0 96 24 c273
		70 466 266 526 536 12 53 15 1410 4 1410 -6 0 -314 -283 -448 -411 -6 -6 -12
		-184 -15 -472 -6 -517 -2 -493 -80 -560 -23 -19 -55 -37 -72 -41 -17 -3 -686
		-6 -1488 -6 l-1457 0 -44 23 c-24 13 -57 43 -74 66 l-30 43 -3 1449 -2 1449
		242 0 c207 0 255 3 325 20 181 43 323 151 397 300 62 128 66 152 66 478 l0
		292 1018 0 c629 0 1030 -4 1052 -10 44 -12 105 -62 128 -103 15 -29 18 -83 22
		-534 4 -429 7 -504 20 -517 91 -86 433 -386 440 -386 14 0 13 1403 -1 1472 -6
		29 -33 100 -61 158 -43 90 -62 116 -132 186 -85 84 -163 134 -276 175 l-65 24
		-1210 2 c-1004 2 -1216 0 -1248 -11z m-167 -998 c-16 -54 -51 -70 -150 -66
		l-79 3 117 124 117 124 3 -74 c2 -41 -2 -91 -8 -111z"/>
		<path d="M3680 3501 c-122 -38 -194 -125 -195 -236 0 -83 28 -127 161 -250
		l108 -100 -415 -5 c-400 -5 -415 -6 -454 -27 -115 -61 -160 -197 -103 -308 32
		-62 59 -88 123 -117 49 -22 59 -23 446 -28 l397 -5 -104 -95 c-107 -99 -148
		-157 -160 -226 -18 -114 74 -231 203 -259 58 -12 135 19 211 84 179 156 640
		596 660 630 49 83 38 192 -26 263 -30 34 -417 397 -628 591 -75 68 -168 105
		-224 88z"/>
	</g>
</svg>
