<?xml version="1.0" standalone="no"?>
<!DOCTYPE svg PUBLIC "-//W3C//DTD SVG 20010904//EN" "http://www.w3.org/TR/2001/REC-SVG-20010904/DTD/svg10.dtd">
<svg version="1.0" xmlns="http://www.w3.org/2000/svg" width="512.000000pt" height="512.000000pt" viewBox="0 0 512.000000 512.000000" preserveAspectRatio="xMidYMid meet">
    <g transform="translate(0.000000,512.000000) scale(0.100000,-0.100000)" fill="#ffffff" stroke="none">
        <path d="M2320 5106 c-508 -91 -923 -411 -1127 -869 -100 -227 -123 -356 -130
        -739 l-6 -298 -179 0 -180 0 -29 -29 -29 -29 0 -1399 c0 -1551 -5 -1439 65
        -1548 55 -85 133 -146 229 -178 45 -16 182 -17 1626 -17 1444 0 1581 1 1626
        17 96 32 174 93 229 178 70 109 65 -3 65 1548 l0 1399 -29 29 -29 29 -180 0
        -179 0 -6 298 c-4 211 -10 322 -21 385 -114 613 -563 1076 -1176 1212 -102 23
        -436 29 -540 11z m412 -650 c312 -67 564 -307 649 -622 19 -69 23 -112 27
        -356 l4 -278 -852 0 -852 0 4 278 c4 244 8 287 27 356 84 312 335 554 645 621
        81 18 265 18 348 1z m-68 -2131 c224 -58 361 -291 302 -513 -19 -70 -71 -156
        -120 -198 l-40 -34 32 -293 c37 -334 38 -354 14 -383 -33 -41 -52 -44 -292
        -44 -240 0 -259 3 -292 44 -24 29 -23 49 14 383 l32 293 -40 34 c-49 42 -101
        128 -120 198 -81 306 203 593 510 513z"/>
    </g>
</svg>
