<?xml version="1.0" standalone="no"?>
<!DOCTYPE svg PUBLIC "-//W3C//DTD SVG 20010904//EN" "http://www.w3.org/TR/2001/REC-SVG-20010904/DTD/svg10.dtd">
<svg version="1.0" xmlns="http://www.w3.org/2000/svg" width="512.000000pt" height="512.000000pt" viewBox="0 0 512.000000 512.000000" preserveAspectRatio="xMidYMid meet">
    <g transform="translate(0.000000,512.000000) scale(0.100000,-0.100000)" fill="#000000" stroke="none">
        <path d="M1918 5091 c-110 -36 -250 -104 -353 -173 -110 -72 -307 -270 -380
        -381 -103 -157 -190 -382 -215 -552 -12 -90 -12 -350 0 -440 42 -292 165 -530
        405 -783 l97 -103 -149 -73 c-474 -234 -838 -598 -1068 -1071 -164 -335 -224
        -604 -232 -1041 l-5 -260 26 -52 c17 -33 44 -65 74 -88 l47 -35 817 3 817 4
        26 24 c25 23 25 24 25 206 l0 183 -29 20 c-29 21 -38 21 -686 21 l-656 0 5 52
        c3 29 8 85 11 123 10 115 52 303 95 428 95 275 242 511 446 713 267 264 576
        427 969 511 117 24 148 27 320 26 338 -2 501 -34 762 -149 l102 -45 215 147
        216 148 -53 33 c-28 18 -116 65 -195 104 l-143 70 110 114 c197 205 307 401
        373 660 25 102 36 416 19 550 -14 104 -73 290 -126 396 -94 188 -258 383 -430
        511 -99 74 -290 169 -409 203 -87 25 -94 25 -425 25 l-336 -1 -87 -28z m622
        -422 c77 -12 234 -76 308 -125 70 -46 202 -172 258 -247 53 -70 101 -171 140
        -287 25 -78 27 -98 28 -245 0 -129 -3 -173 -19 -225 -98 -336 -333 -579 -655
        -674 -135 -41 -387 -38 -520 5 -246 78 -452 255 -565 484 -168 340 -107 751
        154 1028 126 133 292 236 451 277 86 22 311 27 420 9z"/>
        <path d="M3335 1900 c-148 -13 -385 -85 -547 -166 -206 -104 -420 -258 -601
        -434 -149 -144 -172 -180 -171 -275 0 -98 19 -132 148 -260 320 -318 691 -529
        1063 -604 138 -28 361 -29 502 -2 370 72 723 269 1048 584 152 148 173 182
        173 278 -1 95 -24 136 -148 258 -319 314 -700 532 -1057 605 -90 18 -295 26
        -410 16z m459 -555 c84 -84 41 -212 -58 -171 -77 32 -107 149 -49 194 31 22
        70 14 107 -23z m278 -31 c105 -59 261 -171 343 -246 l50 -46 -40 -36 c-63 -57
        -254 -199 -322 -240 -194 -116 -374 -174 -569 -183 -198 -9 -351 23 -541 113
        -113 54 -300 178 -411 274 l-82 71 72 64 c40 36 108 90 150 121 75 54 249 156
        255 150 2 -1 -4 -22 -12 -46 -23 -66 -21 -261 5 -335 54 -158 171 -276 329
        -331 95 -34 257 -34 352 0 137 48 241 142 307 276 36 73 37 79 40 205 3 109 1
        140 -16 188 -10 31 -17 57 -14 57 3 0 50 -25 104 -56z"/>
    </g>
</svg>
