<?xml version="1.0" standalone="no"?>
<!DOCTYPE svg PUBLIC "-//W3C//DTD SVG 20010904//EN" "http://www.w3.org/TR/2001/REC-SVG-20010904/DTD/svg10.dtd">
<svg version="1.0" xmlns="http://www.w3.org/2000/svg" width="51.000000pt" height="51.000000pt" viewBox="0 0 512.000000 512.000000" preserveAspectRatio="xMidYMid meet">
    <g transform="translate(0.000000,512.000000) scale(0.100000,-0.100000)" fill="#000000" stroke="none">
        <path d="M1385 4719 c-764 -143 -1283 -245 -1304 -256 -18 -9 -44 -33 -57 -52
        l-24 -36 0 -1814 c0 -1811 0 -1814 21 -1847 11 -18 34 -42 52 -53 37 -22 2570
        -501 2653 -501 36 0 59 7 87 25 65 45 67 53 67 350 l0 265 1068 0 c1047 0
        1068 0 1100 20 18 11 41 34 52 52 20 33 20 54 20 1688 0 1634 0 1655 -20 1688
        -11 18 -34 41 -52 52 -32 20 -53 20 -1100 20 l-1068 0 0 268 c0 249 -1 269
        -20 300 -31 50 -75 72 -145 71 -33 -1 -631 -108 -1330 -240z m3415 -2159 l0
        -1440 -960 0 -960 0 0 160 0 160 748 0 c728 0 748 1 780 20 48 30 72 75 72
        140 0 65 -24 110 -72 140 -32 19 -52 20 -780 20 l-748 0 0 160 0 160 748 0
        c728 0 748 1 780 20 48 30 72 75 72 140 0 65 -24 110 -72 140 -32 19 -52 20
        -780 20 l-748 0 0 160 0 160 748 0 c728 0 748 1 780 20 48 30 72 75 72 140 0
        65 -24 110 -72 140 -32 19 -52 20 -780 20 l-748 0 0 160 0 160 748 0 c728 0
        748 1 780 20 48 30 72 75 72 140 0 65 -24 110 -72 140 -32 19 -52 20 -780 20
        l-748 0 0 160 0 160 960 0 960 0 0 -1440z m-2642 770 c47 -29 72 -76 72 -136
        0 -27 -36 -371 -79 -762 -86 -773 -83 -754 -151 -799 -65 -45 -166 -22 -208
        46 -10 17 -92 228 -183 470 -90 243 -166 441 -169 441 -3 0 -79 -198 -169
        -441 -91 -242 -173 -453 -183 -470 -58 -95 -203 -91 -260 7 -13 23 -39 180
        -98 590 -44 307 -80 578 -80 604 0 155 204 208 282 74 13 -22 30 -112 55 -293
        21 -143 40 -261 43 -261 3 0 63 155 135 345 71 190 136 358 146 374 47 78 206
        80 256 4 11 -17 170 -429 258 -672 3 -8 8 -12 10 -9 3 2 25 183 49 402 48 430
        51 440 116 483 43 29 112 31 158 3z"/>
    </g>
</svg>
