<?xml version="1.0" standalone="no"?>
<!DOCTYPE svg PUBLIC "-//W3C//DTD SVG 20010904//EN" "http://www.w3.org/TR/2001/REC-SVG-20010904/DTD/svg10.dtd">
<svg version="1.0" xmlns="http://www.w3.org/2000/svg" width="487.000000pt" height="535.000000pt" viewBox="0 0 487.000000 535.000000" preserveAspectRatio="xMidYMid meet">
	<g transform="translate(0.000000,535.000000) scale(0.100000,-0.100000)" fill="#000000" stroke="none">
		<path d="M2320 5339 c-434 -33 -843 -271 -1090 -634 -101 -148 -187 -352 -222
		-527 -32 -161 -32 -415 0 -577 58 -286 194 -535 410 -748 103 -102 123 -133
		89 -133 -7 0 -66 -26 -132 -58 -532 -258 -956 -705 -1183 -1247 -129 -309
		-192 -645 -192 -1031 l0 -191 30 -61 c24 -47 42 -68 83 -94 l52 -33 2270 0
		2270 0 51 33 c35 22 60 48 80 85 29 51 29 54 32 237 12 622 -165 1167 -524
		1620 -248 314 -577 569 -926 719 -43 19 -78 35 -78 37 0 2 53 57 119 121 216
		215 354 472 407 758 28 149 26 433 -4 573 -42 192 -122 375 -241 547 -68 99
		-230 261 -339 339 -271 193 -625 291 -962 265z m358 -503 c35 -9 89 -28 120
		-42 31 -14 67 -30 78 -34 115 -45 317 -232 398 -369 54 -92 109 -235 126 -331
		16 -88 14 -282 -4 -365 -80 -377 -371 -675 -742 -761 -116 -27 -339 -26 -454
		3 -401 101 -701 447 -739 850 -27 298 71 574 279 783 142 142 321 241 498 275
		98 19 350 13 440 -9z m82 -2431 c298 -46 661 -210 901 -405 434 -355 690 -851
		725 -1410 l7 -110 -1958 0 -1958 0 7 110 c26 412 177 805 426 1111 343 419
		803 665 1355 723 82 8 393 -4 495 -19z"/>
	</g>
</svg>
