<?xml version="1.0" standalone="no"?>
<!DOCTYPE svg PUBLIC "-//W3C//DTD SVG 20010904//EN" "http://www.w3.org/TR/2001/REC-SVG-20010904/DTD/svg10.dtd">
<svg version="1.0" xmlns="http://www.w3.org/2000/svg" width="512.000000pt" height="512.000000pt" viewBox="0 0 512.000000 512.000000" preserveAspectRatio="xMidYMid meet">
    <g transform="translate(0.000000,512.000000) scale(0.100000,-0.100000)" fill="#000000" stroke="none">
        <path d="M1918 5091 c-110 -36 -250 -104 -353 -173 -110 -72 -307 -270 -380
        -381 -103 -157 -190 -382 -215 -552 -12 -90 -12 -350 0 -440 42 -292 165 -530
        405 -783 l97 -103 -149 -73 c-474 -234 -838 -598 -1068 -1071 -164 -335 -224
        -604 -232 -1041 l-5 -260 26 -52 c17 -33 44 -65 74 -88 l47 -35 817 3 817 4
        26 24 c25 23 25 24 25 206 l0 183 -29 20 c-29 21 -38 21 -686 21 l-656 0 5 52
        c3 29 8 85 11 123 10 115 52 303 95 428 95 275 242 511 446 713 267 264 576
        427 969 511 117 24 148 27 320 26 338 -2 501 -34 762 -149 l102 -45 215 147
        216 148 -53 33 c-28 18 -116 65 -195 104 l-143 70 110 114 c197 205 307 401
        373 660 25 102 36 416 19 550 -14 104 -73 290 -126 396 -94 188 -258 383 -430
        511 -99 74 -290 169 -409 203 -87 25 -94 25 -425 25 l-336 -1 -87 -28z m622
        -422 c77 -12 234 -76 308 -125 70 -46 202 -172 258 -247 53 -70 101 -171 140
        -287 25 -78 27 -98 28 -245 0 -129 -3 -173 -19 -225 -98 -336 -333 -579 -655
        -674 -135 -41 -387 -38 -520 5 -246 78 -452 255 -565 484 -168 340 -107 751
        154 1028 126 133 292 236 451 277 86 22 311 27 420 9z"/>
        <path d="M3895 2533 c-76 -40 -125 -132 -110 -206 8 -39 52 -117 66 -117 29 0
        11 -46 -82 -209 l-102 -181 -209 0 c-158 0 -210 3 -212 13 -3 6 -7 24 -10 38
        -17 78 -99 139 -189 140 -61 1 -101 -16 -143 -61 -131 -139 1 -365 188 -321
        28 6 52 10 53 9 15 -19 205 -351 205 -358 0 -7 -190 -339 -205 -358 -1 -1 -25
        3 -53 9 -187 44 -319 -182 -188 -321 42 -45 82 -62 143 -61 90 1 172 62 189
        140 3 14 7 32 10 39 2 9 54 12 212 12 l209 0 101 -179 c56 -99 102 -184 102
        -190 0 -7 -7 -14 -15 -17 -20 -8 -61 -80 -70 -121 -4 -20 0 -54 9 -86 25 -85
        95 -137 186 -137 91 0 161 52 186 137 9 32 13 66 9 86 -9 41 -50 113 -70 121
        -8 3 -15 10 -15 17 0 6 46 91 102 190 l101 179 209 0 c158 0 210 -3 212 -12 3
        -7 7 -25 10 -39 17 -78 99 -139 189 -140 61 -1 101 16 143 61 131 139 -1 365
        -188 321 -28 -6 -52 -10 -53 -9 -15 19 -205 351 -205 358 0 7 190 339 205 358
        1 1 25 -3 53 -9 187 -44 319 182 188 321 -42 45 -82 62 -143 61 -90 -1 -172
        -62 -189 -140 -3 -14 -7 -32 -10 -38 -2 -10 -54 -13 -212 -13 l-209 0 -102
        181 c-93 163 -111 209 -82 209 14 0 58 78 66 117 4 20 0 54 -9 86 -25 86 -96
        137 -188 137 -29 -1 -66 -8 -83 -17z m217 -950 c65 -30 133 -95 165 -162 37
        -75 40 -200 6 -273 -30 -66 -96 -133 -162 -165 -48 -24 -68 -28 -141 -28 -73
        0 -93 4 -141 28 -223 109 -253 402 -57 560 85 68 227 85 330 40z"/>
    </g>
</svg>
