<?xml version="1.0" standalone="no"?>
<!DOCTYPE svg PUBLIC "-//W3C//DTD SVG 20010904//EN" "http://www.w3.org/TR/2001/REC-SVG-20010904/DTD/svg10.dtd">
<svg version="1.0" xmlns="http://www.w3.org/2000/svg" width="51.000000pt" height="51.000000pt" viewBox="0 0 512.000000 512.000000" preserveAspectRatio="xMidYMid meet">
    <g transform="translate(0.000000,512.000000) scale(0.100000,-0.100000)" fill="#ffffff" stroke="none">
        <path d="M875 5101 c-314 -79 -538 -317 -601 -639 -21 -110 -21 -3694 0 -3804
        55 -280 230 -496 486 -601 131 -54 161 -57 613 -57 391 0 420 1 455 19 47 24
        77 56 97 103 40 98 -1 210 -97 259 -34 18 -63 19 -385 19 -191 1 -378 5 -415
        9 -175 23 -316 152 -348 320 -14 74 -14 3588 0 3662 32 168 173 297 348 320
        88 11 2446 11 2534 0 175 -23 316 -152 348 -320 6 -33 10 -305 10 -700 l0
        -647 23 -44 c12 -24 39 -57 60 -74 32 -26 49 -31 106 -34 100 -6 170 35 206
        120 22 54 23 1336 1 1450 -65 329 -295 569 -614 642 -63 14 -214 16 -1414 15
        -1246 0 -1348 -2 -1413 -18z"/>
        <path d="M1175 3904 c-138 -71 -154 -251 -32 -348 l39 -31 1099 -3 c1066 -2
        1100 -2 1137 17 150 77 150 285 0 362 -36 18 -75 19 -1125 19 -966 0 -1091 -2
        -1118 -16z"/>
        <path d="M1175 3104 c-138 -71 -154 -251 -32 -348 l39 -31 1099 -3 c1066 -2
        1100 -2 1137 17 150 77 150 285 0 362 -36 18 -75 19 -1125 19 -966 0 -1091 -2
        -1118 -16z"/>
        <path d="M4101 2385 c-80 -23 -136 -50 -205 -99 -33 -24 -318 -302 -633 -618
        l-571 -573 -36 -115 c-212 -691 -219 -715 -220 -782 -1 -59 3 -71 29 -110 17
        -23 49 -53 70 -65 71 -40 111 -34 562 91 226 63 426 122 445 131 18 9 297 281
        619 603 583 583 587 588 628 672 92 189 93 371 2 555 -66 134 -192 245 -334
        295 -82 29 -275 37 -356 15z m226 -406 c64 -24 123 -109 123 -179 0 -45 -30
        -108 -67 -142 l-29 -28 -134 135 -134 134 29 32 c17 17 44 37 60 45 36 16 113
        18 152 3z m-630 -1006 l-367 -368 -192 -53 c-105 -29 -192 -51 -193 -50 -2 2
        23 87 54 191 l56 187 368 367 368 367 137 -137 137 -137 -368 -367z"/>
        <path d="M1175 2304 c-138 -72 -154 -251 -32 -348 l39 -31 708 0 708 0 39 31
        c109 87 109 241 0 328 l-39 31 -696 3 c-618 2 -700 0 -727 -14z"/>
    </g>
</svg>
