<?xml version="1.0" standalone="no"?>
<!DOCTYPE svg PUBLIC "-//W3C//DTD SVG 20010904//EN" "http://www.w3.org/TR/2001/REC-SVG-20010904/DTD/svg10.dtd">
<svg version="1.0" xmlns="http://www.w3.org/2000/svg" width="512.000000pt" height="512.000000pt" viewBox="0 0 512.000000 512.000000" preserveAspectRatio="xMidYMid meet">
    <g transform="translate(0.000000,512.000000) scale(0.100000,-0.100000)" fill="#ffffff" stroke="none">
        <path d="M1739 5096 c-125 -35 -206 -95 -288 -216 -68 -99 -66 -67 -66 -1060
        0 -960 0 -952 51 -1044 55 -99 184 -204 285 -233 60 -17 129 -18 1044 -18
        1107 0 1053 -4 1164 77 59 44 73 57 276 272 129 137 212 224 304 321 73 76
        118 147 138 217 16 58 18 116 18 678 0 660 -2 685 -51 762 -13 21 -24 42 -24
        47 0 22 -127 135 -178 159 -119 54 -61 52 -1392 51 -965 -1 -1245 -4 -1281
        -13z m2381 -921 l0 -385 -167 0 c-180 0 -220 -6 -298 -47 -69 -36 -98 -60
        -141 -117 -60 -80 -74 -147 -74 -368 l0 -188 -755 0 -755 0 0 745 0 745 1095
        0 1095 0 0 -385z"/>
        <path d="M1572 2299 c-149 -23 -270 -87 -393 -209 -115 -115 -193 -237 -258
        -409 l-19 -51 201 -505 202 -505 755 0 755 0 1105 695 c608 382 1117 708 1133
        725 34 38 37 97 7 146 -52 83 -347 128 -575 89 -156 -28 -234 -65 -730 -354
        -258 -151 -499 -293 -535 -317 -114 -75 -103 -74 -561 -74 l-409 0 0 115 0
        115 336 0 c223 0 350 4 375 11 185 56 202 320 27 410 -35 18 -70 20 -445 26
        -370 5 -413 8 -457 25 -150 58 -379 88 -514 67z"/>
        <path d="M280 1604 c-170 -103 -235 -148 -234 -161 0 -28 566 -1443 577 -1443
        6 0 439 254 484 285 5 3 -581 1465 -586 1464 -3 -1 -112 -66 -241 -145z"/>
    </g>
</svg>
