<?xml version="1.0" standalone="no"?>
<!DOCTYPE svg PUBLIC "-//W3C//DTD SVG 20010904//EN" "http://www.w3.org/TR/2001/REC-SVG-20010904/DTD/svg10.dtd">
<svg version="1.0" xmlns="http://www.w3.org/2000/svg" width="512.000000pt" height="512.000000pt" viewBox="0 0 512.000000 512.000000" preserveAspectRatio="xMidYMid meet">
    <g transform="translate(0.000000,512.000000) scale(0.100000,-0.100000)" fill="#000000" stroke="none">
        <path d="M1918 5091 c-110 -36 -250 -104 -353 -173 -110 -72 -307 -270 -380
        -381 -103 -157 -190 -382 -215 -552 -12 -90 -12 -350 0 -440 42 -292 165 -530
        405 -783 l97 -103 -149 -73 c-474 -234 -838 -598 -1068 -1071 -164 -335 -224
        -604 -232 -1041 l-5 -260 26 -52 c17 -33 44 -65 74 -88 l47 -35 817 3 817 4
        26 24 c25 23 25 24 25 206 l0 183 -29 20 c-29 21 -38 21 -686 21 l-656 0 5 52
        c3 29 8 85 11 123 10 115 52 303 95 428 95 275 242 511 446 713 267 264 576
        427 969 511 117 24 148 27 320 26 338 -2 501 -34 762 -149 l102 -45 215 147
        216 148 -53 33 c-28 18 -116 65 -195 104 l-143 70 110 114 c197 205 307 401
        373 660 25 102 36 416 19 550 -14 104 -73 290 -126 396 -94 188 -258 383 -430
        511 -99 74 -290 169 -409 203 -87 25 -94 25 -425 25 l-336 -1 -87 -28z m622
        -422 c77 -12 234 -76 308 -125 70 -46 202 -172 258 -247 53 -70 101 -171 140
        -287 25 -78 27 -98 28 -245 0 -129 -3 -173 -19 -225 -98 -336 -333 -579 -655
        -674 -135 -41 -387 -38 -520 5 -246 78 -452 255 -565 484 -168 340 -107 751
        154 1028 126 133 292 236 451 277 86 22 311 27 420 9z"/>
        <path d="M4713 2739 c-59 -18 -63 -32 -63 -251 l0 -197 -45 -31 c-24 -17 -61
        -52 -81 -78 l-36 -47 -610 -5 -610 -5 -24 -28 c-22 -26 -24 -36 -24 -147 0
        -169 9 -182 133 -195 37 -4 67 -9 67 -10 0 -2 -90 -223 -201 -492 -195 -474
        -201 -490 -200 -556 1 -85 24 -175 64 -252 45 -86 174 -212 257 -251 108 -52
        155 -59 375 -59 220 0 261 7 379 67 85 43 204 164 244 248 37 80 62 172 62
        235 0 65 -27 139 -227 626 -97 236 -173 433 -169 437 4 4 114 8 245 10 l237 3
        14 -26 c16 -30 126 -135 141 -135 5 0 10 -310 11 -797 l3 -798 177 -3 177 -2
        6 42 c3 24 5 629 3 1345 l-3 1303 -28 27 c-26 26 -32 28 -135 30 -59 1 -121
        -2 -139 -8z m-894 -1556 c57 -137 106 -254 108 -260 4 -10 -43 -13 -216 -13
        -122 0 -221 2 -221 5 0 14 213 515 219 515 4 0 53 -111 110 -247z"/>
    </g>
</svg>
