<?xml version="1.0" standalone="no"?>
<!DOCTYPE svg PUBLIC "-//W3C//DTD SVG 20010904//EN" "http://www.w3.org/TR/2001/REC-SVG-20010904/DTD/svg10.dtd">
<svg version="1.0" xmlns="http://www.w3.org/2000/svg" width="512.000000pt" height="512.000000pt" viewBox="0 0 512.000000 512.000000" preserveAspectRatio="xMidYMid meet">
    <g transform="translate(0.000000,512.000000) scale(0.100000,-0.100000)" fill="#ffffff" stroke="none">
        <path d="M1125 4995 c-201 -50 -340 -145 -457 -310 -57 -80 -75 -125 -108
        -260 l-30 -127 0 -1693 0 -1693 31 -129 c34 -140 50 -178 115 -268 74 -104
        189 -201 295 -249 67 -31 296 -86 354 -86 63 0 278 55 352 89 131 62 208 131
        304 271 56 82 62 96 99 254 l30 128 0 1683 0 1683 -30 128 c-37 158 -43 172
        -99 254 -75 110 -120 157 -206 214 -103 70 -123 78 -280 116 -158 37 -206 37
        -370 -5z"/>
        <path d="M3445 4996 c-147 -37 -170 -47 -275 -122 -74 -52 -120 -100 -192
        -199 -47 -65 -61 -101 -103 -273 l-35 -143 -1 -1652 -1 -1652 36 -145 c52
        -208 65 -235 181 -373 44 -54 170 -147 237 -177 59 -26 291 -80 343 -80 58 0
        287 55 354 86 106 48 221 145 296 249 57 80 70 113 111 283 l34 144 0 1663 0
        1663 -34 144 c-41 170 -54 203 -111 283 -73 101 -180 192 -291 248 -68 34
        -291 87 -363 86 -31 0 -115 -15 -186 -33z"/>
    </g>
</svg>
