<?xml version="1.0" standalone="no"?>
<!DOCTYPE svg PUBLIC "-//W3C//DTD SVG 20010904//EN" "http://www.w3.org/TR/2001/REC-SVG-20010904/DTD/svg10.dtd">
<svg version="1.0" xmlns="http://www.w3.org/2000/svg" width="30.000000pt" height="30.000000pt" viewBox="0 0 300.000000 300.000000" preserveAspectRatio="xMidYMid meet">
    <g transform="translate(0.000000,300.000000) scale(0.100000,-0.100000)" fill="#c70f2d" stroke="none">
        <path d="M1397 2730 c-168 -43 -295 -197 -305 -373 -7 -122 7 -163 123 -365
        l104 -182 -196 -340 -196 -340 -181 0 c-207 0 -287 -10 -363 -46 -154 -73
        -250 -260 -222 -433 49 -306 398 -453 650 -272 65 46 85 74 205 280 l90 156
        394 0 394 0 90 -156 c120 -206 140 -234 205 -280 250 -179 601 -34 650 269 28
        175 -65 358 -221 434 -76 38 -154 48 -364 48 l-181 0 -196 340 -196 341 104
        181 c116 202 130 243 123 365 -9 150 -97 281 -234 345 -54 25 -81 31 -152 34
        -48 2 -104 -1 -125 -6z m152 -314 c30 -16 51 -54 51 -93 0 -23 -88 -193 -100
        -193 -13 0 -100 171 -100 196 1 80 78 126 149 90z m58 -1104 l102 -177 -104
        -3 c-58 -1 -152 -1 -210 0 l-104 3 102 177 c56 98 104 178 107 178 3 0 51 -80
        107 -178z m-871 -508 c-16 -43 -89 -155 -112 -173 -86 -68 -202 49 -137 137
        31 42 60 52 162 52 80 0 92 -2 87 -16z m1765 -22 c48 -54 35 -129 -28 -161
        -59 -30 -104 -3 -163 99 -65 110 -69 102 54 98 107 -3 108 -3 137 -36z"/>
    </g>
</svg>
