<?xml version="1.0" encoding="iso-8859-1"?>
<svg version="1.1" xmlns="http://www.w3.org/2000/svg" xmlns:xlink="http://www.w3.org/1999/xlink" x="0px" y="0px" viewBox="0 0 512 512" xml:space="preserve">
	<g fill="#ffffff">
		<path d="M0,211.478v262.026h118.904V211.478H0z M59.452,434.086c-9.22,0-16.696-7.475-16.696-16.696s7.475-16.696,16.696-16.696
			c9.22,0,16.696,7.475,16.696,16.696S68.673,434.086,59.452,434.086z"/>
		<path d="M512,215.323c0-20.825-16.882-37.707-37.707-37.707H333.586c0,0,31.059-36.421,31.059-102.772
			c0-23.262-18.857-42.119-42.119-42.119s-42.119,18.857-42.119,42.119c0,43.396-35.927,61.854-62.007,96.856
			c-21.827,29.295-23.342,63.249-55.719,63.249c-3.955,0-7.389,0-10.386,0v223.704c16.048,7.193,27.847,20.62,44.107,20.62
			c22.205,0,244.548,0,244.548,0c20.825,0,37.707-16.882,37.707-37.707c0-20.825-16.882-37.707-37.707-37.707h11.115
			c20.825,0,37.707-16.882,37.707-37.707s-16.882-37.707-37.707-37.707h11.115c20.825,0,37.707-16.881,37.707-37.707
			s-16.882-37.707-37.707-37.707h11.115C495.118,253.031,512,236.148,512,215.323z"/>
	</g>
</svg>