<?xml version="1.0" standalone="no"?>
<!DOCTYPE svg PUBLIC "-//W3C//DTD SVG 20010904//EN" "http://www.w3.org/TR/2001/REC-SVG-20010904/DTD/svg10.dtd">
<svg version="1.0" xmlns="http://www.w3.org/2000/svg" width="512.000000pt" height="512.000000pt" viewBox="0 0 512.000000 512.000000" preserveAspectRatio="xMidYMid meet">
    <g transform="translate(0.000000,512.000000) scale(0.100000,-0.100000)" fill="#ffffff" stroke="none">
        <path d="M825 5110 c-4 -6 -10 -8 -15 -5 -10 6 -172 -46 -181 -58 -3 -5 -9 -8
        -13 -7 -7 2 -96 -40 -106 -50 -3 -3 -38 -27 -77 -53 -172 -115 -345 -362 -394
        -562 -5 -22 -12 -49 -15 -60 -17 -62 -22 -110 -19 -200 4 -118 23 -165 98
        -244 63 -66 121 -92 217 -95 199 -7 330 136 343 374 4 69 32 153 57 170 4 3
        12 15 19 27 12 23 110 93 130 93 6 0 11 4 11 10 0 5 7 7 15 4 8 -4 15 -2 15 4
        0 5 6 9 13 9 6 -1 32 2 56 7 49 9 191 -11 191 -28 0 -5 3 -7 6 -3 3 3 11 2 18
        -4 6 -5 33 -24 60 -42 67 -44 120 -134 133 -223 9 -58 6 -104 -11 -182 -11
        -52 -68 -131 -128 -179 -28 -21 -96 -52 -102 -46 -3 4 -6 2 -6 -3 0 -5 -8 -10
        -17 -11 -10 -1 -58 -5 -108 -8 -84 -6 -175 -27 -199 -46 -59 -45 -99 -89 -127
        -141 l-34 -63 0 -345 c0 -330 1 -347 21 -391 20 -42 114 -159 114 -142 0 4 4
        3 8 -3 17 -25 112 -54 177 -54 86 0 153 28 222 93 83 79 97 121 101 315 3 137
        9 174 25 160 1 -2 13 5 26 14 13 9 30 14 37 11 8 -3 14 0 14 6 0 6 6 11 13 11
        18 0 118 53 183 97 63 42 206 178 246 233 74 102 143 243 164 335 4 17 11 35
        16 42 5 7 7 17 4 22 -4 5 -2 12 4 16 5 3 7 17 4 31 -3 13 -2 24 3 24 10 0 9
        257 -2 283 -4 9 -5 24 -2 32 4 8 2 17 -4 21 -6 3 -8 12 -5 19 2 7 1 16 -3 21
        -5 5 -14 32 -21 59 -53 198 -240 448 -415 555 -22 13 -42 26 -45 29 -11 13
        -90 51 -104 51 -9 0 -16 4 -16 8 0 5 -6 9 -12 9 -7 1 -47 14 -88 29 -72 27
        -83 28 -282 31 -130 2 -209 -1 -213 -7z"/>
        <path d="M2748 3256 c-90 -26 -141 -58 -214 -132 -61 -61 -86 -105 -108 -191
        -14 -54 -16 -196 -16 -1209 0 -1079 1 -1153 19 -1219 10 -38 26 -85 35 -104
        20 -39 114 -133 166 -167 47 -31 200 -74 264 -74 59 0 179 31 240 62 57 29
        167 144 190 198 10 25 22 54 27 65 27 66 29 139 29 1235 0 1096 -2 1169 -29
        1235 -5 11 -17 40 -27 65 -23 54 -133 169 -190 198 -65 33 -183 62 -249 61
        -33 0 -95 -10 -137 -23z"/>
        <path d="M4185 3261 c-104 -31 -137 -51 -210 -125 -71 -71 -113 -139 -134
        -221 -7 -27 -11 -411 -11 -1185 0 -1235 -2 -1184 53 -1304 32 -69 120 -163
        185 -199 77 -42 196 -70 272 -65 74 6 210 49 249 79 59 46 143 132 153 157 6
        15 21 65 34 112 l24 85 0 1125 0 1125 -23 85 c-31 112 -46 139 -115 205 -73
        72 -119 99 -212 124 -91 25 -184 26 -265 2z"/>
        <path d="M848 2419 c-21 -11 -38 -17 -38 -14 0 11 -85 -52 -124 -92 -21 -21
        -55 -72 -75 -113 -32 -67 -36 -83 -36 -155 0 -71 4 -88 36 -155 23 -48 55 -94
        87 -126 45 -45 100 -81 125 -83 4 0 20 -7 35 -14 15 -8 33 -12 40 -10 6 3 12
        0 12 -5 0 -11 112 -11 120 0 3 4 20 8 38 10 18 1 32 5 32 9 0 4 12 10 26 13
        67 17 169 123 213 221 33 73 33 207 0 280 -46 104 -139 196 -231 231 -24 9
        -82 17 -133 19 -74 3 -97 0 -127 -16z"/>
    </g>
</svg>
