<?xml version="1.0" standalone="no"?>
<!DOCTYPE svg PUBLIC "-//W3C//DTD SVG 20010904//EN" "http://www.w3.org/TR/2001/REC-SVG-20010904/DTD/svg10.dtd">
<svg version="1.0" xmlns="http://www.w3.org/2000/svg" width="512.000000pt" height="512.000000pt" viewBox="0 0 512.000000 512.000000" preserveAspectRatio="xMidYMid meet">
    <g transform="translate(0.000000,512.000000) scale(0.100000,-0.100000)" fill="#ffffff" stroke="none">
        <path d="M2305 4480 c-717 -72 -1365 -354 -1885 -821 -155 -139 -364 -357
        -391 -409 -21 -39 -24 -59 -24 -150 0 -94 3 -110 27 -155 90 -169 284 -237
        456 -159 41 18 96 65 230 196 249 243 387 352 607 479 620 356 1378 435 2058
        213 241 -79 440 -176 640 -311 150 -101 238 -174 409 -341 157 -152 194 -176
        294 -192 156 -26 318 68 373 216 32 83 26 206 -13 282 -34 67 -205 245 -355
        370 -525 438 -1059 676 -1721 767 -136 19 -572 28 -705 15z"/>
        <path d="M2425 3240 c-215 -20 -414 -75 -630 -173 -234 -107 -390 -222 -637
        -467 -218 -216 -233 -241 -233 -395 0 -91 3 -106 31 -165 74 -155 237 -241
        403 -212 104 19 143 45 326 222 187 181 262 240 393 306 326 167 703 174 1043
        21 134 -61 230 -132 411 -304 143 -136 196 -169 293 -182 258 -35 471 184 426
        437 -16 89 -47 141 -155 258 -441 476 -1043 711 -1671 654z"/>
        <path d="M2422 1816 c-94 -23 -199 -83 -272 -155 -184 -182 -232 -450 -121
        -686 61 -129 153 -224 279 -285 230 -112 511 -64 692 119 115 117 172 258 171
        425 -1 174 -53 298 -176 421 -86 87 -162 132 -270 160 -71 18 -228 19 -303 1z"/>
    </g>
</svg>
