<?xml version="1.0" standalone="no"?>
<!DOCTYPE svg PUBLIC "-//W3C//DTD SVG 20010904//EN" "http://www.w3.org/TR/2001/REC-SVG-20010904/DTD/svg10.dtd">
<svg version="1.0" xmlns="http://www.w3.org/2000/svg" width="51.000000pt" height="51.000000pt" viewBox="0 0 512.000000 512.000000" preserveAspectRatio="xMidYMid meet">
    <g transform="translate(0.000000,512.000000) scale(0.100000,-0.100000)" fill="#000000" stroke="none">
        <path d="M472 4710 c-110 -29 -206 -84 -288 -165 -82 -82 -134 -170 -163 -275
        -21 -74 -21 -88 -21 -1710 0 -1622 0 -1636 21 -1710 59 -214 234 -384 455
        -440 76 -20 119 -20 2084 -20 1965 0 2008 0 2084 20 114 29 209 83 291 165 85
        85 131 161 162 267 l23 80 0 1242 c0 1223 0 1242 -21 1316 -26 94 -74 182
        -141 255 -79 87 -155 134 -303 188 -21 8 -313 13 -935 17 -852 5 -907 6 -947
        24 -32 13 -109 88 -309 300 -147 154 -290 300 -318 323 -64 54 -154 98 -252
        123 -73 19 -111 20 -713 19 -593 0 -641 -1 -709 -19z m1365 -394 c32 -13 109
        -87 302 -290 142 -149 279 -290 303 -313 56 -54 147 -108 228 -136 65 -22 70
        -22 970 -27 l905 -5 53 -29 c65 -36 108 -92 122 -160 8 -36 10 -399 8 -1221
        -3 -1125 -4 -1171 -22 -1208 -26 -52 -72 -96 -126 -121 l-45 -21 -1975 0
        -1975 0 -45 21 c-54 25 -100 69 -126 121 -18 37 -19 89 -22 1608 -2 1086 1
        1583 8 1613 22 89 86 153 178 178 36 10 181 13 632 11 546 -2 588 -3 627 -21z"/>
        <path d="M2401 3463 c-35 -7 -107 -83 -114 -122 -4 -19 -7 -61 -7 -96 l0 -62
        -42 -12 c-133 -40 -292 -158 -384 -286 -98 -138 -122 -231 -129 -510 -4 -115
        -11 -232 -16 -258 -15 -80 -56 -151 -135 -239 -104 -114 -109 -125 -109 -233
        0 -74 4 -98 22 -131 28 -52 104 -120 152 -135 20 -6 120 -14 223 -18 l186 -6
        46 -63 c140 -190 390 -248 595 -137 62 34 133 102 167 161 l26 44 161 0 c235
        0 317 26 381 118 37 54 46 86 46 160 0 101 -12 130 -90 216 -145 158 -157 195
        -166 484 -6 241 -23 340 -75 447 -86 177 -251 323 -426 380 l-53 17 0 55 c0
        173 -96 257 -259 226z m221 -676 c75 -37 134 -98 172 -177 30 -65 31 -65 37
        -295 8 -261 23 -345 87 -475 20 -41 39 -78 40 -82 2 -5 -219 -8 -492 -8 l-495
        0 40 78 c67 132 86 232 92 490 6 220 6 224 35 285 35 75 70 118 128 158 71 48
        109 59 209 56 75 -2 99 -7 147 -30z"/>
    </g>
</svg>
