<?xml version="1.0" encoding="iso-8859-1"?>
<!DOCTYPE svg PUBLIC "-//W3C//DTD SVG 1.1//EN" "http://www.w3.org/Graphics/SVG/1.1/DTD/svg11.dtd">
<svg version="1.1" xmlns="http://www.w3.org/2000/svg" xmlns:xlink="http://www.w3.org/1999/xlink" x="0px" y="0px" width="24.748px" height="24.748px" viewBox="0 0 24.748 24.748" xml:space="preserve">
	<g fill="#be3a3a">
		<path d="M23.091,18.561c-0.37,0.644-1.042,1-1.734,1c-0.339,0-0.683-0.086-0.998-0.268l-5.982-3.455v6.91c0,1.104-0.896,2-2,2
			c-1.104,0-2-0.896-2-2v-6.911l-5.985,3.456c-0.315,0.182-0.659,0.268-0.998,0.268c-0.691,0-1.364-0.356-1.734-1
			c-0.552-0.957-0.225-2.18,0.732-2.73l5.983-3.456L2.39,8.919C1.433,8.366,1.106,7.145,1.658,6.188
			C2.21,5.231,3.434,4.903,4.39,5.456l5.984,3.455V2c0-1.104,0.896-2,2-2c1.104,0,2,0.896,2,2v6.91l5.982-3.455
			c0.956-0.553,2.183-0.225,2.732,0.732c0.552,0.957,0.225,2.18-0.732,2.731l-5.981,3.456l5.982,3.455
			C23.314,16.381,23.643,17.604,23.091,18.561z"/>
	</g>
</svg>
