<?xml version="1.0" standalone="no"?>
<!DOCTYPE svg PUBLIC "-//W3C//DTD SVG 20010904//EN" "http://www.w3.org/TR/2001/REC-SVG-20010904/DTD/svg10.dtd">
<svg version="1.0" xmlns="http://www.w3.org/2000/svg" width="512.000000pt" height="512.000000pt" viewBox="0 0 512.000000 512.000000" preserveAspectRatio="xMidYMid meet">
	<g transform="translate(0.000000,512.000000) scale(0.100000,-0.100000)" fill="#000000" stroke="none">
		<path d="M3543 5099 c-18 -5 -33 -14 -33 -19 0 -6 -6 -10 -13 -10 -14 0 -40
		-27 -50 -53 -3 -9 -11 -17 -17 -17 -5 0 -10 -11 -10 -25 0 -14 -4 -25 -10 -25
		-6 0 -10 -32 -10 -75 0 -43 4 -75 10 -75 6 0 10 -9 10 -20 0 -11 4 -20 9 -20
		5 0 13 -9 16 -20 4 -11 83 -97 177 -190 l170 -169 -1171 -3 c-869 -2 -1174 -6
		-1179 -14 -4 -7 -33 -15 -64 -19 -32 -4 -58 -11 -58 -15 0 -4 -16 -11 -35 -14
		-19 -4 -35 -11 -35 -15 0 -5 -18 -11 -40 -15 -22 -3 -40 -10 -40 -15 0 -5 -13
		-12 -30 -16 -17 -4 -30 -10 -30 -15 0 -5 -13 -11 -29 -15 -16 -3 -32 -13 -35
		-21 -3 -8 -12 -14 -21 -14 -8 0 -15 -4 -15 -10 0 -5 -11 -12 -24 -16 -14 -3
		-27 -12 -30 -20 -3 -8 -10 -14 -16 -14 -7 0 -32 -20 -57 -45 -24 -25 -49 -45
		-54 -45 -12 0 -59 -49 -59 -62 0 -4 -20 -28 -45 -51 -25 -24 -45 -49 -45 -55
		0 -7 -4 -12 -9 -12 -5 0 -14 -13 -20 -30 -5 -16 -15 -30 -20 -30 -6 0 -11 -7
		-11 -15 0 -8 -4 -15 -10 -15 -5 0 -12 -11 -16 -25 -3 -14 -10 -25 -14 -25 -5
		0 -11 -13 -15 -30 -4 -16 -11 -30 -15 -30 -5 0 -12 -16 -16 -35 -3 -19 -10
		-35 -15 -35 -5 0 -12 -18 -15 -40 -4 -22 -10 -40 -15 -40 -4 0 -11 -21 -15
		-47 -4 -27 -10 -50 -15 -53 -12 -8 -29 -198 -29 -324 0 -124 19 -326 31 -326
		4 0 11 -20 15 -45 3 -25 10 -45 15 -45 4 0 11 -20 15 -45 3 -25 10 -45 14 -45
		5 0 11 -14 15 -30 4 -17 10 -30 15 -30 5 0 11 -14 15 -30 4 -17 11 -30 16 -30
		5 0 9 -7 9 -15 0 -8 5 -15 11 -15 5 0 15 -13 20 -30 6 -16 15 -30 20 -30 5 0
		9 -7 9 -15 0 -9 7 -18 15 -21 8 -4 15 -12 15 -20 0 -7 16 -28 35 -47 19 -19
		35 -37 35 -41 0 -9 95 -106 104 -106 4 0 21 -14 38 -30 16 -16 34 -30 39 -30
		6 0 20 -10 32 -23 12 -13 30 -26 39 -30 10 -3 18 -11 18 -16 0 -5 13 -12 30
		-16 16 -4 30 -10 30 -15 0 -5 13 -11 30 -15 16 -4 30 -10 30 -15 0 -5 13 -11
		30 -15 16 -4 30 -11 30 -16 0 -5 18 -12 40 -15 22 -4 40 -11 40 -16 0 -5 -166
		-176 -370 -380 -211 -210 -373 -380 -376 -394 -3 -13 -10 -24 -15 -24 -5 0 -9
		-40 -9 -90 0 -49 4 -90 9 -90 5 0 12 -11 15 -25 4 -14 11 -25 16 -25 6 0 10
		-5 10 -10 0 -14 755 -770 768 -770 6 0 15 -7 20 -15 13 -25 126 -40 195 -25
		31 6 57 15 57 20 0 5 9 12 21 15 24 8 59 40 59 55 0 6 5 10 11 10 6 0 9 7 5
		15 -3 8 -1 15 4 15 6 0 10 11 10 25 0 14 5 25 10 25 6 0 10 20 10 45 0 25 -4
		45 -10 45 -5 0 -10 14 -10 30 0 17 -4 30 -10 30 -5 0 -7 6 -4 14 3 9 -3 17
		-15 21 -12 3 -19 10 -16 15 3 5 -69 83 -161 174 l-166 165 1146 3 c818 2 1149
		6 1154 14 4 6 31 14 61 17 30 4 57 10 60 15 3 5 24 12 45 15 22 4 42 10 45 15
		3 5 23 12 44 16 20 4 37 11 37 15 0 5 16 12 35 15 19 4 35 11 35 15 0 5 11 12
		25 15 14 4 25 10 25 15 0 5 13 12 29 16 16 3 32 13 35 21 3 8 11 14 17 14 6 0
		22 11 35 25 13 14 28 25 33 25 6 0 25 16 44 35 19 19 37 35 41 35 10 0 76 65
		76 75 0 4 18 24 39 45 21 21 42 47 45 58 4 11 13 23 21 26 8 3 15 12 15 21 0
		8 4 15 10 15 5 0 12 11 16 25 3 14 10 25 14 25 5 0 11 13 15 30 4 16 10 30 15
		30 5 0 11 13 15 30 4 16 10 30 15 30 5 0 11 13 15 30 4 16 10 30 15 30 5 0 12
		20 16 45 3 25 10 45 15 45 4 0 11 21 15 48 4 26 10 49 15 52 18 12 30 293 19
		440 -6 80 -15 147 -19 150 -5 3 -11 26 -15 53 -4 26 -11 47 -15 47 -5 0 -12
		20 -15 45 -4 25 -11 45 -16 45 -5 0 -11 14 -15 30 -4 17 -11 30 -16 30 -5 0
		-9 11 -9 24 0 13 -6 26 -14 29 -8 3 -17 19 -21 36 -4 17 -10 31 -15 31 -4 0
		-11 11 -14 25 -4 14 -11 25 -16 25 -6 0 -10 7 -10 15 0 9 -7 18 -15 21 -8 3
		-17 15 -21 26 -3 11 -24 37 -45 58 -21 21 -39 41 -39 45 0 10 -75 85 -85 85
		-4 0 -24 18 -45 39 -21 21 -48 42 -59 46 -12 3 -21 11 -21 16 0 5 -7 9 -15 9
		-9 0 -18 6 -21 14 -3 8 -19 18 -35 21 -16 4 -29 11 -29 16 0 5 -11 11 -25 15
		-14 3 -25 10 -25 14 0 5 -13 11 -30 15 -16 4 -30 10 -30 15 0 4 -16 11 -35 14
		-19 4 -35 11 -35 16 0 5 -7 10 -16 12 -11 2 109 129 360 381 281 282 378 385
		383 407 3 17 9 30 14 30 5 0 9 32 9 70 0 39 -4 70 -9 70 -5 0 -12 14 -16 30
		-4 17 -11 30 -16 30 -5 0 -9 5 -9 10 0 14 -755 770 -768 770 -6 0 -15 6 -19
		13 -20 33 -162 48 -240 26z m227 -1190 c0 -6 -92 -103 -205 -216 -113 -112
		-205 -208 -205 -213 0 -4 -32 -40 -70 -79 l-70 -70 -797 -3 c-626 -2 -797 -6
		-801 -15 -2 -7 -8 -13 -14 -13 -13 0 -88 -75 -88 -88 0 -6 -6 -12 -12 -14 -9
		-3 -13 -35 -13 -113 0 -78 4 -110 13 -112 6 -3 12 -9 12 -15 0 -14 65 -78 79
		-78 6 0 14 -8 20 -17 9 -17 67 -18 960 -21 523 -1 951 -6 951 -11 0 -5 27 -11
		60 -15 33 -4 60 -11 60 -15 0 -5 16 -12 35 -15 19 -4 35 -11 35 -16 0 -4 14
		-11 30 -15 17 -4 30 -10 30 -15 0 -4 11 -11 25 -14 14 -4 25 -11 25 -16 0 -6
		7 -10 15 -10 9 0 18 -7 21 -15 3 -8 15 -17 26 -21 25 -8 128 -112 128 -130 0
		-8 5 -14 10 -14 6 0 16 -12 23 -27 6 -16 17 -32 24 -36 7 -4 13 -15 13 -22 0
		-8 4 -15 9 -15 5 0 12 -13 16 -30 4 -17 10 -30 15 -30 4 0 10 -18 14 -40 3
		-22 10 -40 15 -40 5 0 12 -27 16 -60 4 -33 11 -60 16 -60 5 0 9 -63 9 -140 0
		-77 -4 -140 -9 -140 -5 0 -12 -27 -16 -60 -4 -33 -10 -60 -15 -60 -4 0 -10
		-18 -14 -40 -3 -22 -10 -40 -15 -40 -5 0 -12 -14 -16 -30 -4 -17 -11 -30 -16
		-30 -5 0 -9 -7 -9 -15 0 -7 -6 -18 -13 -22 -7 -4 -18 -20 -24 -35 -7 -16 -17
		-28 -23 -28 -5 0 -10 -6 -10 -14 0 -18 -117 -136 -135 -136 -7 0 -15 -7 -19
		-15 -3 -8 -12 -15 -21 -15 -8 0 -15 -4 -15 -10 0 -5 -11 -12 -25 -16 -14 -3
		-25 -10 -25 -14 0 -5 -13 -11 -30 -15 -16 -4 -30 -11 -30 -15 0 -5 -16 -12
		-35 -16 -19 -3 -35 -10 -35 -14 0 -5 -24 -11 -52 -15 -29 -4 -56 -13 -60 -19
		-10 -16 -2188 -22 -2188 -6 0 7 126 137 279 291 l279 279 771 0 c443 0 771 4
		771 9 0 5 16 12 35 15 19 4 35 11 35 15 0 5 11 12 25 15 15 4 27 16 31 30 3
		14 12 27 20 30 8 3 14 12 14 20 0 8 5 16 12 18 9 3 12 33 12 98 0 65 -3 95
		-12 98 -7 2 -12 10 -12 18 0 8 -6 17 -14 20 -8 3 -17 16 -20 30 -4 13 -13 24
		-20 24 -8 0 -22 7 -31 16 -8 9 -33 18 -55 21 -22 3 -40 9 -40 14 0 5 -425 10
		-945 11 -672 2 -948 6 -953 14 -4 6 -25 14 -46 17 -22 4 -42 10 -45 15 -3 5
		-23 12 -43 16 -21 4 -38 11 -38 16 0 6 -7 10 -15 10 -9 0 -18 6 -21 14 -3 8
		-16 17 -30 20 -13 4 -24 11 -24 16 0 6 -5 10 -11 10 -13 0 -168 154 -186 184
		-7 12 -15 28 -19 36 -4 8 -13 18 -20 23 -7 4 -15 21 -19 37 -4 17 -11 30 -16
		30 -5 0 -12 18 -15 40 -4 22 -10 40 -15 40 -4 0 -11 21 -15 48 -4 26 -12 50
		-18 54 -15 10 -15 336 0 346 6 4 14 28 18 55 4 26 11 47 15 47 5 0 11 18 15
		40 3 22 10 40 15 40 5 0 12 13 16 30 4 16 12 33 19 37 7 5 16 15 20 23 18 39
		35 62 69 94 20 19 37 39 37 45 0 6 4 11 10 11 5 0 24 16 43 35 19 19 39 35 46
		35 6 0 11 4 11 10 0 5 11 12 24 16 14 3 27 12 30 20 3 8 12 14 21 14 8 0 15 4
		15 10 0 5 18 13 40 16 22 4 40 10 40 14 0 5 15 12 33 15 17 4 34 11 37 16 3 5
		52 12 108 15 56 4 102 11 102 16 0 4 461 8 1025 8 733 0 1025 -3 1025 -11z"/>
	</g>
</svg>
