<?xml version="1.0" standalone="no"?>
<!DOCTYPE svg PUBLIC "-//W3C//DTD SVG 20010904//EN"
 "http://www.w3.org/TR/2001/REC-SVG-20010904/DTD/svg10.dtd">
<svg version="1.0" xmlns="http://www.w3.org/2000/svg"
 width="500.000000pt" height="500.000000pt" viewBox="0 0 500.000000 500.000000"
 preserveAspectRatio="xMidYMid meet">
<metadata>
Created by potrace 1.16, written by Peter Selinger 2001-2019
</metadata>
<g transform="translate(0.000000,500.000000) scale(0.100000,-0.100000)"
fill="#000000" stroke="none">
<path d="M440 4933 c-19 -9 -62 -29 -95 -44 -116 -54 -224 -161 -289 -286 -55
-105 -56 -125 -55 -2128 0 -1988 0 -1992 54 -2099 55 -110 177 -230 283 -280
31 -15 70 -34 85 -42 23 -11 132 -15 600 -20 l572 -5 24 31 c30 39 40 91 40
195 -1 126 -12 191 -37 218 l-22 24 -503 7 c-291 3 -518 11 -540 17 -26 7 -42
20 -54 42 -17 30 -18 141 -18 1938 0 1640 2 1908 14 1923 8 10 33 27 55 38
l41 21 1305 -6 c1427 -6 1370 -3 1400 -63 16 -33 28 -450 29 -1075 l1 -366 26
-24 c24 -23 32 -24 195 -27 l171 -4 34 33 34 33 -1 646 c-1 355 -5 703 -9 774
-8 119 -10 133 -44 201 -64 130 -201 255 -348 318 l-53 22 -1430 2 c-1300 2
-1433 1 -1465 -14z"/>
<path d="M1795 4143 c-56 -29 -95 -75 -112 -132 -16 -55 -15 -149 3 -443 l6
-96 -183 70 c-479 182 -529 190 -623 107 -58 -50 -80 -102 -81 -185 0 -60 4
-76 27 -112 15 -22 47 -52 70 -65 42 -24 444 -177 561 -213 31 -10 57 -21 57
-25 0 -9 -240 -241 -360 -349 -108 -96 -125 -115 -145 -164 -35 -83 -9 -183
64 -249 52 -47 81 -58 147 -58 60 0 117 25 213 96 75 55 315 288 411 399 36
41 68 74 71 73 13 -4 261 -292 381 -442 152 -190 176 -208 272 -213 58 -3 81
0 113 16 87 45 142 141 129 225 -17 106 -172 325 -416 588 l-98 106 141 17
c243 30 484 74 524 95 46 23 88 66 102 104 6 16 11 58 11 95 0 86 -38 158
-103 197 -71 41 -162 37 -610 -26 -120 -17 -220 -29 -223 -26 -3 2 -8 110 -13
238 -7 208 -10 238 -28 274 -43 82 -104 115 -210 115 -42 -1 -80 -7 -98 -17z"/>
<path d="M4344 2861 c-48 -8 -88 -39 -196 -148 l-78 -78 350 -350 351 -350
104 107 c58 58 109 118 115 133 5 14 10 52 10 84 0 57 -1 60 -63 132 -106 123
-453 458 -482 464 -53 11 -71 12 -111 6z"/>
<path d="M3093 1658 l-783 -783 -50 -205 c-28 -113 -59 -241 -70 -285 -65
-265 -68 -297 -32 -341 43 -52 85 -55 245 -18 136 31 506 120 563 135 37 10
136 105 824 795 l783 783 -239 247 c-180 185 -451 454 -458 454 -1 0 -353
-352 -783 -782z m-578 -1288 c49 -50 65 -71 54 -75 -28 -11 -174 -43 -178 -40
-3 4 9 62 30 148 6 20 13 37 17 37 4 0 39 -31 77 -70z"/>
</g>
</svg>
