<?xml version="1.0" standalone="no"?>
<!DOCTYPE svg PUBLIC "-//W3C//DTD SVG 20010904//EN" "http://www.w3.org/TR/2001/REC-SVG-20010904/DTD/svg10.dtd">
<svg version="1.0" xmlns="http://www.w3.org/2000/svg" width="497.000000pt" height="535.000000pt" viewBox="0 0 497.000000 535.000000" preserveAspectRatio="xMidYMid meet">
	<g transform="translate(0.000000,535.000000) scale(0.100000,-0.100000)" fill="#ffffff" stroke="none">
		<path d="M925 5205 c-138 -35 -228 -87 -331 -189 -70 -70 -89 -96 -132 -186
		-28 -58 -55 -129 -61 -158 -15 -72 -15 -3897 0 -3962 60 -270 253 -466 526
		-536 l96 -24 1457 0 c1653 0 1539 -5 1719 82 87 42 116 62 180 126 96 97 159
		212 190 352 l22 95 -3 1570 -3 1570 -27 51 c-17 32 -115 143 -269 305 -720
		754 -843 881 -872 897 -30 16 -114 17 -1237 19 -960 1 -1215 -1 -1255 -12z
		m2155 -747 c0 -326 4 -350 66 -478 74 -149 216 -257 397 -300 70 -17 118 -20
		325 -20 l242 0 0 -1438 0 -1439 -23 -44 c-13 -24 -43 -57 -66 -74 l-43 -30
		-1493 0 -1493 0 -39 31 c-59 47 -81 87 -88 157 -3 34 -5 899 -3 1922 3 1741 4
		1862 20 1892 22 39 84 91 123 102 17 5 490 10 1053 10 l1022 1 0 -292z m633
		-316 c-135 -5 -163 24 -163 170 l1 83 119 -125 119 -125 -76 -3z"/>
		<path d="M2440 3221 c-80 -26 -132 -67 -166 -131 -17 -32 -19 -70 -24 -449
		l-5 -415 -100 108 c-123 133 -167 161 -250 161 -96 -1 -167 -48 -215 -145 -44
		-86 -21 -178 67 -274 194 -211 557 -598 591 -628 71 -64 180 -75 263 -26 34
		20 474 481 630 660 65 76 96 153 84 211 -28 129 -145 221 -259 203 -69 -12
		-127 -53 -226 -160 l-95 -104 -5 397 c-5 387 -6 397 -28 446 -29 63 -55 91
		-114 121 -53 27 -112 37 -148 25z"/>
	</g>
</svg>
