<?xml version="1.0" standalone="no"?>
<!DOCTYPE svg PUBLIC "-//W3C//DTD SVG 20010904//EN" "http://www.w3.org/TR/2001/REC-SVG-20010904/DTD/svg10.dtd">
<svg version="1.0" xmlns="http://www.w3.org/2000/svg" width="512.000000pt" height="512.000000pt" viewBox="0 0 512.000000 512.000000" preserveAspectRatio="xMidYMid meet">
    <g transform="translate(0.000000,512.000000) scale(0.100000,-0.100000)" fill="#000000" stroke="none">
        <path d="M1918 5091 c-110 -36 -250 -104 -353 -173 -110 -72 -307 -270 -380
        -381 -103 -157 -190 -382 -215 -552 -12 -90 -12 -350 0 -440 42 -292 165 -530
        405 -783 l97 -103 -149 -73 c-474 -234 -838 -598 -1068 -1071 -164 -335 -224
        -604 -232 -1041 l-5 -260 26 -52 c17 -33 44 -65 74 -88 l47 -35 817 3 817 4
        26 24 c25 23 25 24 25 206 l0 183 -29 20 c-29 21 -38 21 -686 21 l-656 0 5 52
        c3 29 8 85 11 123 10 115 52 303 95 428 95 275 242 511 446 713 267 264 576
        427 969 511 117 24 148 27 320 26 338 -2 501 -34 762 -149 l102 -45 215 147
        216 148 -53 33 c-28 18 -116 65 -195 104 l-143 70 110 114 c197 205 307 401
        373 660 25 102 36 416 19 550 -14 104 -73 290 -126 396 -94 188 -258 383 -430
        511 -99 74 -290 169 -409 203 -87 25 -94 25 -425 25 l-336 -1 -87 -28z m622
        -422 c77 -12 234 -76 308 -125 70 -46 202 -172 258 -247 53 -70 101 -171 140
        -287 25 -78 27 -98 28 -245 0 -129 -3 -173 -19 -225 -98 -336 -333 -579 -655
        -674 -135 -41 -387 -38 -520 5 -246 78 -452 255 -565 484 -168 340 -107 751
        154 1028 126 133 292 236 451 277 86 22 311 27 420 9z"/>
        <path d="M2732 1924 c-86 -42 -169 -120 -209 -197 l-28 -52 0 -675 0 -675 28
        -54 c45 -84 109 -146 200 -191 l79 -40 987 0 986 0 63 30 c83 39 173 126 212
        203 l30 60 0 667 0 667 -32 63 c-40 77 -128 160 -214 201 l-62 29 -983 0 -984
        0 -73 -36z m1994 -311 c17 -10 24 -26 29 -75 10 -82 10 -1017 0 -1086 -6 -49
        -10 -55 -41 -68 -28 -12 -184 -14 -937 -14 -900 0 -904 0 -931 21 l-26 20 0
        583 c0 613 -1 599 45 625 30 17 1832 11 1861 -6z"/>
        <path d="M3030 1433 c-37 -7 -90 -51 -106 -89 -34 -81 -7 -166 66 -208 33 -20
        51 -21 317 -21 l281 0 38 30 c67 55 92 132 60 193 -19 36 -65 78 -99 91 -28
        11 -503 14 -557 4z"/>
        <path d="M3063 931 c-57 -5 -67 -10 -105 -49 -42 -41 -43 -44 -43 -110 0 -75
        14 -102 74 -143 l35 -24 746 0 747 0 37 29 c95 72 102 181 18 260 -26 24 -43
        30 -109 37 -88 9 -1304 9 -1400 0z"/>
    </g>
</svg>
