<?xml version="1.0" standalone="no"?>
<!DOCTYPE svg PUBLIC "-//W3C//DTD SVG 20010904//EN" "http://www.w3.org/TR/2001/REC-SVG-20010904/DTD/svg10.dtd">
<svg version="1.0" xmlns="http://www.w3.org/2000/svg" width="51.000000pt" height="51.000000pt" viewBox="0 0 512.000000 512.000000" preserveAspectRatio="xMidYMid meet">
    <g transform="translate(0.000000,512.000000) scale(0.100000,-0.100000)" fill="#c5401f" stroke="none">
        <path d="M1385 4719 c-764 -143 -1283 -245 -1304 -256 -18 -9 -44 -33 -57 -52
        l-24 -36 0 -1814 c0 -1811 0 -1814 21 -1847 11 -18 34 -42 52 -53 37 -22 2570
        -501 2653 -501 36 0 59 7 87 25 65 45 67 53 67 350 l0 265 1068 0 c1047 0
        1068 0 1100 20 18 11 41 34 52 52 20 33 20 54 20 1688 0 1634 0 1655 -20 1688
        -11 18 -34 41 -52 52 -32 20 -53 20 -1100 20 l-1068 0 0 268 c0 249 -1 269
        -20 300 -31 50 -75 72 -145 71 -33 -1 -631 -108 -1330 -240z m3415 -2159 l0
        -1440 -960 0 -960 0 0 160 0 160 748 0 c728 0 748 1 780 20 48 30 72 75 72
        140 0 65 -24 110 -72 140 -32 19 -52 20 -780 20 l-748 0 1 503 c0 440 2 495
        14 442 61 -278 265 -501 540 -591 116 -38 315 -45 435 -15 272 67 491 270 575
        534 14 43 25 80 25 83 0 2 -214 4 -475 4 l-475 0 0 475 c0 261 -2 475 -4 475
        -2 0 -35 -10 -72 -21 -140 -43 -247 -111 -355 -227 -87 -92 -157 -220 -189
        -342 l-19 -75 0 498 -1 497 960 0 960 0 0 -1440z m-3046 775 c230 -64 402
        -239 461 -466 25 -96 17 -261 -18 -358 -45 -128 -130 -236 -246 -316 -127 -87
        -254 -114 -528 -115 l-142 0 -3 -257 c-3 -239 -5 -261 -24 -293 -30 -51 -78
        -80 -134 -80 -56 0 -104 29 -134 80 -21 35 -21 46 -21 870 0 817 0 836 20 869
        25 42 62 70 106 82 19 4 162 7 319 4 227 -2 297 -7 344 -20z"/>
        <path d="M3840 3355 l0 -315 315 0 c173 0 315 2 315 4 0 14 -54 165 -71 199
        -74 145 -212 282 -356 356 -34 17 -185 71 -199 71 -2 0 -4 -142 -4 -315z"/>
        <path d="M1280 2720 l0 -321 208 3 c235 3 262 11 341 89 67 67 86 118 86 229
        0 111 -19 162 -86 229 -79 78 -106 86 -341 89 l-208 3 0 -321z"/>
    </g>
</svg>
