<?xml version="1.0" standalone="no"?>
<!DOCTYPE svg PUBLIC "-//W3C//DTD SVG 20010904//EN" "http://www.w3.org/TR/2001/REC-SVG-20010904/DTD/svg10.dtd">
<svg version="1.0" xmlns="http://www.w3.org/2000/svg" width="51.000000pt" height="51.000000pt" viewBox="0 0 512.000000 512.000000" preserveAspectRatio="xMidYMid meet">
    <g transform="translate(0.000000,512.000000) scale(0.100000,-0.100000)" fill="#000000" stroke="none">
        <path d="M430 5037 c-155 -53 -288 -168 -362 -312 -61 -119 -58 20 -58 -2176
        0 -2209 -4 -2052 57 -2174 57 -112 202 -248 307 -286 34 -12 67 -27 75 -33 10
        -8 196 -12 596 -14 l582 -3 26 27 c34 33 40 77 36 248 -4 133 -5 136 -32 163
        l-27 28 -528 5 c-595 6 -566 2 -603 83 -18 41 -19 99 -18 1962 0 1461 3 1928
        12 1955 9 26 23 41 57 58 l44 22 1346 0 c1300 0 1346 -1 1387 -19 82 -38 77 7
        83 -804 l5 -719 28 -24 c27 -23 33 -24 201 -24 l173 0 27 26 26 27 0 762 c0
        844 3 802 -67 931 -65 119 -203 239 -331 288 l-57 21 -1460 2 -1460 3 -65 -23z"/>
        <path d="M799 4276 c-123 -44 -184 -166 -149 -296 15 -57 88 -130 146 -148 55
        -16 780 -17 839 -1 54 15 139 100 154 154 14 51 14 89 0 140 -15 54 -100 139
        -154 154 -60 16 -789 14 -836 -3z"/>
        <path d="M795 3525 c-55 -20 -130 -100 -145 -156 -14 -52 -8 -135 14 -177 20
        -38 69 -88 110 -110 29 -16 112 -17 1119 -20 780 -2 1100 1 1130 9 56 15 141
        99 156 154 35 129 -34 264 -154 300 -71 22 -2169 21 -2230 0z"/>
        <path d="M799 2766 c-119 -42 -183 -170 -149 -295 16 -62 88 -135 145 -150 61
        -15 2183 -15 2239 0 58 16 123 81 141 142 30 103 14 171 -59 243 -33 34 -65
        56 -91 63 -62 17 -2178 15 -2226 -3z"/>
        <path d="M3850 2574 c-241 -52 -449 -222 -541 -444 -46 -110 -59 -199 -59
        -408 l0 -189 -82 -5 c-48 -3 -96 -11 -113 -20 -46 -25 -96 -78 -119 -128 -21
        -44 -21 -58 -21 -600 0 -614 -3 -586 66 -665 19 -21 56 -49 84 -61 l50 -24
        885 0 885 0 50 24 c28 12 65 40 84 61 69 79 66 51 66 665 0 542 0 556 -21 600
        -23 50 -73 103 -119 128 -17 9 -65 17 -112 20 l-83 5 0 189 c0 209 -13 298
        -59 408 -135 324 -502 518 -841 444z m265 -336 c143 -36 266 -174 295 -330 6
        -31 9 -127 8 -214 l-3 -159 -415 0 -415 0 -3 159 c-4 239 20 327 119 431 107
        113 254 153 414 113z m6 -1074 c165 -90 171 -318 11 -424 l-52 -34 0 -146 c0
        -143 -1 -147 -25 -170 -15 -14 -37 -23 -55 -23 -18 0 -40 9 -55 23 -24 23 -25
        27 -25 170 l0 146 -52 34 c-67 44 -107 108 -115 182 -21 201 189 339 368 242z"/>
    </g>
</svg>
