<?xml version="1.0" standalone="no"?>
<!DOCTYPE svg PUBLIC "-//W3C//DTD SVG 20010904//EN" "http://www.w3.org/TR/2001/REC-SVG-20010904/DTD/svg10.dtd">
<svg version="1.0" xmlns="http://www.w3.org/2000/svg" width="512.000000pt" height="512.000000pt" viewBox="0 0 512.000000 512.000000" preserveAspectRatio="xMidYMid meet">
    <g transform="translate(0.000000,512.000000) scale(0.100000,-0.100000)" fill="#000000" stroke="none">
        <path d="M825 5110 c-4 -6 -10 -8 -15 -5 -10 6 -172 -46 -181 -58 -3 -5 -9 -8
        -13 -7 -7 2 -96 -40 -106 -50 -3 -3 -38 -27 -77 -53 -172 -115 -345 -362 -394
        -562 -5 -22 -12 -49 -15 -60 -17 -62 -22 -110 -19 -200 4 -118 23 -165 98
        -244 63 -66 121 -92 217 -95 199 -7 330 136 343 374 4 69 32 153 57 170 4 3
        12 15 19 27 12 23 110 93 130 93 6 0 11 4 11 10 0 5 7 7 15 4 8 -4 15 -2 15 4
        0 5 6 9 13 9 6 -1 32 2 56 7 49 9 191 -11 191 -28 0 -5 3 -7 6 -3 3 3 11 2 18
        -4 6 -5 33 -24 60 -42 67 -44 120 -134 133 -223 9 -58 6 -104 -11 -182 -11
        -52 -68 -131 -128 -179 -28 -21 -96 -52 -102 -46 -3 4 -6 2 -6 -3 0 -5 -8 -10
        -17 -11 -10 -1 -58 -5 -108 -8 -84 -6 -175 -27 -199 -46 -59 -45 -99 -89 -127
        -141 l-34 -63 0 -345 c0 -330 1 -347 21 -391 20 -42 114 -159 114 -142 0 4 4
        3 8 -3 17 -25 112 -54 177 -54 86 0 153 28 222 93 83 79 97 121 101 315 3 137
        9 174 25 160 1 -2 13 5 26 14 13 9 30 14 37 11 8 -3 14 0 14 6 0 6 6 11 13 11
        18 0 118 53 183 97 63 42 206 178 246 233 74 102 143 243 164 335 4 17 11 35
        16 42 5 7 7 17 4 22 -4 5 -2 12 4 16 5 3 7 17 4 31 -3 13 -2 24 3 24 10 0 9
        257 -2 283 -4 9 -5 24 -2 32 4 8 2 17 -4 21 -6 3 -8 12 -5 19 2 7 1 16 -3 21
        -5 5 -14 32 -21 59 -53 198 -240 448 -415 555 -22 13 -42 26 -45 29 -11 13
        -90 51 -104 51 -9 0 -16 4 -16 8 0 5 -6 9 -12 9 -7 1 -47 14 -88 29 -72 27
        -83 28 -282 31 -130 2 -209 -1 -213 -7z"/>
        <path d="M3900 2945 c-124 -21 -273 -62 -498 -136 -117 -38 -247 -77 -289 -85
        -85 -16 -114 -31 -140 -71 -17 -25 -18 -74 -21 -643 -2 -338 0 -634 3 -658 9
        -60 54 -109 114 -124 38 -9 61 -26 131 -97 47 -47 141 -156 210 -241 68 -85
        150 -183 181 -218 71 -78 99 -146 140 -335 34 -162 72 -250 132 -303 l40 -37
        96 6 c118 6 193 33 260 93 88 79 125 190 125 374 0 145 -16 208 -94 368 -33
        68 -60 127 -60 132 0 5 138 10 308 12 l307 3 57 29 c71 35 144 105 183 177 25
        47 30 67 33 150 5 115 -11 182 -62 258 -35 51 -35 51 -21 99 29 94 12 229 -38
        312 -18 29 -21 50 -22 150 0 130 -18 187 -83 268 -21 27 -32 49 -28 59 4 9 2
        52 -4 97 -26 191 -133 313 -317 361 -74 19 -530 19 -643 0z"/>
        <path d="M2105 2705 c-69 -36 -65 12 -65 -730 0 -736 -3 -697 60 -730 24 -12
        84 -15 340 -15 339 0 341 0 385 58 19 26 20 45 23 660 2 407 -1 646 -7 670 -6
        21 -25 51 -41 67 l-31 30 -317 3 c-272 2 -321 0 -347 -13z m355 -260 c42 -21
        60 -53 60 -103 0 -37 -6 -50 -34 -78 -29 -29 -41 -34 -81 -34 -38 0 -52 5 -75
        28 -95 95 11 248 130 187z"/>
        <path d="M848 2419 c-21 -11 -38 -17 -38 -14 0 11 -85 -52 -124 -92 -21 -21
        -55 -72 -75 -113 -32 -67 -36 -83 -36 -155 0 -71 4 -88 36 -155 23 -48 55 -94
        87 -126 45 -45 100 -81 125 -83 4 0 20 -7 35 -14 15 -8 33 -12 40 -10 6 3 12
        0 12 -5 0 -11 112 -11 120 0 3 4 20 8 38 10 18 1 32 5 32 9 0 4 12 10 26 13
        67 17 169 123 213 221 33 73 33 207 0 280 -46 104 -139 196 -231 231 -24 9
        -82 17 -133 19 -74 3 -97 0 -127 -16z"/>
    </g>
</svg>
