<?xml version="1.0" standalone="no"?>
<!DOCTYPE svg PUBLIC "-//W3C//DTD SVG 20010904//EN" "http://www.w3.org/TR/2001/REC-SVG-20010904/DTD/svg10.dtd">
<svg version="1.0" xmlns="http://www.w3.org/2000/svg" width="398.000000pt" height="398.000000pt" viewBox="0 0 398.000000 398.000000" preserveAspectRatio="xMidYMid meet">
	<g transform="translate(0.000000,398.000000) scale(0.100000,-0.100000)" fill="#000000" stroke="none">
		<path d="M1541 3962 c-68 -34 -76 -56 -79 -222 l-4 -149 -372 -3 -371 -3 -67
		-33 c-116 -57 -195 -158 -218 -277 -8 -43 -10 -462 -8 -1516 l3 -1455 38 -76
		c45 -93 111 -155 207 -195 l65 -28 1255 0 1255 0 65 28 c96 40 162 102 207
		195 l38 76 3 1445 c1 911 -1 1470 -7 1510 -20 127 -108 243 -228 299 l-58 27
		-372 3 -371 3 -4 149 c-3 131 -5 152 -24 177 -46 63 -47 63 -504 63 -375 0
		-418 -2 -449 -18z m719 -514 c-1 -196 -5 -283 -14 -309 -19 -53 -61 -104 -118
		-140 -41 -27 -62 -33 -124 -37 -65 -4 -80 -2 -129 23 -64 31 -128 104 -145
		163 -5 21 -10 152 -10 305 l0 267 270 0 270 0 0 -272z m-806 -120 c2 -7 8 -66
		14 -131 10 -103 16 -128 48 -195 74 -155 227 -267 398 -294 221 -34 447 87
		549 294 34 68 39 89 49 195 5 65 12 124 14 131 3 9 74 12 316 12 172 0 331 -5
		352 -10 22 -5 53 -23 70 -40 l31 -30 3 -1450 c2 -1617 8 -1491 -68 -1530 -39
		-20 -57 -20 -1240 -20 -1183 0 -1201 0 -1240 20 -76 39 -70 -85 -70 1525 l0
		1445 33 36 c18 20 47 39 67 44 19 4 178 8 353 9 246 1 318 -2 321 -11z"/>
		<path d="M1873 2365 c-302 -85 -443 -415 -295 -689 l26 -48 -29 -21 c-73 -52
		-155 -142 -190 -208 -54 -103 -65 -171 -65 -414 0 -238 7 -266 70 -297 32 -17
		82 -18 600 -18 518 0 568 1 600 18 63 31 70 60 70 287 -1 245 -14 327 -67 425
		-36 68 -116 156 -188 207 l-29 21 26 48 c76 142 77 308 2 457 -42 81 -139 169
		-231 207 -94 39 -215 49 -300 25z m223 -275 c123 -70 146 -235 47 -332 -124
		-121 -312 -74 -359 90 -19 64 -11 118 28 180 31 51 111 92 178 92 43 0 67 -7
		106 -30z m130 -679 c55 -25 109 -75 142 -130 26 -44 27 -54 30 -198 l4 -153
		-411 0 -411 0 0 143 c0 128 3 147 24 192 26 57 89 118 150 146 36 16 67 19
		236 19 168 0 201 -3 236 -19z"/>
	</g>
</svg>