<?xml version="1.0" standalone="no"?>
<!DOCTYPE svg PUBLIC "-//W3C//DTD SVG 20010904//EN" "http://www.w3.org/TR/2001/REC-SVG-20010904/DTD/svg10.dtd">
<svg version="1.0" xmlns="http://www.w3.org/2000/svg" width="448.000000pt" height="448.000000pt" viewBox="0 0 448.000000 448.000000" preserveAspectRatio="xMidYMid meet">
	<g transform="translate(0.000000,448.000000) scale(0.100000,-0.100000)" fill="#000000" stroke="none">
		<path d="M3365 4435 c-27 -8 -60 -14 -72 -15 -23 0 -233 -94 -243 -108 -3 -5
		-23 -19 -45 -32 -64 -38 -758 -734 -785 -787 -44 -88 -5 -189 93 -238 118 -58
		124 -54 529 349 343 342 399 391 508 434 112 45 291 43 404 -5 98 -41 218
		-142 248 -209 6 -13 15 -24 19 -24 4 0 13 -17 20 -37 6 -21 16 -44 21 -50 6
		-7 16 -53 23 -103 13 -97 3 -212 -25 -275 -7 -16 -14 -35 -15 -41 -2 -6 -21
		-40 -44 -75 -29 -46 -216 -239 -653 -674 -610 -607 -665 -657 -756 -685 -18
		-6 -47 -15 -64 -21 -146 -47 -354 2 -487 116 -101 86 -166 104 -246 65 -45
		-21 -85 -53 -85 -68 0 -5 -7 -23 -15 -38 -37 -71 -5 -155 88 -237 160 -140
		340 -214 552 -224 247 -13 438 45 625 188 91 70 1294 1276 1336 1339 16 25 32
		47 35 50 7 6 60 109 83 163 32 75 56 213 56 325 0 114 -26 269 -57 340 -28 65
		-58 126 -66 137 -5 5 -17 24 -27 40 -34 52 -44 66 -85 112 -89 100 -259 213
		-385 256 -141 48 -373 63 -485 32z"/>
		<path d="M1855 2898 c-71 -11 -202 -51 -259 -80 -139 -70 -196 -121 -787 -715
		-322 -323 -596 -606 -609 -628 -13 -22 -27 -42 -30 -45 -12 -10 -60 -99 -76
		-141 -9 -24 -27 -84 -40 -134 -43 -159 -27 -416 33 -552 37 -85 61 -130 89
		-172 16 -24 34 -51 39 -60 6 -8 19 -23 30 -33 11 -9 17 -17 13 -18 -9 0 57
		-60 136 -124 77 -61 241 -141 336 -162 111 -25 314 -30 409 -9 127 28 229 72
		346 149 57 37 601 566 667 649 27 34 31 46 31 105 1 95 -26 139 -108 178 -27
		13 -61 24 -75 24 -58 -1 -106 -40 -393 -326 -291 -289 -351 -340 -457 -382
		-150 -61 -374 -35 -499 56 -57 41 -120 104 -144 142 -11 19 -24 37 -28 40 -18
		14 -53 115 -64 190 -15 96 -5 209 23 270 9 19 16 38 17 42 0 13 59 108 67 108
		4 0 8 6 8 13 0 21 1110 1121 1171 1160 213 136 486 113 676 -57 73 -65 145
		-82 219 -51 35 14 80 46 80 55 0 3 9 18 19 34 29 43 26 121 -7 171 -61 96
		-229 211 -389 266 -127 43 -304 58 -444 37z"/>
	</g>
</svg>
