<?xml version="1.0" standalone="no"?>
<!DOCTYPE svg PUBLIC "-//W3C//DTD SVG 20010904//EN" "http://www.w3.org/TR/2001/REC-SVG-20010904/DTD/svg10.dtd">
<svg version="1.0" xmlns="http://www.w3.org/2000/svg" width="512.000000pt" height="512.000000pt" viewBox="0 0 512.000000 512.000000" preserveAspectRatio="xMidYMid meet">
    <g transform="translate(0.000000,512.000000) scale(0.100000,-0.100000)" fill="#000000" stroke="none">
        <path d="M430 5037 c-155 -53 -288 -168 -362 -312 -61 -119 -58 20 -58 -2176
        0 -2209 -4 -2052 57 -2174 57 -112 202 -248 307 -286 34 -12 67 -27 75 -33 10
        -8 196 -12 596 -14 l582 -3 26 27 c34 33 40 77 36 248 -4 133 -5 136 -32 163
        l-27 28 -528 5 c-595 6 -566 2 -603 83 -18 41 -19 99 -18 1962 0 1461 3 1928
        12 1955 9 26 23 41 57 58 l44 22 1346 0 c1300 0 1346 -1 1387 -19 82 -38 77 7
        83 -804 l5 -719 28 -24 c27 -23 33 -24 201 -24 l173 0 27 26 26 27 0 762 c0
        844 3 802 -67 931 -65 119 -203 239 -331 288 l-57 21 -1460 2 -1460 3 -65 -23z"/>
        <path d="M799 4276 c-123 -44 -184 -166 -149 -296 15 -57 88 -130 146 -148 55
        -16 780 -17 839 -1 54 15 139 100 154 154 14 51 14 89 0 140 -15 54 -100 139
        -154 154 -60 16 -789 14 -836 -3z"/>
        <path d="M795 3525 c-55 -20 -130 -100 -145 -156 -14 -52 -8 -135 14 -177 20
        -38 69 -88 110 -110 29 -16 112 -17 1119 -20 780 -2 1100 1 1130 9 56 15 141
        99 156 154 35 129 -34 264 -154 300 -71 22 -2169 21 -2230 0z"/>
        <path d="M799 2766 c-119 -42 -183 -170 -149 -295 16 -62 88 -135 145 -150 61
        -15 2183 -15 2239 0 58 16 123 81 141 142 30 103 14 171 -59 243 -33 34 -65
        56 -91 63 -62 17 -2178 15 -2226 -3z"/>
        <path d="M3520 2145 c-8 -2 -64 -11 -125 -21 -60 -9 -123 -22 -140 -30 -16 -7
        -67 -23 -112 -35 -46 -12 -83 -25 -83 -29 0 -5 -29 -18 -65 -31 -36 -12 -65
        -26 -65 -30 0 -3 -23 -17 -52 -29 -28 -12 -58 -28 -66 -36 -8 -8 -27 -21 -44
        -30 -105 -54 -308 -239 -334 -303 -21 -54 -15 -153 13 -199 22 -35 79 -82 100
        -82 7 0 13 -4 13 -10 0 -6 26 -10 59 -10 48 0 70 6 118 33 32 18 72 46 89 63
        66 62 133 115 193 151 59 36 213 110 256 123 22 6 54 18 70 25 65 29 252 48
        430 42 155 -4 320 -27 335 -46 3 -3 39 -17 80 -30 41 -13 77 -27 80 -31 3 -4
        30 -19 60 -34 76 -37 143 -78 164 -98 10 -10 21 -18 25 -18 5 0 26 -16 47 -36
        21 -19 51 -46 65 -59 14 -13 49 -37 78 -54 42 -25 63 -31 111 -31 32 0 60 3
        62 8 2 4 20 16 42 27 119 60 138 236 37 340 -21 22 -57 56 -81 75 -23 19 -54
        45 -68 58 -14 12 -42 32 -61 44 -20 12 -38 25 -41 28 -3 3 -23 17 -45 30 -22
        13 -46 30 -52 36 -7 7 -33 20 -58 29 -25 10 -45 21 -45 25 0 4 -29 18 -65 31
        -36 12 -65 26 -65 29 0 4 -37 18 -82 30 -46 13 -88 27 -93 31 -6 4 -62 17
        -125 29 -86 16 -170 22 -330 25 -118 2 -222 2 -230 0z"/>
        <path d="M3620 1483 c-30 -2 -64 -7 -75 -12 -11 -5 -56 -16 -100 -26 -44 -10
        -108 -30 -142 -46 -34 -16 -67 -29 -72 -29 -5 0 -16 -6 -23 -14 -8 -7 -28 -21
        -45 -30 -100 -51 -257 -197 -267 -248 -3 -17 -6 -50 -6 -75 0 -150 165 -248
        310 -182 24 11 47 23 50 27 11 15 95 78 139 104 70 41 103 55 167 68 33 6 67
        16 76 21 23 12 153 12 176 0 9 -5 51 -16 92 -25 94 -21 199 -79 278 -155 90
        -85 256 -79 326 11 14 19 26 40 26 46 0 6 5 12 12 14 15 5 18 145 3 156 -5 4
        -18 22 -29 41 -20 36 -78 92 -135 130 -20 14 -38 28 -41 31 -3 4 -21 15 -40
        25 -19 9 -42 23 -50 30 -8 8 -40 23 -70 35 -30 12 -57 25 -60 29 -6 9 -177 51
        -208 51 -11 0 -22 4 -24 9 -4 10 -187 20 -268 14z"/>
        <path d="M3615 742 c-79 -28 -138 -74 -206 -160 -22 -28 -43 -120 -42 -192 1
        -118 24 -169 117 -264 91 -93 290 -114 419 -44 71 38 148 139 166 218 20 88 4
        236 -30 274 -8 8 -27 33 -44 55 -16 22 -59 56 -95 77 -62 35 -70 37 -165 40
        -55 2 -109 0 -120 -4z"/>
    </g>
</svg>
