<?xml version="1.0" standalone="no"?>
<!DOCTYPE svg PUBLIC "-//W3C//DTD SVG 20010904//EN" "http://www.w3.org/TR/2001/REC-SVG-20010904/DTD/svg10.dtd">
<svg version="1.0" xmlns="http://www.w3.org/2000/svg" width="512.000000pt" height="512.000000pt" viewBox="0 0 512.000000 512.000000" preserveAspectRatio="xMidYMid meet">
    <g transform="translate(0.000000,512.000000) scale(0.100000,-0.100000)" fill="#000000" stroke="none">
        <path d="M1918 5091 c-110 -36 -250 -104 -353 -173 -110 -72 -307 -270 -380
        -381 -103 -157 -190 -382 -215 -552 -12 -90 -12 -350 0 -440 42 -292 165 -530
        405 -783 l97 -103 -149 -73 c-474 -234 -838 -598 -1068 -1071 -164 -335 -224
        -604 -232 -1041 l-5 -260 26 -52 c17 -33 44 -65 74 -88 l47 -35 817 3 817 4
        26 24 c25 23 25 24 25 206 l0 183 -29 20 c-29 21 -38 21 -686 21 l-656 0 5 52
        c3 29 8 85 11 123 10 115 52 303 95 428 95 275 242 511 446 713 267 264 576
        427 969 511 117 24 148 27 320 26 338 -2 501 -34 762 -149 l102 -45 215 147
        216 148 -53 33 c-28 18 -116 65 -195 104 l-143 70 110 114 c197 205 307 401
        373 660 25 102 36 416 19 550 -14 104 -73 290 -126 396 -94 188 -258 383 -430
        511 -99 74 -290 169 -409 203 -87 25 -94 25 -425 25 l-336 -1 -87 -28z m622
        -422 c77 -12 234 -76 308 -125 70 -46 202 -172 258 -247 53 -70 101 -171 140
        -287 25 -78 27 -98 28 -245 0 -129 -3 -173 -19 -225 -98 -336 -333 -579 -655
        -674 -135 -41 -387 -38 -520 5 -246 78 -452 255 -565 484 -168 340 -107 751
        154 1028 126 133 292 236 451 277 86 22 311 27 420 9z"/>
        <path d="M2754 2006 c-118 -37 -255 -142 -322 -249 -61 -97 -84 -169 -80 -257
        3 -72 4 -75 37 -97 31 -21 45 -23 168 -23 168 0 184 7 224 95 33 74 61 99 128
        115 83 20 86 27 86 215 0 159 -1 164 -24 189 -22 24 -31 26 -100 25 -42 0 -94
        -6 -117 -13z"/>
        <path d="M3139 1994 c-23 -24 -24 -33 -27 -171 -5 -230 -2 -233 254 -233 253
        0 259 5 253 242 -4 128 -5 138 -28 162 l-24 26 -202 0 -202 0 -24 -26z"/>
        <path d="M3774 1993 c-25 -27 -25 -28 -22 -191 l3 -164 28 -24 c27 -23 33 -24
        195 -24 177 0 236 9 252 40 6 10 10 90 10 180 0 223 15 210 -245 210 l-196 0
        -25 -27z"/>
        <path d="M4399 1994 c-23 -25 -24 -30 -24 -189 0 -181 5 -197 69 -211 88 -19
        107 -33 142 -111 44 -97 58 -103 238 -103 131 0 135 1 166 27 l32 27 -4 90
        c-3 61 -10 104 -23 131 -105 224 -298 365 -498 365 -66 0 -76 -3 -98 -26z"/>
        <path d="M2383 1245 l-33 -26 0 -203 0 -202 29 -28 29 -27 155 3 c149 3 157 4
        181 27 l26 24 0 202 0 202 -26 24 c-24 23 -32 24 -177 27 -151 3 -152 2 -184
        -23z"/>
        <path d="M4660 1263 c-8 -3 -25 -15 -37 -26 -22 -20 -23 -26 -23 -222 l0 -202
        26 -24 c24 -23 32 -24 181 -27 l155 -3 29 27 29 28 0 202 0 202 -31 26 c-30
        25 -34 26 -172 25 -78 0 -149 -3 -157 -6z"/>
        <path d="M2389 657 c-33 -22 -34 -25 -37 -97 -7 -179 126 -372 326 -472 76
        -38 92 -42 175 -46 89 -4 93 -3 117 23 25 26 25 30 25 190 0 188 -3 195 -86
        215 -67 16 -95 41 -128 115 -40 88 -56 95 -224 95 -123 0 -137 -2 -168 -23z"/>
        <path d="M4647 664 c-19 -10 -38 -38 -61 -88 -35 -77 -54 -91 -142 -110 -64
        -14 -69 -30 -69 -211 0 -159 1 -164 24 -189 22 -23 32 -26 98 -26 122 0 240
        51 349 152 54 50 93 105 136 191 27 52 32 76 36 153 l4 90 -32 27 c-31 27 -34
        27 -173 27 -107 -1 -149 -5 -170 -16z"/>
        <path d="M3164 456 c-48 -21 -56 -54 -52 -219 3 -138 4 -147 27 -171 l24 -26
        202 0 202 0 24 26 c23 24 24 34 28 162 6 237 0 242 -256 242 -118 -1 -177 -5
        -199 -14z"/>
        <path d="M3793 458 c-34 -17 -43 -60 -43 -218 0 -142 1 -148 25 -174 l24 -26
        196 0 c260 0 245 -13 245 210 0 90 -4 170 -10 180 -6 11 -27 24 -48 30 -49 13
        -360 12 -389 -2z"/>
    </g>
</svg>
