<?xml version="1.0" standalone="no"?>
<!DOCTYPE svg PUBLIC "-//W3C//DTD SVG 20010904//EN" "http://www.w3.org/TR/2001/REC-SVG-20010904/DTD/svg10.dtd">
<svg version="1.0" xmlns="http://www.w3.org/2000/svg" width="512.000000pt" height="512.000000pt" viewBox="0 0 512.000000 512.000000" preserveAspectRatio="xMidYMid meet">
    <g transform="translate(0.000000,512.000000) scale(0.100000,-0.100000)" fill="#000000" stroke="none">
        <path d="M1918 5091 c-110 -36 -250 -104 -353 -173 -110 -72 -307 -270 -380
        -381 -103 -157 -190 -382 -215 -552 -12 -90 -12 -350 0 -440 42 -292 165 -530
        405 -783 l97 -103 -149 -73 c-474 -234 -838 -598 -1068 -1071 -164 -335 -224
        -604 -232 -1041 l-5 -260 26 -52 c17 -33 44 -65 74 -88 l47 -35 817 3 817 4
        26 24 c25 23 25 24 25 206 l0 183 -29 20 c-29 21 -38 21 -686 21 l-656 0 5 52
        c3 29 8 85 11 123 10 115 52 303 95 428 95 275 242 511 446 713 267 264 576
        427 969 511 117 24 148 27 320 26 338 -2 501 -34 762 -149 l102 -45 215 147
        216 148 -53 33 c-28 18 -116 65 -195 104 l-143 70 110 114 c197 205 307 401
        373 660 25 102 36 416 19 550 -14 104 -73 290 -126 396 -94 188 -258 383 -430
        511 -99 74 -290 169 -409 203 -87 25 -94 25 -425 25 l-336 -1 -87 -28z m622
        -422 c77 -12 234 -76 308 -125 70 -46 202 -172 258 -247 53 -70 101 -171 140
        -287 25 -78 27 -98 28 -245 0 -129 -3 -173 -19 -225 -98 -336 -333 -579 -655
        -674 -135 -41 -387 -38 -520 5 -246 78 -452 255 -565 484 -168 340 -107 751
        154 1028 126 133 292 236 451 277 86 22 311 27 420 9z"/>
        <path d="M2501 1835 c-138 -31 -241 -129 -293 -281 -88 -255 -8 -538 182 -646
        25 -14 103 -49 173 -77 185 -74 206 -94 207 -198 0 -117 -42 -164 -147 -164
        -57 0 -70 3 -102 28 -46 37 -78 100 -86 171 -14 127 -39 152 -150 152 -127 0
        -160 -42 -145 -187 26 -251 150 -441 320 -494 124 -38 250 -30 358 23 94 45
        186 174 228 318 13 46 19 98 19 180 0 100 -4 127 -29 202 -31 97 -88 180 -156
        229 -42 31 -159 89 -178 89 -21 0 -146 54 -187 80 -40 26 -40 26 -43 95 -2 64
        0 73 25 102 29 33 43 37 135 34 32 -1 42 -7 67 -42 19 -25 32 -59 36 -87 11
        -88 24 -121 55 -137 36 -19 140 -20 183 -2 53 23 62 41 61 126 -1 120 -52 265
        -122 354 -90 112 -259 166 -411 132z"/>
        <path d="M4575 1844 c-87 -20 -117 -31 -165 -58 -114 -63 -204 -189 -261 -365
        -41 -129 -59 -259 -59 -436 0 -247 40 -440 126 -606 94 -181 221 -264 404
        -262 244 3 401 177 475 526 20 92 7 125 -61 154 -85 37 -140 47 -174 33 -39
        -16 -47 -32 -65 -124 -18 -96 -43 -151 -88 -198 -37 -37 -65 -46 -124 -39 -70
        7 -142 113 -170 249 -23 108 -23 429 -1 528 32 140 106 243 177 245 114 4 141
        -22 196 -185 40 -120 53 -126 183 -84 88 28 95 33 109 67 15 34 14 42 -7 126
        -52 211 -162 356 -306 405 -57 20 -155 32 -189 24z"/>
        <path d="M3474 1814 c-50 -11 -49 -11 -173 -519 -115 -477 -172 -711 -217
        -891 -62 -255 -52 -276 126 -263 71 5 96 11 111 25 18 19 28 55 84 297 l27
        117 137 0 136 0 48 -199 c34 -139 54 -204 68 -217 14 -12 44 -19 115 -23 116
        -8 147 2 163 52 11 31 -6 103 -189 808 -143 551 -207 780 -220 793 -16 16 -35
        20 -107 22 -48 1 -98 0 -109 -2z"/>
    </g>
</svg>
