<?xml version="1.0" standalone="no"?>
<!DOCTYPE svg PUBLIC "-//W3C//DTD SVG 20010904//EN" "http://www.w3.org/TR/2001/REC-SVG-20010904/DTD/svg10.dtd">
<svg version="1.0" xmlns="http://www.w3.org/2000/svg" width="2133.000000pt" height="2133.000000pt" viewBox="0 0 2133.000000 2133.000000" preserveAspectRatio="xMidYMid meet">
    <g transform="translate(0.000000,2133.000000) scale(0.100000,-0.100000)" fill="#3a6999" stroke="none">
        <path d="M13220 21253 c-8 -3 -17 -9 -20 -12 -3 -4 -26 -19 -52 -34 -27 -15
        -48 -31 -48 -35 0 -4 -14 -23 -30 -41 -59 -64 -60 -79 -60 -791 0 -368 -4
        -659 -9 -678 -5 -17 -17 -39 -25 -48 -9 -8 -16 -21 -16 -29 0 -11 -21 -31 -89
        -87 -40 -32 -87 -37 -382 -38 -277 0 -395 -8 -408 -29 -4 -4 -24 -18 -46 -29
        -139 -72 -181 -308 -80 -447 48 -66 94 -124 158 -200 15 -18 27 -37 27 -42 0
        -5 12 -20 26 -34 14 -13 45 -50 68 -82 66 -93 79 -111 109 -142 15 -17 30 -38
        33 -47 3 -10 9 -18 15 -18 5 0 20 -18 34 -39 13 -22 33 -48 43 -58 10 -10 34
        -40 53 -66 69 -98 105 -144 156 -202 10 -11 33 -42 52 -70 19 -27 47 -63 63
        -80 15 -16 28 -33 28 -37 0 -4 9 -18 21 -30 27 -31 84 -102 144 -184 28 -36
        64 -83 81 -103 17 -20 34 -44 37 -53 4 -10 11 -18 16 -18 6 0 17 -12 25 -27 8
        -16 27 -42 43 -60 15 -18 51 -62 78 -99 28 -37 65 -84 83 -104 17 -21 32 -41
        32 -44 0 -4 28 -41 63 -81 79 -94 139 -126 247 -133 132 -7 197 29 315 178 22
        28 51 63 65 78 14 15 30 34 35 43 6 9 29 41 53 70 24 30 58 72 75 93 18 22 47
        56 65 77 17 20 32 41 32 46 0 5 12 21 28 35 15 15 50 56 77 93 28 37 69 90 93
        119 70 85 81 99 130 161 26 33 55 69 64 80 9 11 41 52 72 90 30 39 64 81 75
        95 79 97 255 317 298 374 21 26 47 58 58 69 11 12 27 31 35 43 8 12 34 46 58
        75 24 30 56 69 70 88 73 92 103 128 121 149 27 30 61 131 61 181 0 57 -33 154
        -64 187 -14 16 -26 32 -26 36 0 4 -21 20 -47 35 -27 15 -50 31 -54 35 -13 20
        -134 28 -409 28 -332 0 -353 3 -418 65 -20 19 -41 35 -45 35 -5 0 -5 5 -2 10
        3 6 2 10 -3 10 -4 0 -17 17 -28 38 -18 35 -19 70 -24 730 -4 494 -8 695 -16
        700 -6 4 -15 18 -19 32 -14 45 -49 88 -100 121 -27 19 -53 39 -57 44 -8 11
        -1011 18 -1038 8z"/>
        <path d="M9660 16000 c-1053 -5 -1116 -6 -1140 -23 -14 -10 -74 -52 -135 -95
        -172 -119 -327 -289 -408 -449 -16 -30 -60 -170 -77 -243 -25 -106 -18 -384
        10 -453 5 -12 21 -61 36 -109 15 -49 30 -88 34 -88 4 0 11 -11 14 -25 4 -14
        11 -25 17 -25 6 0 7 -4 4 -10 -3 -5 -1 -10 5 -10 6 0 9 -4 6 -8 -3 -5 5 -19
        17 -33 12 -13 30 -41 41 -61 24 -48 161 -185 239 -241 34 -24 125 -78 202
        -120 l140 -75 2200 -9 c2762 -10 6755 -10 7315 0 493 9 785 21 852 36 80 18
        218 81 305 138 181 119 304 283 381 508 42 122 56 240 49 400 -13 283 -102
        492 -296 697 -124 132 -297 240 -411 259 -36 6 -81 15 -100 20 -19 5 -75 12
        -125 15 -112 8 -7656 11 -9175 4z"/>
        <path d="M10685 12860 c-638 -4 -1261 -13 -1385 -19 -124 -6 -316 -13 -427
        -16 -220 -6 -261 -14 -374 -71 -120 -60 -218 -134 -329 -250 -94 -98 -131
        -143 -178 -221 -38 -63 -87 -205 -101 -293 -14 -84 -14 -267 0 -350 13 -82 62
        -234 101 -314 68 -138 198 -287 348 -397 19 -14 97 -58 173 -98 l138 -71 4622
        0 c4141 1 5203 6 5382 25 22 2 108 9 190 15 168 12 337 35 363 50 9 5 41 16
        70 26 60 18 149 87 203 156 18 23 57 71 86 105 29 34 63 81 75 105 106 194
        165 325 188 413 7 28 18 56 24 64 15 19 15 263 -1 282 -6 8 -19 41 -28 74 -10
        33 -25 78 -35 100 -10 22 -27 61 -38 87 -60 139 -216 316 -365 416 -43 29 -80
        52 -82 52 -3 0 -33 14 -67 30 -140 68 -209 75 -813 90 -520 13 -6309 20 -7740
        10z"/>
        <path d="M4984 8852 c-67 -48 -139 -103 -161 -122 -22 -19 -81 -69 -133 -110
        -51 -41 -125 -102 -165 -135 -39 -33 -93 -78 -120 -100 -27 -22 -68 -56 -90
        -75 -23 -19 -66 -56 -96 -81 -30 -25 -106 -90 -170 -145 -64 -54 -137 -117
        -164 -139 -27 -22 -63 -54 -79 -71 -17 -17 -56 -52 -86 -78 -30 -26 -66 -58
        -80 -70 -21 -19 -551 -475 -750 -644 -66 -56 -151 -133 -165 -148 -11 -13
        -655 -567 -730 -629 -27 -22 -96 -82 -154 -133 -104 -91 -508 -445 -625 -546
        -33 -28 -71 -60 -85 -71 -15 -11 -39 -31 -55 -45 -16 -14 -68 -58 -115 -99
        -47 -41 -131 -116 -186 -166 -593 -545 -660 -614 -705 -722 -28 -67 -30 -80
        -30 -203 0 -130 1 -134 34 -204 41 -85 65 -115 176 -226 47 -46 84 -88 82 -92
        -1 -4 1 -7 5 -6 12 4 107 -95 263 -272 41 -47 103 -114 137 -150 34 -36 71
        -76 83 -89 26 -31 233 -253 280 -301 19 -19 52 -55 73 -80 22 -25 65 -72 96
        -105 31 -34 83 -92 116 -130 33 -38 188 -209 345 -380 157 -171 317 -346 355
        -390 123 -138 256 -287 370 -411 168 -184 258 -284 304 -338 24 -27 51 -56 61
        -65 11 -9 48 -50 82 -92 64 -77 183 -212 228 -259 14 -14 36 -39 50 -56 14
        -16 75 -85 135 -154 61 -69 132 -152 160 -184 54 -64 149 -146 217 -187 99
        -61 226 -75 339 -37 35 11 66 24 69 28 3 3 34 17 70 29 36 13 67 27 70 31 3 3
        25 14 50 24 178 70 589 293 827 449 32 20 85 51 118 68 33 16 67 34 75 39 8 6
        65 33 125 61 61 28 139 66 175 83 36 18 82 38 103 45 20 7 37 16 37 20 0 4 19
        13 42 20 23 7 69 25 102 41 34 15 79 33 101 40 22 7 45 16 50 20 6 4 42 17 80
        29 39 13 79 27 90 32 27 13 199 65 315 95 52 14 104 29 115 34 11 5 56 18 100
        29 76 18 143 19 1335 25 1660 8 3326 15 5433 22 l1728 6 153 137 c85 75 198
        171 252 213 55 42 109 86 122 98 13 12 51 43 85 69 34 26 107 82 162 125 55
        42 276 209 490 371 215 163 428 325 474 361 79 62 481 366 598 451 29 21 63
        46 75 55 13 10 99 74 191 143 93 68 174 131 182 138 7 8 73 59 147 114 219
        164 726 541 833 620 55 41 120 91 144 111 24 20 52 41 62 46 11 5 19 13 19 17
        0 4 16 17 35 29 20 12 41 27 48 34 12 13 409 314 701 532 158 117 262 197 321
        245 33 27 65 53 70 57 6 4 37 28 70 54 33 26 148 116 255 199 395 307 514 416
        561 514 24 49 24 54 23 325 l-1 275 -35 105 c-24 75 -51 131 -93 194 -58 88
        -199 240 -305 328 -195 161 -433 267 -682 303 -62 9 -135 21 -163 26 -76 15
        -471 6 -592 -14 -279 -45 -517 -132 -828 -302 -49 -27 -104 -58 -122 -70 -17
        -11 -57 -36 -89 -55 -93 -56 -277 -180 -304 -205 -14 -12 -42 -33 -62 -46 -41
        -27 -280 -207 -593 -449 -27 -21 -75 -58 -105 -81 -30 -23 -122 -94 -205 -157
        -82 -63 -157 -122 -165 -131 -14 -15 -37 -33 -190 -150 -128 -98 -336 -255
        -514 -389 -105 -79 -202 -151 -216 -162 -14 -10 -83 -62 -155 -115 -71 -54
        -132 -100 -135 -104 -3 -4 -19 -17 -37 -29 -18 -13 -42 -32 -55 -42 -13 -11
        -79 -61 -148 -112 -69 -51 -204 -150 -300 -222 -96 -71 -197 -146 -225 -166
        -143 -106 -397 -297 -494 -372 l-61 -48 -2088 0 -2087 1 -115 79 c-118 81
        -348 235 -410 275 -121 78 -368 239 -385 251 -11 7 -63 43 -115 78 -52 36
        -133 92 -180 126 -47 33 -103 72 -125 87 -22 14 -42 29 -45 33 -3 3 -25 20
        -50 37 -91 63 -255 205 -261 226 -9 35 9 70 48 96 31 20 57 25 162 33 69 5
        187 18 261 29 234 33 839 131 890 144 14 4 99 20 190 36 217 38 795 147 895
        169 28 6 106 22 175 35 369 70 700 144 743 166 10 6 28 7 40 3 12 -3 18 -3 14
        2 -4 5 41 19 100 31 59 12 117 27 128 32 11 5 45 17 75 25 207 58 500 283 635
        488 15 24 36 54 45 68 32 49 80 146 100 204 11 32 24 64 29 70 4 6 19 52 32
        101 12 50 26 92 29 95 4 3 16 55 26 115 26 153 27 463 1 585 -10 47 -22 89
        -26 95 -5 5 -14 28 -21 50 -15 47 -55 123 -118 220 -72 110 -270 297 -370 349
        -17 9 -32 19 -34 23 -1 5 -21 17 -43 29 -22 11 -67 34 -100 52 -33 17 -100 49
        -150 72 -49 22 -107 49 -127 60 -37 20 -71 20 -3570 19 l-3533 -1 -121 -86z"/>
    </g>
</svg>
