<?xml version="1.0" encoding="iso-8859-1"?>
<svg enable-background="new 0 0 511.449 511.449" height="512" viewBox="0 0 511.449 511.449" width="512" xmlns="http://www.w3.org/2000/svg">
	<g fill="#ffffff">
		<path d="m436.508 74.941c-99.913-99.913-261.639-99.928-361.566 0-99.914 99.912-99.93 261.64 0 361.567 99.913 99.913 261.639 99.928 361.566 0 99.913-99.912 99.929-261.64 0-361.567zm-180.784 394.45c-117.816 0-213.667-95.851-213.667-213.667s95.851-213.666 213.667-213.666 213.667 95.851 213.667 213.667-95.85 213.666-213.667 213.666z"/>
		<path d="m316.3 195.149c8.201 8.201 21.498 8.201 29.699 0s8.2-21.498 0-29.698c-62.915-62.915-169.604-43.489-206.485 37.274h-22.456c-11.598 0-21 9.402-21 21s9.402 21 21 21h11.474c-.61 7.194-.653 14.306 0 22h-11.474c-11.598 0-21 9.402-21 21s9.402 21 21 21h22.456c37.075 81.188 143.867 99.892 206.485 37.274 8.2-8.201 8.201-21.497 0-29.698-8.202-8.201-21.497-8.201-29.699 0-35.78 35.78-95.61 33.208-127.863-7.576h24.621c11.598 0 21-9.402 21-21s-9.402-21-21-21h-42.28c-.957-7.514-.961-14.456 0-22h42.28c11.598 0 21-9.402 21-21s-9.402-21-21-21h-24.621c32.257-40.79 92.086-43.353 127.863-7.576z"/>
	</g>
</svg>