<?xml version="1.0" standalone="no"?>
<!DOCTYPE svg PUBLIC "-//W3C//DTD SVG 20010904//EN" "http://www.w3.org/TR/2001/REC-SVG-20010904/DTD/svg10.dtd">
<svg version="1.0" xmlns="http://www.w3.org/2000/svg" width="512.000000pt" height="512.000000pt" viewBox="0 0 512.000000 512.000000" preserveAspectRatio="xMidYMid meet">
    <g transform="translate(0.000000,512.000000) scale(0.100000,-0.100000)" fill="#000000" stroke="none">
        <path d="M472 5050 c-110 -29 -206 -84 -288 -165 -82 -82 -134 -170 -163 -275
        -21 -74 -21 -85 -21 -2040 0 -1955 0 -1966 21 -2040 59 -214 234 -384 455
        -440 76 -20 119 -20 2084 -20 1965 0 2008 0 2084 20 114 29 209 83 291 165 85
        85 131 161 162 267 l23 80 0 1572 c0 1557 0 1572 -21 1646 -26 94 -74 182
        -141 255 -79 87 -155 134 -303 188 -21 8 -313 13 -935 17 -852 5 -907 6 -947
        24 -32 13 -109 88 -309 300 -147 154 -290 300 -318 323 -64 54 -154 98 -252
        123 -73 19 -111 20 -713 19 -593 0 -641 -1 -709 -19z m1365 -394 c32 -13 109
        -87 302 -290 142 -149 279 -290 303 -313 56 -54 147 -108 228 -136 65 -22 70
        -22 970 -27 l905 -5 53 -29 c65 -36 108 -92 122 -160 8 -36 10 -491 8 -1551
        -3 -1450 -4 -1501 -22 -1538 -26 -52 -72 -96 -126 -121 l-45 -21 -1975 0
        -1975 0 -45 21 c-54 25 -100 69 -126 121 -18 37 -19 95 -22 1938 -2 1319 1
        1913 8 1943 22 89 86 153 178 178 36 10 181 13 632 11 546 -2 588 -3 627 -21z"/>
        <path d="M2082 3439 c-399 -84 -719 -388 -818 -777 -20 -81 -24 -118 -24 -258
        0 -225 24 -331 114 -500 139 -260 386 -457 671 -535 120 -32 347 -38 475 -11
        113 23 229 67 324 124 l68 40 307 -305 c325 -325 352 -346 441 -347 47 0 106
        25 149 64 56 50 78 166 46 244 -11 24 -122 143 -328 349 l-311 313 36 67 c48
        90 94 228 109 331 17 118 7 316 -20 421 -142 545 -697 894 -1239 780z m384
        -359 c129 -32 217 -82 315 -180 147 -146 211 -295 213 -495 1 -129 -12 -189
        -65 -303 -217 -469 -844 -552 -1179 -156 -61 72 -125 200 -145 287 -85 374
        141 751 507 847 101 26 250 26 354 0z"/>
    </g>
</svg>
