<?xml version="1.0" standalone="no"?>
<!DOCTYPE svg PUBLIC "-//W3C//DTD SVG 20010904//EN" "http://www.w3.org/TR/2001/REC-SVG-20010904/DTD/svg10.dtd">
<svg version="1.0" xmlns="http://www.w3.org/2000/svg" width="998.000000pt" height="998.000000pt" viewBox="0 0 998.000000 998.000000" preserveAspectRatio="xMidYMid meet">
	<g transform="translate(0.000000,998.000000) scale(0.100000,-0.100000)" fill="#000000" stroke="none">
		<path fill="#0dbc00" d="M6611 9740 c-139 -51 -212 -148 -219 -292 -4 -66 -1 -84 22 -135 48
		-105 150 -184 257 -200 57 -8 1420 -9 1479 -1 50 7 140 30 183 47 17 7 27 7
		27 1 0 -6 -536 -546 -1191 -1202 -1326 -1326 -1249 -1241 -1249 -1378 0 -84
		14 -133 58 -198 24 -38 52 -63 91 -85 30 -17 60 -33 66 -34 5 -1 26 -6 45 -11
		19 -5 61 -7 94 -5 130 8 47 -67 1361 1245 661 659 1203 1196 1206 1194 3 -3
		-8 -45 -25 -93 l-31 -88 0 -765 0 -765 28 -60 c35 -76 97 -139 167 -173 153
		-72 347 0 423 158 l22 45 0 1280 0 1280 -27 57 c-39 85 -128 162 -213 185 -11
		3 -582 7 -1270 9 -1221 4 -1251 3 -1304 -16z"/>
		<path fill="#aaaaaa" d="M1886 7799 c-344 -31 -689 -166 -964 -377 -432 -332 -695 -811 -741
		-1347 -15 -163 -15 -2131 0 -2302 37 -449 229 -862 550 -1182 244 -243 528
		-406 858 -491 206 -54 188 -53 1093 -57 l847 -4 3 -827 3 -827 27 -51 c70
		-133 197 -198 335 -173 32 6 71 18 88 26 16 8 444 428 950 933 l920 918 200 5
		c309 8 501 49 755 161 371 163 706 479 898 846 76 145 114 239 152 383 65 244
		63 195 67 1397 4 1145 1 1271 -38 1465 -20 99 -95 341 -108 350 -4 2 -118
		-107 -253 -243 l-246 -247 8 -50 c5 -27 9 -558 9 -1180 1 -1238 2 -1207 -59
		-1394 -126 -387 -428 -684 -823 -812 -125 -40 -216 -51 -497 -58 -271 -7 -276
		-7 -325 -33 -38 -20 -220 -196 -735 -712 -377 -377 -691 -686 -698 -686 -9 0
		-12 125 -12 590 0 566 -1 591 -20 643 -24 65 -93 138 -159 170 l-46 22 -1015
		6 c-983 5 -1018 6 -1107 26 -518 118 -899 512 -988 1020 -22 130 -23 2296 0
		2426 45 258 168 498 347 674 180 178 341 270 598 342 l95 26 1792 3 1792 2 12
		23 c6 12 142 154 302 315 l292 292 -2030 -1 c-1117 -1 -2074 -6 -2129 -10z"/>
	</g>
</svg>
