<?xml version="1.0" encoding="iso-8859-1"?>
<svg version="1.1" xmlns="http://www.w3.org/2000/svg" xmlns:xlink="http://www.w3.org/1999/xlink" x="0px" y="0px" viewBox="0 0 367.2 367.2" xml:space="preserve">
	<g fill="#ffffff">
		<path d="M271.4,76c-8,0-15.6-3.2-21.2-8.8c-5.2-5.6-8.8-12.8-8.8-21.2V0H59.8C57,0,54.6,1.2,53,2.8l-0.4,0.4
			c-2,2-3.2,4.4-3.2,7.2v346.4c0,2.8,1.2,5.6,3.2,7.2c2,2,4.4,3.2,7.2,3.2h247.6c2.8,0,5.2-1.2,6.8-2.8l0.4-0.4
			c2-2,3.2-4.4,3.2-7.2V76H271.4z M283,278c-1.6,4.4-6.8,6.8-11.2,4.8l-32-12.4L208.6,258L93.4,144.4L93,144
			c-6.8-6.8-10-16-10-24.8c0-9.2,3.6-18.4,10.4-25.6c6.8-6.8,16.4-10.4,25.6-10.4c9.2,0,18.4,3.6,25.6,10.4l111.2,111.2
			c1.2,1.2,1.6,2.4,2,3.6l12.4,31.2l12.8,32C283.8,273.6,283.8,276,283,278z"/>
		<path d="M131.8,106c-3.6-3.6-8.4-5.2-13.2-5.2s-9.6,1.6-13.2,5.2c-3.6,3.6-5.2,8.4-5.2,13.2c0.4,4.4,2,9.2,5.6,13.2L211,237.6
			l13.2-13.2l13.2-13.2L131.8,106z"/>
		<polygon points="246.2,226.8 236.6,236.8 226.6,246.4 246.2,254.4 259.4,259.6 254.2,246.4 			"/>
		<path d="M271.4,58.4H305l-46-46V46c0,3.2,1.2,6.4,3.6,8.8C265,57.2,268.2,58.4,271.4,58.4z"/>
	</g>
</svg>
