<?xml version="1.0" standalone="no"?>
<!DOCTYPE svg PUBLIC "-//W3C//DTD SVG 20010904//EN" "http://www.w3.org/TR/2001/REC-SVG-20010904/DTD/svg10.dtd">
<svg version="1.0" xmlns="http://www.w3.org/2000/svg" width="51.000000pt" height="51.000000pt" viewBox="0 0 512.000000 512.000000" preserveAspectRatio="xMidYMid meet">
    <g transform="translate(0.000000,512.000000) scale(0.100000,-0.100000)" fill="#207245" stroke="none">
        <path d="M1385 4719 c-764 -143 -1283 -245 -1304 -256 -18 -9 -44 -33 -57 -52
        l-24 -36 0 -1814 c0 -1811 0 -1814 21 -1847 11 -18 34 -42 52 -53 37 -22 2570
        -501 2653 -501 36 0 59 7 87 25 65 45 67 53 67 350 l0 265 1068 0 c1047 0
        1068 0 1100 20 18 11 41 34 52 52 20 33 20 54 20 1688 0 1634 0 1655 -20 1688
        -11 18 -34 41 -52 52 -32 20 -53 20 -1100 20 l-1068 0 0 268 c0 249 -1 269
        -20 300 -31 50 -75 72 -145 71 -33 -1 -631 -108 -1330 -240z m3415 -2159 l0
        -1440 -960 0 -960 0 0 160 0 160 268 0 c249 0 269 1 300 20 48 30 72 75 72
        140 0 65 -24 110 -72 140 -31 19 -51 20 -300 20 l-268 0 0 160 0 160 268 0
        c249 0 269 1 300 20 48 30 72 75 72 140 0 65 -24 110 -72 140 -31 19 -51 20
        -300 20 l-268 0 0 160 0 160 268 0 c249 0 269 1 300 20 48 30 72 75 72 140 0
        65 -24 110 -72 140 -31 19 -51 20 -300 20 l-268 0 0 160 0 160 268 0 c249 0
        269 1 300 20 48 30 72 75 72 140 0 65 -24 110 -72 140 -31 19 -51 20 -300 20
        l-268 0 0 160 0 160 960 0 960 0 0 -1440z m-2642 930 c68 -42 94 -139 53 -206
        -10 -17 -129 -172 -263 -345 -134 -173 -248 -320 -252 -327 -5 -8 81 -113 245
        -300 138 -158 260 -300 270 -317 25 -40 25 -111 -1 -153 -40 -65 -132 -92
        -199 -57 -16 8 -138 138 -270 290 -133 152 -246 273 -251 270 -5 -3 -102 -125
        -215 -271 -114 -146 -221 -274 -238 -285 -68 -41 -165 -16 -207 53 -26 42 -26
        113 -1 154 10 16 116 155 235 308 119 153 216 282 216 288 0 5 -97 121 -216
        256 -119 136 -225 261 -235 277 -41 65 -15 163 53 205 42 25 113 26 153 2 17
        -11 122 -125 235 -255 113 -130 207 -236 210 -236 3 0 115 142 249 316 134
        173 258 324 275 334 41 25 112 25 154 -1z"/>
        <path d="M3912 3660 c-48 -30 -72 -75 -72 -140 0 -65 24 -110 72 -140 30 -18
        51 -20 248 -20 197 0 218 2 248 20 48 30 72 75 72 140 0 65 -24 110 -72 140
        -30 18 -51 20 -248 20 -197 0 -218 -2 -248 -20z"/>
        <path d="M3912 3020 c-48 -30 -72 -75 -72 -140 0 -65 24 -110 72 -140 30 -18
        51 -20 248 -20 197 0 218 2 248 20 48 30 72 75 72 140 0 65 -24 110 -72 140
        -30 18 -51 20 -248 20 -197 0 -218 -2 -248 -20z"/>
        <path d="M3912 2380 c-48 -30 -72 -75 -72 -140 0 -65 24 -110 72 -140 30 -18
        51 -20 248 -20 197 0 218 2 248 20 48 30 72 75 72 140 0 65 -24 110 -72 140
        -30 18 -51 20 -248 20 -197 0 -218 -2 -248 -20z"/>
        <path d="M3912 1740 c-48 -30 -72 -75 -72 -140 0 -65 24 -110 72 -140 30 -18
        51 -20 248 -20 197 0 218 2 248 20 48 30 72 75 72 140 0 65 -24 110 -72 140
        -30 18 -51 20 -248 20 -197 0 -218 -2 -248 -20z"/>
    </g>
</svg>
