<?xml version="1.0" encoding="UTF-8"?>
<svg id="Capa_1" data-name="Capa 1" xmlns="http://www.w3.org/2000/svg" viewBox="0 0 207.09 216.81">
  <defs>
    <style>
      .cls-1 {
        fill: #ca003d;
      }

      .cls-2 {
        fill: #1d1e1c;
      }
    </style>
  </defs>
  <g>
    <path class="cls-2" d="M180.09,145.1h-7.07v-27.03h7.27c.9,0,1.61-.7,1.61-1.58s-.7-1.59-1.61-1.59h-17.99c-.9,0-1.61,.7-1.61,1.59s.7,1.58,1.61,1.58h7.06v27.03h-7.25c-.91,0-1.61,.69-1.61,1.58s.7,1.59,1.61,1.59h17.99c.91,0,1.61-.7,1.61-1.59s-.7-1.58-1.61-1.58"/>
    <path class="cls-2" d="M182.11,50.44v-7.15h-8.35c-.85,0-1.55-.69-1.55-1.53s.7-1.53,1.55-1.53h10.1c.8,0,1.55,.69,1.55,1.53v8.63c0,.59-.2,1.08-.65,1.63-2.4,2.76-5.9,5.42-11.95,5.42-9.71,0-15.61-5.13-15.61-17.26s5.9-17.31,15.61-17.31c4.75,0,8.9,2.02,11.25,5.23,.25,.35,.35,.69,.35,1.04,0,.89-.7,1.58-1.6,1.58-.45,0-.9-.15-1.3-.64-1.7-2.32-4.9-4.14-8.7-4.14-7.7,0-12.11,4.59-12.11,14.25,0,10.26,4.4,14.2,12.11,14.2,4.65,0,7.65-1.92,9.3-3.95Z"/>
    <path class="cls-2" d="M155.59,86.25c0-11.69,5.9-17.31,15.61-17.31s15.6,5.62,15.6,17.31-5.9,17.26-15.6,17.26-15.61-5.67-15.61-17.26Zm3.5,0c0,9.61,4.45,14.2,12.11,14.2s12.1-4.59,12.1-14.2-4.45-14.25-12.1-14.25-12.11,4.59-12.11,14.25Z"/>
    <path class="cls-2" d="M162.87,193.93c-.9,0-1.7-.74-1.7-1.68v-29.83c0-.94,.8-1.68,1.7-1.68h8.5c7.06,0,10.21,3.45,10.21,8.78,0,3.25-2.05,5.92-4.85,6.71,3.6,.89,6.4,3.45,6.4,8.23,0,5.72-3.66,9.47-10.26,9.47h-10Zm1.7-18.69h6.75c4.45,0,6.8-2.27,6.8-5.72s-2.15-5.72-6.8-5.72h-6.75v11.44Zm0,15.63h8.25c4.55,0,6.86-2.42,6.86-6.41s-2.6-6.36-6.86-6.36h-8.25v12.77Z"/>
  </g>
  <g>
    <polygon class="cls-1" points="36.57 22.89 20.54 22.89 36.57 38.92 36.57 22.89"/>
    <path class="cls-1" d="M20.29,137.5c0,11.39,3.39,21.99,9.12,30.9,2.09,3.23,4.51,6.19,7.16,8.91V55.21l-16.28-16.29v98.57Z"/>
    <polygon class="cls-1" points="69.13 22.88 52.85 22.88 52.85 55.2 69.13 71.48 69.13 22.88"/>
    <path class="cls-1" d="M52.85,189.02c5.05,2.42,10.54,4.09,16.28,4.91V87.78l-16.28-16.28v117.52Z"/>
    <polygon class="cls-1" points="101.72 22.88 85.42 22.88 85.42 87.76 101.72 104.06 101.72 22.88"/>
    <path class="cls-1" d="M85.42,193.93c5.75-.83,11.25-2.5,16.3-4.9V120.36l-16.3-16.31v89.87Z"/>
    <polygon class="cls-1" points="134.3 22.88 118 22.88 118 120.34 134.3 136.64 134.3 22.88"/>
    <path class="cls-1" d="M118,177.36c2.67-2.75,5.1-5.74,7.17-8.96,3.37-5.2,5.91-10.97,7.45-17.14l-14.62-14.61v40.72Z"/>
  </g>
</svg>