<?xml version="1.0" encoding="UTF-8"?>
<svg id="Capa_1" data-name="Capa 1" xmlns="http://www.w3.org/2000/svg" viewBox="0 0 540.18 244.5">
  <defs>
    <style>
      .cls-1 {
        fill: #ca003d;
      }

      .cls-2 {
        fill: #1d1e1c;
      }
    </style>
  </defs>
  <g>
    <path class="cls-2" d="M279.77,171.04c0-32.29,16.3-47.81,43.11-47.81s43.11,15.52,43.11,47.81-16.3,47.69-43.11,47.69-43.11-15.66-43.11-47.69Zm9.67,0c0,26.56,12.3,39.24,33.44,39.24s33.44-12.67,33.44-39.24-12.3-39.36-33.44-39.36-33.44,12.66-33.44,39.36Z"/>
    <path class="cls-2" d="M426.45,208.31h-19.53v-74.67h20.07c2.49,0,4.44-1.91,4.44-4.37s-1.95-4.39-4.44-4.39h-49.7c-2.5,0-4.44,1.93-4.44,4.39s1.94,4.37,4.44,4.37h19.5v74.67h-20.03c-2.51,0-4.44,1.9-4.44,4.37s1.93,4.4,4.44,4.4h49.69c2.51,0,4.44-1.93,4.44-4.4s-1.93-4.37-4.44-4.37"/>
    <path class="cls-2" d="M260.17,199.38v-19.75h-23.08c-2.36,0-4.29-1.91-4.29-4.23s1.93-4.22,4.29-4.22h27.91c2.22,0,4.29,1.92,4.29,4.22v23.83c0,1.64-.56,3-1.81,4.5-6.63,7.63-16.3,14.99-33.02,14.99-26.82,0-43.12-14.16-43.12-47.69s16.3-47.81,43.12-47.81c13.12,0,24.59,5.58,31.08,14.44,.7,.95,.97,1.91,.97,2.85,0,2.46-1.93,4.37-4.42,4.37-1.25,0-2.49-.41-3.59-1.78-4.7-6.4-13.54-11.43-24.04-11.43-21.28,0-33.45,12.66-33.45,39.36,0,28.34,12.17,39.24,33.45,39.24,12.84,0,21.13-5.32,25.7-10.89Z"/>
    <path class="cls-2" d="M454.37,216.81c-2.49,0-4.69-2.05-4.69-4.63v-82.41c0-2.59,2.21-4.63,4.69-4.63h23.49c19.49,0,28.2,9.53,28.2,24.24,0,8.99-5.67,16.34-13.41,18.52,9.95,2.45,17.69,9.54,17.69,22.75,0,15.81-10.09,26.16-28.33,26.16h-27.64Zm4.7-51.63h18.66c12.3,0,18.79-6.26,18.79-15.8s-5.94-15.79-18.79-15.79h-18.66v31.59Zm0,43.19h22.8c12.57,0,18.94-6.67,18.94-17.71s-7.19-17.56-18.94-17.56h-22.8v35.27Z"/>
  </g>
  <g>
    <polygon class="cls-1" points="48.21 25.79 30.13 25.79 48.21 43.86 48.21 25.79"/>
    <path class="cls-1" d="M29.84,155.06c0,12.85,3.82,24.81,10.29,34.86,2.36,3.64,5.08,6.98,8.08,10.04V62.24l-18.37-18.37v111.19Z"/>
    <polygon class="cls-1" points="84.94 25.77 66.57 25.77 66.57 62.23 84.94 80.6 84.94 25.77"/>
    <path class="cls-1" d="M66.57,213.17c5.7,2.73,11.89,4.61,18.37,5.54V98.97l-18.37-18.37V213.17Z"/>
    <polygon class="cls-1" points="121.69 25.77 103.31 25.77 103.31 98.96 121.69 117.35 121.69 25.77"/>
    <path class="cls-1" d="M103.31,218.72c6.49-.94,12.68-2.82,18.39-5.54v-77.45l-18.39-18.39v101.38Z"/>
    <polygon class="cls-1" points="158.44 25.77 140.06 25.77 140.06 135.71 158.44 154.1 158.44 25.77"/>
    <path class="cls-1" d="M140.06,200.03c3.01-3.1,5.76-6.47,8.09-10.11,3.8-5.87,6.66-12.38,8.4-19.34l-16.49-16.48v45.93Z"/>
  </g>
</svg>