<?xml version="1.0" encoding="UTF-8"?>
<svg id="Capa_1" data-name="Capa 1" xmlns="http://www.w3.org/2000/svg" viewBox="0 0 282.3 434">
  <defs>
    <style>
      .cls-1 {
        fill: #ca003d;
      }

      .cls-2 {
        fill: #1d1e1c;
      }
    </style>
  </defs>
  <g>
    <path class="cls-2" d="M248.9,306.65h-16.03v-61.25h16.47c2.04,0,3.64-1.58,3.64-3.59s-1.6-3.6-3.64-3.6h-40.77c-2.05,0-3.65,1.58-3.65,3.6s1.6,3.59,3.65,3.59h16v61.25h-16.44c-2.06,0-3.64,1.56-3.64,3.59s1.58,3.61,3.64,3.61h40.76c2.06,0,3.64-1.59,3.64-3.61s-1.58-3.59-3.64-3.59"/>
    <path class="cls-2" d="M253.47,92.14v-16.2h-18.93c-1.94,0-3.52-1.57-3.52-3.47s1.59-3.46,3.52-3.46h22.9c1.82,0,3.52,1.57,3.52,3.46v19.56c0,1.34-.46,2.46-1.48,3.69-5.44,6.26-13.37,12.29-27.09,12.29-22,0-35.37-11.62-35.37-39.11s13.37-39.23,35.37-39.23c10.77,0,20.18,4.58,25.5,11.85,.57,.78,.79,1.56,.79,2.35,0,2.01-1.59,3.58-3.62,3.58-1.02,0-2.04-.33-2.95-1.45-3.86-5.25-11.11-9.39-19.72-9.39-17.46,0-27.44,10.4-27.44,32.3,0,23.24,9.98,32.19,27.44,32.19,10.54,0,17.34-4.36,21.08-8.94Z"/>
    <path class="cls-2" d="M193.39,173.28c0-26.49,13.37-39.23,35.37-39.23s35.36,12.74,35.36,39.23-13.37,39.12-35.36,39.12-35.37-12.86-35.37-39.12Zm7.93,0c0,21.79,10.09,32.19,27.44,32.19s27.43-10.4,27.43-32.19-10.09-32.3-27.43-32.3-27.44,10.4-27.44,32.3Z"/>
    <path class="cls-2" d="M209.88,417.33c-2.03,0-3.86-1.67-3.86-3.8v-67.61c0-2.12,1.82-3.8,3.86-3.8h19.27c15.99,0,23.13,7.83,23.13,19.89,0,7.37-4.65,13.41-11,15.2,8.16,2.01,14.51,7.82,14.51,18.66,0,12.96-8.28,21.46-23.25,21.46h-22.67Zm3.86-42.36h15.31c10.09,0,15.42-5.14,15.42-12.96s-4.87-12.96-15.42-12.96h-15.31v25.92Zm0,35.43h18.7c10.32,0,15.54-5.48,15.54-14.53s-5.9-14.41-15.54-14.41h-18.7v28.94Z"/>
  </g>
  <g>
    <polygon class="cls-1" points="34.46 29.68 18.44 29.68 34.46 45.7 34.46 29.68"/>
    <path class="cls-1" d="M18.18,144.28c0,11.39,3.39,21.99,9.12,30.9,2.09,3.23,4.51,6.19,7.16,8.91V61.99l-16.28-16.29v98.57Z"/>
    <polygon class="cls-1" points="67.03 29.66 50.74 29.66 50.74 61.98 67.03 78.26 67.03 29.66"/>
    <path class="cls-1" d="M50.74,195.8c5.05,2.42,10.54,4.09,16.28,4.91V94.56l-16.28-16.28v117.52Z"/>
    <polygon class="cls-1" points="99.61 29.66 83.31 29.66 83.31 94.54 99.61 110.85 99.61 29.66"/>
    <path class="cls-1" d="M83.31,200.71c5.75-.83,11.25-2.5,16.3-4.9V127.15l-16.3-16.31v89.87Z"/>
    <polygon class="cls-1" points="132.19 29.66 115.89 29.66 115.89 127.13 132.19 143.43 132.19 29.66"/>
    <path class="cls-1" d="M115.89,184.14c2.67-2.75,5.1-5.74,7.17-8.96,3.37-5.2,5.91-10.97,7.45-17.14l-14.62-14.61v40.72Z"/>
  </g>
</svg>