<?xml version="1.0" encoding="UTF-8"?>
<svg id="Capa_1" data-name="Capa 1" xmlns="http://www.w3.org/2000/svg" viewBox="0 0 841.89 194.72">
  <defs>
    <style>
      .cls-1 {
        fill: #cb133c;
      }

      .cls-2 {
        fill: #1d1d1b;
      }
    </style>
  </defs>
  <path class="cls-2" d="M237.06,74.95c.88-1.07,1.28-2.03,1.28-3.19v-16.92c0-1.64-1.47-3-3.05-3h-19.81c-1.67,0-3.04,1.36-3.04,3s1.37,3,3.04,3h16.38v14.02c-3.24,3.96-9.13,7.73-18.24,7.73-15.11,0-23.74-7.73-23.74-27.85,0-18.95,8.63-27.94,23.74-27.94,7.45,0,13.73,3.57,17.07,8.12,.78,.97,1.66,1.26,2.55,1.26,1.76,0,3.14-1.35,3.14-3.1,0-.67-.19-1.35-.69-2.02-4.61-6.28-12.75-10.25-22.06-10.25-19.04,0-30.61,11.02-30.61,33.94s11.57,33.85,30.61,33.85c11.86,0,18.73-5.23,23.44-10.64m63.06-23.21c0,18.86-8.73,27.85-23.74,27.85s-23.74-8.99-23.74-27.85,8.73-27.94,23.74-27.94,23.74,8.99,23.74,27.94m6.86,0c0-22.92-11.57-33.94-30.6-33.94s-30.6,11.02-30.6,33.94,11.57,33.85,30.6,33.85,30.6-11.12,30.6-33.85m56.28-28.61c.1-.3,.3-.88,.3-1.46,0-1.84-1.47-3.29-3.34-3.29s-2.85,1.35-3.14,2.13l-19.91,52.02-19.91-52.02c-.3-.78-1.28-2.13-3.14-2.13s-3.34,1.45-3.34,3.29c0,.58,.2,1.16,.3,1.46l22.95,59.65c.49,1.35,1.87,2.22,3.14,2.22s2.65-.87,3.14-2.22l22.95-59.65Zm46.68,58.11c0-1.65-1.38-3-3.05-3h-29.23v-23.79h21.59c1.67,0,3.04-1.35,3.04-3s-1.38-2.99-3.04-2.99h-21.59V25.16h28.16c1.67,0,3.04-1.35,3.04-3s-1.37-3-3.04-3h-31.49c-1.86,0-3.33,1.46-3.33,3.29v58.5c0,1.84,1.47,3.29,3.33,3.29h32.57c1.67,0,3.05-1.35,3.05-2.99m33.92-31.14h-16.39V25.16h16.09c7.06,0,12.07,5.32,12.07,12.47s-4.91,12.47-11.77,12.47m19.62,31.62c0-.68-.2-1.45-.69-2.04l-17.96-23.58c10.59-.49,17.56-8.51,17.56-18.47s-7.84-18.47-18.74-18.47h-19.52c-1.86,0-3.34,1.46-3.34,3.29v59.27c0,1.83,1.47,3.28,3.34,3.28s3.34-1.45,3.34-3.28v-25.62h9.91l19.91,27.37c.79,1.16,1.86,1.54,2.85,1.54,1.86,0,3.33-1.45,3.33-3.28m55.99,0V21.58c0-1.73-1.47-3.19-3.24-3.19s-3.23,1.45-3.23,3.19v49.6l-34.72-51.44c-.49-.68-1.47-1.36-2.65-1.36-1.76,0-3.23,1.45-3.23,3.19v60.25c0,1.73,1.47,3.19,3.23,3.19s3.24-1.45,3.24-3.19V32.31l34.53,51.35c.68,.88,1.57,1.35,2.75,1.35,1.86,0,3.34-1.45,3.34-3.28"/>
  <path class="cls-2" d="M224.97,113.29c0-1.75-1.38-3.12-3.15-3.12h-35.28c-1.77,0-3.15,1.37-3.15,3.12s1.38,3.1,3.15,3.1h13.84v53h-14.22c-1.78,0-3.15,1.35-3.15,3.1s1.37,3.12,3.15,3.12h35.27c1.78,0,3.15-1.37,3.15-3.12s-1.37-3.1-3.15-3.1h-13.87v-53h14.25c1.77,0,3.15-1.36,3.15-3.1m48.08,59.18c0-1.74-1.38-3.1-3.14-3.1h-26.88v-56.38c0-1.82-1.47-3.28-3.33-3.28s-3.34,1.45-3.34,3.28v59.28c0,1.83,1.47,3.28,3.34,3.28h30.21c1.77,0,3.14-1.35,3.14-3.09m46.38,0c0-1.74-1.37-3.1-3.14-3.1h-26.88v-56.38c0-1.82-1.47-3.28-3.34-3.28s-3.33,1.45-3.33,3.28v59.28c0,1.83,1.47,3.28,3.33,3.28h30.22c1.77,0,3.14-1.35,3.14-3.09m48.64,.09c0-1.64-1.37-2.99-3.05-2.99h-29.23v-23.79h21.59c1.66,0,3.04-1.36,3.04-3s-1.37-2.99-3.04-2.99h-21.59v-23.31h28.16c1.66,0,3.04-1.35,3.04-3s-1.38-3-3.04-3h-31.49c-1.86,0-3.34,1.45-3.34,3.29v58.5c0,1.83,1.47,3.28,3.34,3.28h32.56c1.67,0,3.05-1.35,3.05-3m52.16-51.63c0-.67-.19-1.25-.59-1.83-4.12-6.1-11.67-9.97-20.99-9.97-14.32,0-20.9,7.64-20.9,16.54,0,22.91,37.08,14.4,37.08,32.49,0,8.5-6.08,12.76-16.87,12.76-8.64,0-14.32-4.16-17.46-9.18-.59-.96-1.57-1.54-2.75-1.54-1.77,0-3.13,1.35-3.13,3.09,0,.58,.09,.96,.49,1.74,3.34,6.28,11.68,11.9,22.86,11.9,15.1,0,23.55-6.68,23.55-18.76,0-23.31-37.08-16.44-37.08-32.49,0-5.51,3.93-10.54,14.23-10.54,8.24,0,12.95,4.06,15.89,7.64,.79,.97,1.67,1.26,2.55,1.26,1.76,0,3.14-1.36,3.14-3.09"/>
  <path class="cls-2" d="M493.49,156.99c0,7.84-4.52,12.57-13.44,12.57h-16.18v-25.03h16.18c8.34,0,13.44,4.53,13.44,12.46m-16.39-18.08h-13.24v-22.42h13.24c9.12,0,13.34,4.25,13.34,11.21s-4.61,11.21-13.34,11.21m10.6,1.94c5.49-1.55,9.52-6.76,9.52-13.15,0-10.44-6.18-17.21-20.02-17.21h-16.67c-1.77,0-3.33,1.45-3.33,3.29v58.5c0,1.83,1.57,3.29,3.33,3.29h19.62c12.95,0,20.11-7.35,20.11-18.57,0-9.38-5.5-14.41-12.56-16.15m56.02,9.48h-23.25l11.58-29.59,11.67,29.59Zm15.79,22.73c0-.3-.1-.97-.29-1.46l-23.93-59.66c-.49-1.16-1.57-2.22-3.24-2.22-1.77,0-2.65,1.06-3.14,2.22l-23.94,59.66c-.2,.39-.3,1.06-.3,1.46,0,1.73,1.47,3.28,3.34,3.28,1.67,0,2.75-1.06,3.24-2.32l7.16-17.69h27.37l7.07,17.78c.48,1.26,1.57,2.23,3.23,2.23,2.06,0,3.44-1.55,3.44-3.28m43.95-.59c0-1.74-1.37-3.1-3.14-3.1h-26.88v-56.36c0-1.84-1.47-3.29-3.33-3.29s-3.34,1.45-3.34,3.29v59.27c0,1.83,1.47,3.29,3.34,3.29h30.21c1.77,0,3.14-1.36,3.14-3.09m46.41,.11c0-1.65-1.38-3.01-3.05-3.01h-29.23v-23.78h21.59c1.66,0,3.04-1.36,3.04-3s-1.38-3-3.04-3h-21.59v-23.3h28.16c1.66,0,3.04-1.35,3.04-3s-1.38-2.99-3.04-2.99h-31.49c-1.86,0-3.33,1.44-3.33,3.28v58.5c0,1.83,1.47,3.29,3.33,3.29h32.57c1.67,0,3.05-1.36,3.05-2.99m44.71-22.25h-23.24l11.57-29.59,11.67,29.59Zm15.8,22.73c0-.3-.1-.97-.3-1.46l-23.94-59.66c-.49-1.16-1.57-2.22-3.24-2.22-1.76,0-2.65,1.06-3.14,2.22l-23.94,59.66c-.2,.39-.29,1.06-.29,1.46,0,1.73,1.47,3.28,3.34,3.28,1.67,0,2.75-1.06,3.24-2.32l7.15-17.69h27.37l7.07,17.78c.49,1.26,1.57,2.23,3.23,2.23,2.06,0,3.44-1.55,3.44-3.28m32.55-31.62h-16.39v-24.94h16.09c7.06,0,12.07,5.32,12.07,12.47s-4.91,12.47-11.77,12.47m19.62,31.62c0-.68-.2-1.46-.69-2.03l-17.95-23.6c10.6-.48,17.56-8.51,17.56-18.46s-7.85-18.47-18.74-18.47h-19.52c-1.86,0-3.33,1.45-3.33,3.29v59.28c0,1.83,1.47,3.28,3.33,3.28s3.34-1.45,3.34-3.28v-25.63h9.91l19.91,27.36c.78,1.16,1.86,1.55,2.85,1.55,1.86,0,3.34-1.45,3.34-3.28m51.18-52.12c0-.68-.19-1.25-.59-1.84-4.12-6.09-11.67-9.95-20.98-9.95-14.33,0-20.9,7.63-20.9,16.53,0,22.91,37.08,14.41,37.08,32.49,0,8.51-6.08,12.76-16.87,12.76-8.63,0-14.32-4.16-17.46-9.19-.59-.97-1.57-1.54-2.75-1.54-1.77,0-3.13,1.35-3.13,3.09,0,.58,.1,.96,.49,1.73,3.33,6.29,11.67,11.9,22.85,11.9,15.11,0,23.55-6.68,23.55-18.76,0-23.3-37.08-16.43-37.08-32.49,0-5.51,3.92-10.54,14.23-10.54,8.24,0,12.95,4.06,15.89,7.64,.78,.97,1.66,1.25,2.55,1.25,1.76,0,3.13-1.35,3.13-3.09"/>
  <path class="cls-1" d="M41.2,54.97l-14.31-14.32V127.3c0,10.01,2.98,19.33,8.02,27.17,1.84,2.84,3.96,5.44,6.29,7.83V54.97Zm-14.09-28.41l14.09,14.09v-14.09h-14.09Zm42.71,57.04l-14.31-14.31v103.31c4.44,2.13,9.27,3.6,14.31,4.32V83.59Zm-14.31-28.64l14.31,14.31V26.55h-14.31v28.41Zm42.96,57.28l-14.33-14.33v79.01c5.06-.73,9.89-2.2,14.33-4.32v-60.36Zm-14.33-28.65l14.33,14.33V26.55h-14.33v57.04Zm41.49,55.81l-12.85-12.84v35.79c2.35-2.42,4.49-5.04,6.31-7.88,2.96-4.57,5.19-9.65,6.55-15.08m1.48-12.84V26.55h-14.33V112.22l14.33,14.33Z"/>
</svg>