<?xml version="1.0" standalone="no"?>
<!DOCTYPE svg PUBLIC "-//W3C//DTD SVG 20010904//EN"
 "http://www.w3.org/TR/2001/REC-SVG-20010904/DTD/svg10.dtd">
<svg version="1.0" xmlns="http://www.w3.org/2000/svg"
 width="512.000000pt" height="512.000000pt" viewBox="0 0 512.000000 512.000000"
 preserveAspectRatio="xMidYMid meet">
<metadata>
Created by potrace 1.16, written by Peter Selinger 2001-2019
</metadata>
<g transform="translate(0.000000,512.000000) scale(0.100000,-0.100000)"
fill="#000000" stroke="none">
<path d="M2395 5101 c-206 -60 -366 -224 -419 -428 -21 -78 -21 -228 0 -306
18 -70 53 -143 100 -209 l33 -47 -57 -38 c-135 -90 -249 -222 -322 -374 -69
-145 -83 -216 -84 -431 -1 -205 1 -212 68 -262 27 -21 35 -21 846 -21 811 0
819 0 846 21 67 50 69 57 68 262 -1 215 -15 286 -84 431 -73 152 -187 284
-322 374 l-57 38 33 47 c47 66 82 139 100 209 21 78 21 228 0 306 -54 208
-223 377 -431 431 -82 21 -240 20 -318 -3z m269 -307 c55 -19 132 -90 161
-149 15 -30 20 -61 20 -125 0 -99 -17 -142 -80 -205 -63 -63 -106 -80 -205
-80 -99 0 -142 17 -205 80 -55 54 -78 107 -83 187 -9 139 59 242 193 295 44
17 144 15 199 -3z m46 -899 c168 -44 313 -163 389 -316 40 -82 70 -191 71
-256 l0 -33 -610 0 -610 0 0 33 c1 65 31 174 71 256 31 64 60 102 113 155 121
120 252 175 421 175 57 1 124 -6 155 -14z"/>
<path d="M1215 3911 c-29 -12 -200 -193 -269 -284 -190 -254 -330 -550 -407
-862 -35 -144 -35 -158 -6 -215 37 -72 121 -100 201 -66 53 22 71 55 105 198
87 357 253 660 507 929 99 104 113 161 63 245 -11 18 -35 39 -53 48 -36 17
-107 20 -141 7z"/>
<path d="M3765 3905 c-41 -21 -63 -49 -75 -96 -18 -66 1 -111 84 -198 251
-265 424 -580 501 -911 41 -180 69 -219 163 -228 62 -6 114 17 142 64 33 53
34 90 5 214 -99 416 -319 813 -604 1094 -69 68 -72 70 -128 73 -40 3 -68 -1
-88 -12z"/>
<path d="M835 2133 c-108 -14 -241 -77 -327 -153 -227 -203 -261 -569 -75
-812 l35 -46 -61 -38 c-84 -51 -213 -183 -269 -274 -105 -169 -138 -301 -138
-547 0 -185 5 -204 66 -244 28 -18 63 -19 847 -19 914 0 854 -5 900 70 20 33
22 47 21 200 -2 182 -20 284 -72 409 -63 150 -186 301 -321 393 l-78 54 29 34
c72 85 128 248 128 369 -1 144 -56 297 -146 399 -132 150 -343 231 -539 205z
m204 -335 c58 -28 118 -89 144 -147 33 -70 30 -179 -5 -247 -114 -217 -413
-217 -525 0 -37 71 -39 179 -4 250 41 84 115 144 206 167 46 12 135 1 184 -23z
m52 -898 c70 -21 159 -71 226 -126 91 -75 183 -241 198 -359 3 -27 8 -65 11
-82 l5 -33 -611 0 -610 0 0 48 c0 26 7 75 15 110 80 337 438 544 766 442z"/>
<path d="M4125 2134 c-301 -47 -524 -302 -525 -600 0 -126 55 -288 128 -374
l29 -34 -78 -54 c-187 -128 -325 -336 -375 -565 -10 -47 -16 -130 -17 -237 -2
-154 -1 -167 20 -200 46 -75 -14 -70 900 -70 784 0 819 1 847 19 61 40 66 59
66 244 0 246 -33 378 -138 547 -55 89 -183 220 -268 274 l-61 40 35 45 c84
110 128 257 119 401 -16 256 -189 471 -437 544 -56 17 -193 28 -245 20z m202
-336 c60 -28 113 -81 144 -144 35 -71 33 -179 -4 -250 -89 -173 -309 -218
-452 -92 -88 78 -126 203 -91 304 59 175 243 257 403 182z m-10 -884 c239 -49
424 -225 478 -456 8 -35 15 -84 15 -110 l0 -48 -610 0 -609 0 5 53 c25 238
151 420 360 519 65 31 171 55 242 57 24 1 77 -6 119 -15z"/>
<path d="M3141 1329 c-56 -22 -226 -59 -341 -75 -94 -12 -170 -15 -305 -11
-188 6 -295 20 -455 63 -117 32 -187 30 -226 -7 -72 -67 -73 -170 -2 -236 26
-24 150 -63 296 -92 164 -33 322 -44 522 -38 205 6 353 27 540 79 98 27 121
37 152 68 98 97 28 261 -112 259 -25 0 -56 -5 -69 -10z"/>
</g>
</svg>
