<?xml version="1.0" encoding="iso-8859-1"?>
<svg version="1.1" id="Capa_1" xmlns="http://www.w3.org/2000/svg" xmlns:xlink="http://www.w3.org/1999/xlink" x="0px" y="0px"
	 viewBox="0 0 530.818 530.818" style="enable-background:new 0 0 530.818 530.818;" xml:space="preserve">
	<g>
		<path fill="#ffffff" d="M525.938,466.522c-1.597-2.789-3.984-7.371-7.172-13.746l-20.32-40.043V303.36
			c0-2.789-0.896-5.18-2.689-7.172s-4.084-2.988-6.873-2.988H329.309c-2.789,0-5.182,0.996-7.173,2.988s-2.987,4.383-2.987,7.172
			v53.787h-36.456V237.018h92.039c12.75,0,14.938-8.566,6.571-25.699c-1.192-2.789-3.586-7.371-7.172-13.746L354.41,157.53V48.159
			c0-2.789-0.996-5.18-2.988-7.172s-4.383-2.988-7.172-2.988H184.677c-2.789,0-5.08,0.996-6.873,2.988s-2.689,4.383-2.689,7.172
			V157.53l-20.32,40.043l-1.793,3.586c-1.992,4.383-3.486,7.57-4.482,9.562c-0.996,1.991-2.191,4.78-3.586,8.366
			c-1.395,3.586-2.092,6.275-2.092,8.068s0.299,3.586,0.896,5.379c0.597,1.793,1.992,3.088,4.184,3.885
			c2.192,0.797,5.08,0.996,8.666,0.599h90.246v120.129h-35.262v-53.789c0-2.789-0.896-5.18-2.689-7.172s-4.084-2.988-6.873-2.988
			H42.434c-2.789,0-5.18,0.996-7.172,2.988s-2.988,4.383-2.988,7.172v109.371l-19.723,40.043c-0.398,0.797-1.195,2.188-2.391,4.184
			c-1.992,3.984-3.486,7.072-4.482,9.264c-0.996,2.192-2.191,4.98-3.586,8.367C0.697,477.977,0,480.566,0,482.358
			s0.299,3.686,0.896,5.678s1.992,3.287,4.184,3.885c2.192,0.601,5.08,0.896,8.666,0.896h218.145
			c13.148,0,15.539-8.769,7.172-26.297c-1.594-2.789-3.984-7.371-7.172-13.746l-20.32-40.043v-19.725h107.578v19.726l-19.725,40.043
			c-0.396,0.797-1.194,2.188-2.392,4.184c-1.992,3.984-3.485,7.072-4.481,9.267c-0.995,2.189-2.189,4.979-3.586,8.364
			c-1.396,3.39-2.093,5.979-2.093,7.771s0.3,3.686,0.896,5.678c0.598,1.992,1.991,3.287,4.185,3.885
			c2.192,0.601,5.08,0.896,8.666,0.896h218.146C531.913,492.819,534.305,484.052,525.938,466.522z M182.286,393.007H61.559v-71.719
			h120.727V393.007z M203.802,137.807V66.089h121.324v71.718L203.802,137.807L203.802,137.807z M469.161,393.007H348.434v-71.719
			h120.728L469.161,393.007L469.161,393.007z"/>
	</g>
</svg>
