<?xml version="1.0" standalone="no"?>
<!DOCTYPE svg PUBLIC "-//W3C//DTD SVG 20010904//EN" "http://www.w3.org/TR/2001/REC-SVG-20010904/DTD/svg10.dtd">
<svg version="1.0" xmlns="http://www.w3.org/2000/svg" width="131.000000pt" height="131.000000pt" viewBox="0 0 131.000000 131.000000" preserveAspectRatio="xMidYMid meet">
	<g transform="translate(0.000000,131.000000) scale(0.100000,-0.100000)" fill="#ffffff" stroke="none">
		<path d="M490 1093 c-12 -15 -19 -35 -17 -43 2 -9 66 -100 141 -203 75 -102 136 -189 136 -192 0 -3 -61 -90 -136 -192 -75 -103 -139 -194 -141 -203 -3 -10 7 -30 20 -46 43 -50 62 -34 234 201 84 115 156 217 159 227 3 9 0 27 -6 38 -21 39 -291 405 -312 423 -29 24 -53 21 -78 -10z"/>
	</g>
</svg>